%TF.GenerationSoftware,KiCad,Pcbnew,7.0.8*%
%TF.CreationDate,2023-11-09T16:50:50-05:00*%
%TF.ProjectId,proyecto final,70726f79-6563-4746-9f20-66696e616c2e,1.0*%
%TF.SameCoordinates,Original*%
%TF.FileFunction,Soldermask,Bot*%
%TF.FilePolarity,Negative*%
%FSLAX46Y46*%
G04 Gerber Fmt 4.6, Leading zero omitted, Abs format (unit mm)*
G04 Created by KiCad (PCBNEW 7.0.8) date 2023-11-09 16:50:50*
%MOMM*%
%LPD*%
G01*
G04 APERTURE LIST*
G04 Aperture macros list*
%AMRoundRect*
0 Rectangle with rounded corners*
0 $1 Rounding radius*
0 $2 $3 $4 $5 $6 $7 $8 $9 X,Y pos of 4 corners*
0 Add a 4 corners polygon primitive as box body*
4,1,4,$2,$3,$4,$5,$6,$7,$8,$9,$2,$3,0*
0 Add four circle primitives for the rounded corners*
1,1,$1+$1,$2,$3*
1,1,$1+$1,$4,$5*
1,1,$1+$1,$6,$7*
1,1,$1+$1,$8,$9*
0 Add four rect primitives between the rounded corners*
20,1,$1+$1,$2,$3,$4,$5,0*
20,1,$1+$1,$4,$5,$6,$7,0*
20,1,$1+$1,$6,$7,$8,$9,0*
20,1,$1+$1,$8,$9,$2,$3,0*%
G04 Aperture macros list end*
%ADD10R,1.600000X1.600000*%
%ADD11C,1.600000*%
%ADD12C,5.600000*%
%ADD13O,1.700000X1.700000*%
%ADD14R,1.700000X1.700000*%
%ADD15C,3.000000*%
%ADD16RoundRect,0.102000X-1.000000X-1.000000X1.000000X-1.000000X1.000000X1.000000X-1.000000X1.000000X0*%
%ADD17C,2.204000*%
%ADD18R,3.500000X3.500000*%
%ADD19RoundRect,0.750000X0.750000X1.000000X-0.750000X1.000000X-0.750000X-1.000000X0.750000X-1.000000X0*%
%ADD20RoundRect,0.875000X0.875000X0.875000X-0.875000X0.875000X-0.875000X-0.875000X0.875000X-0.875000X0*%
G04 APERTURE END LIST*
D10*
%TO.C,C1*%
X165065000Y-51125000D03*
D11*
X167565000Y-51125000D03*
%TD*%
D12*
%TO.C,REF\u002A\u002A*%
X113300000Y-32200000D03*
%TD*%
D13*
%TO.C,Servos*%
X180940000Y-88590000D03*
X180940000Y-86050000D03*
X180940000Y-83510000D03*
X180940000Y-80970000D03*
X180940000Y-78430000D03*
X180940000Y-75890000D03*
X180940000Y-73350000D03*
X180940000Y-70810000D03*
X180940000Y-68270000D03*
D14*
X180940000Y-65730000D03*
%TD*%
D13*
%TO.C,Energ\u00EDa*%
X183480000Y-88590000D03*
X183480000Y-86050000D03*
X183480000Y-83510000D03*
X183480000Y-80970000D03*
X183480000Y-78430000D03*
X183480000Y-75890000D03*
X183480000Y-73350000D03*
X183480000Y-70810000D03*
X183480000Y-68270000D03*
D14*
X183480000Y-65730000D03*
%TD*%
D12*
%TO.C,*%
X113450000Y-99750000D03*
%TD*%
D15*
%TO.C,ESP32 WROOM 32*%
X133160000Y-35855000D03*
X133160000Y-82805000D03*
X157670000Y-35855000D03*
X157670000Y-82805000D03*
D16*
X132740000Y-43815000D03*
D17*
X132740000Y-46355000D03*
X132740000Y-48895000D03*
X132740000Y-51435000D03*
X132740000Y-53975000D03*
X132740000Y-56515000D03*
X132740000Y-59055000D03*
X132740000Y-61595000D03*
X132740000Y-64135000D03*
X132740000Y-66675000D03*
X132740000Y-69215000D03*
X132740000Y-71755000D03*
X132740000Y-74295000D03*
X132740000Y-76835000D03*
X132740000Y-79375000D03*
X158140000Y-79375000D03*
X158140000Y-76835000D03*
X158140000Y-74295000D03*
X158140000Y-71755000D03*
X158140000Y-69215000D03*
X158140000Y-66675000D03*
X158140000Y-64135000D03*
X158140000Y-61595000D03*
X158140000Y-59055000D03*
X158140000Y-56515000D03*
X158140000Y-53975000D03*
X158140000Y-51435000D03*
X158140000Y-48895000D03*
X158140000Y-46355000D03*
X158140000Y-43815000D03*
%TD*%
D18*
%TO.C,jack1*%
X192720000Y-45410000D03*
D19*
X198720000Y-45410000D03*
D20*
X195720000Y-40710000D03*
%TD*%
D13*
%TO.C,Tierra*%
X186020000Y-88590000D03*
X186020000Y-86050000D03*
X186020000Y-83510000D03*
X186020000Y-80970000D03*
X186020000Y-78430000D03*
X186020000Y-75890000D03*
X186020000Y-73350000D03*
X186020000Y-70810000D03*
X186020000Y-68270000D03*
D14*
X186020000Y-65730000D03*
%TD*%
D12*
%TO.C,*%
X203350000Y-100100000D03*
%TD*%
%TO.C,*%
X203550000Y-32000000D03*
%TD*%
M02*
