%TF.GenerationSoftware,KiCad,Pcbnew,7.0.8*%
%TF.CreationDate,2023-11-09T16:50:50-05:00*%
%TF.ProjectId,proyecto final,70726f79-6563-4746-9f20-66696e616c2e,1.0*%
%TF.SameCoordinates,Original*%
%TF.FileFunction,Legend,Top*%
%TF.FilePolarity,Positive*%
%FSLAX46Y46*%
G04 Gerber Fmt 4.6, Leading zero omitted, Abs format (unit mm)*
G04 Created by KiCad (PCBNEW 7.0.8) date 2023-11-09 16:50:50*
%MOMM*%
%LPD*%
G01*
G04 APERTURE LIST*
%ADD10C,0.300000*%
%ADD11C,0.150000*%
%ADD12C,0.120000*%
%ADD13C,0.127000*%
%ADD14C,0.200000*%
%ADD15C,0.010000*%
G04 APERTURE END LIST*
D10*
X131840225Y-92335828D02*
X132697368Y-92335828D01*
X132268796Y-93835828D02*
X132268796Y-92335828D01*
X133840225Y-93835828D02*
X133840225Y-93050114D01*
X133840225Y-93050114D02*
X133768796Y-92907257D01*
X133768796Y-92907257D02*
X133625939Y-92835828D01*
X133625939Y-92835828D02*
X133340225Y-92835828D01*
X133340225Y-92835828D02*
X133197367Y-92907257D01*
X133840225Y-93764400D02*
X133697367Y-93835828D01*
X133697367Y-93835828D02*
X133340225Y-93835828D01*
X133340225Y-93835828D02*
X133197367Y-93764400D01*
X133197367Y-93764400D02*
X133125939Y-93621542D01*
X133125939Y-93621542D02*
X133125939Y-93478685D01*
X133125939Y-93478685D02*
X133197367Y-93335828D01*
X133197367Y-93335828D02*
X133340225Y-93264400D01*
X133340225Y-93264400D02*
X133697367Y-93264400D01*
X133697367Y-93264400D02*
X133840225Y-93192971D01*
X134768796Y-93835828D02*
X134625939Y-93764400D01*
X134625939Y-93764400D02*
X134554510Y-93621542D01*
X134554510Y-93621542D02*
X134554510Y-92335828D01*
X135554510Y-93835828D02*
X135411653Y-93764400D01*
X135411653Y-93764400D02*
X135340224Y-93621542D01*
X135340224Y-93621542D02*
X135340224Y-92335828D01*
X136697367Y-93764400D02*
X136554510Y-93835828D01*
X136554510Y-93835828D02*
X136268796Y-93835828D01*
X136268796Y-93835828D02*
X136125938Y-93764400D01*
X136125938Y-93764400D02*
X136054510Y-93621542D01*
X136054510Y-93621542D02*
X136054510Y-93050114D01*
X136054510Y-93050114D02*
X136125938Y-92907257D01*
X136125938Y-92907257D02*
X136268796Y-92835828D01*
X136268796Y-92835828D02*
X136554510Y-92835828D01*
X136554510Y-92835828D02*
X136697367Y-92907257D01*
X136697367Y-92907257D02*
X136768796Y-93050114D01*
X136768796Y-93050114D02*
X136768796Y-93192971D01*
X136768796Y-93192971D02*
X136054510Y-93335828D01*
X137411652Y-93835828D02*
X137411652Y-92835828D01*
X137411652Y-93121542D02*
X137483081Y-92978685D01*
X137483081Y-92978685D02*
X137554510Y-92907257D01*
X137554510Y-92907257D02*
X137697367Y-92835828D01*
X137697367Y-92835828D02*
X137840224Y-92835828D01*
X140125938Y-93835828D02*
X140125938Y-92335828D01*
X140125938Y-93764400D02*
X139983080Y-93835828D01*
X139983080Y-93835828D02*
X139697366Y-93835828D01*
X139697366Y-93835828D02*
X139554509Y-93764400D01*
X139554509Y-93764400D02*
X139483080Y-93692971D01*
X139483080Y-93692971D02*
X139411652Y-93550114D01*
X139411652Y-93550114D02*
X139411652Y-93121542D01*
X139411652Y-93121542D02*
X139483080Y-92978685D01*
X139483080Y-92978685D02*
X139554509Y-92907257D01*
X139554509Y-92907257D02*
X139697366Y-92835828D01*
X139697366Y-92835828D02*
X139983080Y-92835828D01*
X139983080Y-92835828D02*
X140125938Y-92907257D01*
X141411652Y-93764400D02*
X141268795Y-93835828D01*
X141268795Y-93835828D02*
X140983081Y-93835828D01*
X140983081Y-93835828D02*
X140840223Y-93764400D01*
X140840223Y-93764400D02*
X140768795Y-93621542D01*
X140768795Y-93621542D02*
X140768795Y-93050114D01*
X140768795Y-93050114D02*
X140840223Y-92907257D01*
X140840223Y-92907257D02*
X140983081Y-92835828D01*
X140983081Y-92835828D02*
X141268795Y-92835828D01*
X141268795Y-92835828D02*
X141411652Y-92907257D01*
X141411652Y-92907257D02*
X141483081Y-93050114D01*
X141483081Y-93050114D02*
X141483081Y-93192971D01*
X141483081Y-93192971D02*
X140768795Y-93335828D01*
X143268794Y-93835828D02*
X143268794Y-92335828D01*
X143983080Y-92835828D02*
X143983080Y-93835828D01*
X143983080Y-92978685D02*
X144054509Y-92907257D01*
X144054509Y-92907257D02*
X144197366Y-92835828D01*
X144197366Y-92835828D02*
X144411652Y-92835828D01*
X144411652Y-92835828D02*
X144554509Y-92907257D01*
X144554509Y-92907257D02*
X144625938Y-93050114D01*
X144625938Y-93050114D02*
X144625938Y-93835828D01*
X145983081Y-92835828D02*
X145983081Y-94050114D01*
X145983081Y-94050114D02*
X145911652Y-94192971D01*
X145911652Y-94192971D02*
X145840223Y-94264400D01*
X145840223Y-94264400D02*
X145697366Y-94335828D01*
X145697366Y-94335828D02*
X145483081Y-94335828D01*
X145483081Y-94335828D02*
X145340223Y-94264400D01*
X145983081Y-93764400D02*
X145840223Y-93835828D01*
X145840223Y-93835828D02*
X145554509Y-93835828D01*
X145554509Y-93835828D02*
X145411652Y-93764400D01*
X145411652Y-93764400D02*
X145340223Y-93692971D01*
X145340223Y-93692971D02*
X145268795Y-93550114D01*
X145268795Y-93550114D02*
X145268795Y-93121542D01*
X145268795Y-93121542D02*
X145340223Y-92978685D01*
X145340223Y-92978685D02*
X145411652Y-92907257D01*
X145411652Y-92907257D02*
X145554509Y-92835828D01*
X145554509Y-92835828D02*
X145840223Y-92835828D01*
X145840223Y-92835828D02*
X145983081Y-92907257D01*
X147268795Y-93764400D02*
X147125938Y-93835828D01*
X147125938Y-93835828D02*
X146840224Y-93835828D01*
X146840224Y-93835828D02*
X146697366Y-93764400D01*
X146697366Y-93764400D02*
X146625938Y-93621542D01*
X146625938Y-93621542D02*
X146625938Y-93050114D01*
X146625938Y-93050114D02*
X146697366Y-92907257D01*
X146697366Y-92907257D02*
X146840224Y-92835828D01*
X146840224Y-92835828D02*
X147125938Y-92835828D01*
X147125938Y-92835828D02*
X147268795Y-92907257D01*
X147268795Y-92907257D02*
X147340224Y-93050114D01*
X147340224Y-93050114D02*
X147340224Y-93192971D01*
X147340224Y-93192971D02*
X146625938Y-93335828D01*
X147983080Y-92835828D02*
X147983080Y-93835828D01*
X147983080Y-92978685D02*
X148054509Y-92907257D01*
X148054509Y-92907257D02*
X148197366Y-92835828D01*
X148197366Y-92835828D02*
X148411652Y-92835828D01*
X148411652Y-92835828D02*
X148554509Y-92907257D01*
X148554509Y-92907257D02*
X148625938Y-93050114D01*
X148625938Y-93050114D02*
X148625938Y-93835828D01*
X149340223Y-93835828D02*
X149340223Y-92835828D01*
X149340223Y-92335828D02*
X149268795Y-92407257D01*
X149268795Y-92407257D02*
X149340223Y-92478685D01*
X149340223Y-92478685D02*
X149411652Y-92407257D01*
X149411652Y-92407257D02*
X149340223Y-92335828D01*
X149340223Y-92335828D02*
X149340223Y-92478685D01*
X150625938Y-93764400D02*
X150483081Y-93835828D01*
X150483081Y-93835828D02*
X150197367Y-93835828D01*
X150197367Y-93835828D02*
X150054509Y-93764400D01*
X150054509Y-93764400D02*
X149983081Y-93621542D01*
X149983081Y-93621542D02*
X149983081Y-93050114D01*
X149983081Y-93050114D02*
X150054509Y-92907257D01*
X150054509Y-92907257D02*
X150197367Y-92835828D01*
X150197367Y-92835828D02*
X150483081Y-92835828D01*
X150483081Y-92835828D02*
X150625938Y-92907257D01*
X150625938Y-92907257D02*
X150697367Y-93050114D01*
X150697367Y-93050114D02*
X150697367Y-93192971D01*
X150697367Y-93192971D02*
X149983081Y-93335828D01*
X151340223Y-93835828D02*
X151340223Y-92835828D01*
X151340223Y-93121542D02*
X151411652Y-92978685D01*
X151411652Y-92978685D02*
X151483081Y-92907257D01*
X151483081Y-92907257D02*
X151625938Y-92835828D01*
X151625938Y-92835828D02*
X151768795Y-92835828D01*
X152268794Y-93835828D02*
X152268794Y-92835828D01*
X152411652Y-92264400D02*
X152197366Y-92478685D01*
X153625938Y-93835828D02*
X153625938Y-93050114D01*
X153625938Y-93050114D02*
X153554509Y-92907257D01*
X153554509Y-92907257D02*
X153411652Y-92835828D01*
X153411652Y-92835828D02*
X153125938Y-92835828D01*
X153125938Y-92835828D02*
X152983080Y-92907257D01*
X153625938Y-93764400D02*
X153483080Y-93835828D01*
X153483080Y-93835828D02*
X153125938Y-93835828D01*
X153125938Y-93835828D02*
X152983080Y-93764400D01*
X152983080Y-93764400D02*
X152911652Y-93621542D01*
X152911652Y-93621542D02*
X152911652Y-93478685D01*
X152911652Y-93478685D02*
X152983080Y-93335828D01*
X152983080Y-93335828D02*
X153125938Y-93264400D01*
X153125938Y-93264400D02*
X153483080Y-93264400D01*
X153483080Y-93264400D02*
X153625938Y-93192971D01*
X155483080Y-93050114D02*
X155983080Y-93050114D01*
X156197366Y-93835828D02*
X155483080Y-93835828D01*
X155483080Y-93835828D02*
X155483080Y-92335828D01*
X155483080Y-92335828D02*
X156197366Y-92335828D01*
X157054509Y-93835828D02*
X156911652Y-93764400D01*
X156911652Y-93764400D02*
X156840223Y-93621542D01*
X156840223Y-93621542D02*
X156840223Y-92335828D01*
X158197366Y-93764400D02*
X158054509Y-93835828D01*
X158054509Y-93835828D02*
X157768795Y-93835828D01*
X157768795Y-93835828D02*
X157625937Y-93764400D01*
X157625937Y-93764400D02*
X157554509Y-93621542D01*
X157554509Y-93621542D02*
X157554509Y-93050114D01*
X157554509Y-93050114D02*
X157625937Y-92907257D01*
X157625937Y-92907257D02*
X157768795Y-92835828D01*
X157768795Y-92835828D02*
X158054509Y-92835828D01*
X158054509Y-92835828D02*
X158197366Y-92907257D01*
X158197366Y-92907257D02*
X158268795Y-93050114D01*
X158268795Y-93050114D02*
X158268795Y-93192971D01*
X158268795Y-93192971D02*
X157554509Y-93335828D01*
X159554509Y-93764400D02*
X159411651Y-93835828D01*
X159411651Y-93835828D02*
X159125937Y-93835828D01*
X159125937Y-93835828D02*
X158983080Y-93764400D01*
X158983080Y-93764400D02*
X158911651Y-93692971D01*
X158911651Y-93692971D02*
X158840223Y-93550114D01*
X158840223Y-93550114D02*
X158840223Y-93121542D01*
X158840223Y-93121542D02*
X158911651Y-92978685D01*
X158911651Y-92978685D02*
X158983080Y-92907257D01*
X158983080Y-92907257D02*
X159125937Y-92835828D01*
X159125937Y-92835828D02*
X159411651Y-92835828D01*
X159411651Y-92835828D02*
X159554509Y-92907257D01*
X159983080Y-92835828D02*
X160554508Y-92835828D01*
X160197365Y-92335828D02*
X160197365Y-93621542D01*
X160197365Y-93621542D02*
X160268794Y-93764400D01*
X160268794Y-93764400D02*
X160411651Y-93835828D01*
X160411651Y-93835828D02*
X160554508Y-93835828D01*
X161054508Y-93835828D02*
X161054508Y-92835828D01*
X161054508Y-93121542D02*
X161125937Y-92978685D01*
X161125937Y-92978685D02*
X161197366Y-92907257D01*
X161197366Y-92907257D02*
X161340223Y-92835828D01*
X161340223Y-92835828D02*
X161483080Y-92835828D01*
X162197365Y-93835828D02*
X162054508Y-93764400D01*
X162054508Y-93764400D02*
X161983079Y-93692971D01*
X161983079Y-93692971D02*
X161911651Y-93550114D01*
X161911651Y-93550114D02*
X161911651Y-93121542D01*
X161911651Y-93121542D02*
X161983079Y-92978685D01*
X161983079Y-92978685D02*
X162054508Y-92907257D01*
X162054508Y-92907257D02*
X162197365Y-92835828D01*
X162197365Y-92835828D02*
X162411651Y-92835828D01*
X162411651Y-92835828D02*
X162554508Y-92907257D01*
X162554508Y-92907257D02*
X162625937Y-92978685D01*
X162625937Y-92978685D02*
X162697365Y-93121542D01*
X162697365Y-93121542D02*
X162697365Y-93550114D01*
X162697365Y-93550114D02*
X162625937Y-93692971D01*
X162625937Y-93692971D02*
X162554508Y-93764400D01*
X162554508Y-93764400D02*
X162411651Y-93835828D01*
X162411651Y-93835828D02*
X162197365Y-93835828D01*
X162483079Y-92264400D02*
X162268794Y-92478685D01*
X163340222Y-92835828D02*
X163340222Y-93835828D01*
X163340222Y-92978685D02*
X163411651Y-92907257D01*
X163411651Y-92907257D02*
X163554508Y-92835828D01*
X163554508Y-92835828D02*
X163768794Y-92835828D01*
X163768794Y-92835828D02*
X163911651Y-92907257D01*
X163911651Y-92907257D02*
X163983080Y-93050114D01*
X163983080Y-93050114D02*
X163983080Y-93835828D01*
X164697365Y-93835828D02*
X164697365Y-92835828D01*
X164697365Y-92335828D02*
X164625937Y-92407257D01*
X164625937Y-92407257D02*
X164697365Y-92478685D01*
X164697365Y-92478685D02*
X164768794Y-92407257D01*
X164768794Y-92407257D02*
X164697365Y-92335828D01*
X164697365Y-92335828D02*
X164697365Y-92478685D01*
X166054509Y-93764400D02*
X165911651Y-93835828D01*
X165911651Y-93835828D02*
X165625937Y-93835828D01*
X165625937Y-93835828D02*
X165483080Y-93764400D01*
X165483080Y-93764400D02*
X165411651Y-93692971D01*
X165411651Y-93692971D02*
X165340223Y-93550114D01*
X165340223Y-93550114D02*
X165340223Y-93121542D01*
X165340223Y-93121542D02*
X165411651Y-92978685D01*
X165411651Y-92978685D02*
X165483080Y-92907257D01*
X165483080Y-92907257D02*
X165625937Y-92835828D01*
X165625937Y-92835828D02*
X165911651Y-92835828D01*
X165911651Y-92835828D02*
X166054509Y-92907257D01*
X167340223Y-93835828D02*
X167340223Y-93050114D01*
X167340223Y-93050114D02*
X167268794Y-92907257D01*
X167268794Y-92907257D02*
X167125937Y-92835828D01*
X167125937Y-92835828D02*
X166840223Y-92835828D01*
X166840223Y-92835828D02*
X166697365Y-92907257D01*
X167340223Y-93764400D02*
X167197365Y-93835828D01*
X167197365Y-93835828D02*
X166840223Y-93835828D01*
X166840223Y-93835828D02*
X166697365Y-93764400D01*
X166697365Y-93764400D02*
X166625937Y-93621542D01*
X166625937Y-93621542D02*
X166625937Y-93478685D01*
X166625937Y-93478685D02*
X166697365Y-93335828D01*
X166697365Y-93335828D02*
X166840223Y-93264400D01*
X166840223Y-93264400D02*
X167197365Y-93264400D01*
X167197365Y-93264400D02*
X167340223Y-93192971D01*
X146840223Y-94893685D02*
X146911651Y-94822257D01*
X146911651Y-94822257D02*
X147054509Y-94750828D01*
X147054509Y-94750828D02*
X147411651Y-94750828D01*
X147411651Y-94750828D02*
X147554509Y-94822257D01*
X147554509Y-94822257D02*
X147625937Y-94893685D01*
X147625937Y-94893685D02*
X147697366Y-95036542D01*
X147697366Y-95036542D02*
X147697366Y-95179400D01*
X147697366Y-95179400D02*
X147625937Y-95393685D01*
X147625937Y-95393685D02*
X146768794Y-96250828D01*
X146768794Y-96250828D02*
X147697366Y-96250828D01*
X148625937Y-94750828D02*
X148768794Y-94750828D01*
X148768794Y-94750828D02*
X148911651Y-94822257D01*
X148911651Y-94822257D02*
X148983080Y-94893685D01*
X148983080Y-94893685D02*
X149054508Y-95036542D01*
X149054508Y-95036542D02*
X149125937Y-95322257D01*
X149125937Y-95322257D02*
X149125937Y-95679400D01*
X149125937Y-95679400D02*
X149054508Y-95965114D01*
X149054508Y-95965114D02*
X148983080Y-96107971D01*
X148983080Y-96107971D02*
X148911651Y-96179400D01*
X148911651Y-96179400D02*
X148768794Y-96250828D01*
X148768794Y-96250828D02*
X148625937Y-96250828D01*
X148625937Y-96250828D02*
X148483080Y-96179400D01*
X148483080Y-96179400D02*
X148411651Y-96107971D01*
X148411651Y-96107971D02*
X148340222Y-95965114D01*
X148340222Y-95965114D02*
X148268794Y-95679400D01*
X148268794Y-95679400D02*
X148268794Y-95322257D01*
X148268794Y-95322257D02*
X148340222Y-95036542D01*
X148340222Y-95036542D02*
X148411651Y-94893685D01*
X148411651Y-94893685D02*
X148483080Y-94822257D01*
X148483080Y-94822257D02*
X148625937Y-94750828D01*
X149697365Y-94893685D02*
X149768793Y-94822257D01*
X149768793Y-94822257D02*
X149911651Y-94750828D01*
X149911651Y-94750828D02*
X150268793Y-94750828D01*
X150268793Y-94750828D02*
X150411651Y-94822257D01*
X150411651Y-94822257D02*
X150483079Y-94893685D01*
X150483079Y-94893685D02*
X150554508Y-95036542D01*
X150554508Y-95036542D02*
X150554508Y-95179400D01*
X150554508Y-95179400D02*
X150483079Y-95393685D01*
X150483079Y-95393685D02*
X149625936Y-96250828D01*
X149625936Y-96250828D02*
X150554508Y-96250828D01*
X151054507Y-94750828D02*
X151983079Y-94750828D01*
X151983079Y-94750828D02*
X151483079Y-95322257D01*
X151483079Y-95322257D02*
X151697364Y-95322257D01*
X151697364Y-95322257D02*
X151840222Y-95393685D01*
X151840222Y-95393685D02*
X151911650Y-95465114D01*
X151911650Y-95465114D02*
X151983079Y-95607971D01*
X151983079Y-95607971D02*
X151983079Y-95965114D01*
X151983079Y-95965114D02*
X151911650Y-96107971D01*
X151911650Y-96107971D02*
X151840222Y-96179400D01*
X151840222Y-96179400D02*
X151697364Y-96250828D01*
X151697364Y-96250828D02*
X151268793Y-96250828D01*
X151268793Y-96250828D02*
X151125936Y-96179400D01*
X151125936Y-96179400D02*
X151054507Y-96107971D01*
G36*
X117565000Y-73400464D02*
G01*
X117377421Y-73400464D01*
X117377421Y-73280296D01*
X117377086Y-73246784D01*
X117376081Y-73215218D01*
X117374407Y-73185596D01*
X117371133Y-73149126D01*
X117366668Y-73116113D01*
X117361012Y-73086557D01*
X117352268Y-73054475D01*
X117339319Y-73023108D01*
X117321436Y-72999747D01*
X117295607Y-72985321D01*
X117271908Y-72982076D01*
X117242617Y-72984813D01*
X117213245Y-72992306D01*
X117206695Y-72994532D01*
X116580212Y-73242194D01*
X116580212Y-74413827D01*
X116932655Y-74550115D01*
X116967585Y-74562823D01*
X117000570Y-74573837D01*
X117031607Y-74583156D01*
X117060699Y-74590781D01*
X117094327Y-74597929D01*
X117124913Y-74602430D01*
X117157602Y-74604337D01*
X117190051Y-74601323D01*
X117220903Y-74592281D01*
X117250158Y-74577211D01*
X117277816Y-74556114D01*
X117299644Y-74533928D01*
X117312208Y-74518607D01*
X117330995Y-74489531D01*
X117346598Y-74456340D01*
X117356787Y-74426824D01*
X117364939Y-74394676D01*
X117371053Y-74359894D01*
X117375128Y-74322479D01*
X117376848Y-74292690D01*
X117377421Y-74261420D01*
X117377421Y-74134658D01*
X117565000Y-74134658D01*
X117565000Y-75285774D01*
X117377421Y-75285774D01*
X117376790Y-75250479D01*
X117374897Y-75216858D01*
X117371741Y-75184911D01*
X117367323Y-75154639D01*
X117359469Y-75116880D01*
X117349371Y-75082098D01*
X117337029Y-75050293D01*
X117322443Y-75021465D01*
X117305614Y-74995614D01*
X117285349Y-74971468D01*
X117260826Y-74947757D01*
X117232043Y-74924482D01*
X117207661Y-74907311D01*
X117180884Y-74890384D01*
X117151711Y-74873702D01*
X117120142Y-74857265D01*
X117086177Y-74841073D01*
X117049817Y-74825125D01*
X117024246Y-74814630D01*
X114532970Y-73818119D01*
X115082515Y-73818119D01*
X116392634Y-74329563D01*
X116392634Y-73319863D01*
X115082515Y-73818119D01*
X114532970Y-73818119D01*
X114423060Y-73774155D01*
X114423060Y-73604162D01*
X117224281Y-72503604D01*
X117251649Y-72491211D01*
X117283952Y-72471181D01*
X117311469Y-72447144D01*
X117334201Y-72419100D01*
X117352147Y-72387049D01*
X117365307Y-72350991D01*
X117372037Y-72321318D01*
X117376075Y-72289390D01*
X117377421Y-72255209D01*
X117377421Y-72137240D01*
X117565000Y-72137240D01*
X117565000Y-73400464D01*
G37*
G36*
X116907742Y-69205720D02*
G01*
X116952438Y-69209674D01*
X116995669Y-69214524D01*
X117037435Y-69220270D01*
X117077735Y-69226912D01*
X117116570Y-69234450D01*
X117153939Y-69242883D01*
X117189842Y-69252213D01*
X117224281Y-69262438D01*
X117257254Y-69273559D01*
X117288761Y-69285576D01*
X117318803Y-69298489D01*
X117347379Y-69312298D01*
X117374490Y-69327002D01*
X117400136Y-69342603D01*
X117447030Y-69376492D01*
X117488063Y-69413964D01*
X117523234Y-69455019D01*
X117552543Y-69499659D01*
X117575990Y-69547881D01*
X117593576Y-69599688D01*
X117605300Y-69655077D01*
X117611161Y-69714050D01*
X117611894Y-69744881D01*
X117610623Y-69783624D01*
X117606811Y-69821085D01*
X117600457Y-69857263D01*
X117591561Y-69892159D01*
X117580123Y-69925773D01*
X117566144Y-69958105D01*
X117549624Y-69989154D01*
X117530561Y-70018921D01*
X117508889Y-70047131D01*
X117484903Y-70073510D01*
X117458605Y-70098056D01*
X117429994Y-70120771D01*
X117399071Y-70141653D01*
X117365835Y-70160704D01*
X117339390Y-70173790D01*
X117311644Y-70185846D01*
X117292424Y-70193311D01*
X117257952Y-70204462D01*
X117224599Y-70213036D01*
X117184819Y-70221790D01*
X117154729Y-70227726D01*
X117121782Y-70233742D01*
X117085978Y-70239839D01*
X117047318Y-70246016D01*
X117005802Y-70252272D01*
X116961429Y-70258609D01*
X116914199Y-70265027D01*
X116864113Y-70271524D01*
X116811171Y-70278101D01*
X116755372Y-70284759D01*
X116696716Y-70291496D01*
X116663185Y-70295386D01*
X116630919Y-70299545D01*
X116599919Y-70303973D01*
X116570183Y-70308670D01*
X116527952Y-70316220D01*
X116488567Y-70324375D01*
X116452028Y-70333135D01*
X116418337Y-70342501D01*
X116387491Y-70352472D01*
X116359492Y-70363049D01*
X116326588Y-70378093D01*
X116312034Y-70386018D01*
X116284705Y-70403100D01*
X116258773Y-70422472D01*
X116234239Y-70444133D01*
X116211100Y-70468084D01*
X116189359Y-70494325D01*
X116169014Y-70522855D01*
X116150066Y-70553676D01*
X116132515Y-70586786D01*
X116116544Y-70621728D01*
X116105963Y-70649076D01*
X116096580Y-70677404D01*
X116088395Y-70706710D01*
X116081407Y-70736995D01*
X116075618Y-70768259D01*
X116071026Y-70800502D01*
X116067632Y-70833724D01*
X116065436Y-70867925D01*
X116064438Y-70903104D01*
X116064371Y-70915048D01*
X116064371Y-71140729D01*
X117252857Y-71140729D01*
X117283220Y-71138851D01*
X117313831Y-71131223D01*
X117339797Y-71114325D01*
X117342983Y-71110687D01*
X117359630Y-71082138D01*
X117368811Y-71054084D01*
X117374697Y-71020910D01*
X117377118Y-70988401D01*
X117377421Y-70970736D01*
X117377421Y-70654930D01*
X117565000Y-70654930D01*
X117565000Y-72117456D01*
X117377421Y-72117456D01*
X117377421Y-71795055D01*
X117376262Y-71763061D01*
X117371979Y-71730293D01*
X117363221Y-71698855D01*
X117348441Y-71671150D01*
X117344448Y-71666095D01*
X117321021Y-71645230D01*
X117292871Y-71632092D01*
X117263498Y-71626876D01*
X117252857Y-71626528D01*
X114792355Y-71626528D01*
X114760481Y-71629047D01*
X114729878Y-71637902D01*
X114702401Y-71655218D01*
X114691238Y-71666828D01*
X114674945Y-71692968D01*
X114664939Y-71722723D01*
X114659639Y-71753794D01*
X114657664Y-71784165D01*
X114657533Y-71795055D01*
X114657533Y-72117456D01*
X114469954Y-72117456D01*
X114469954Y-70805872D01*
X114657533Y-70805872D01*
X114657790Y-70848475D01*
X114658563Y-70887806D01*
X114659851Y-70923865D01*
X114661654Y-70956654D01*
X114663973Y-70986170D01*
X114667865Y-71020437D01*
X114674019Y-71055091D01*
X114683293Y-71084681D01*
X114686842Y-71091636D01*
X114706574Y-71115367D01*
X114732798Y-71131332D01*
X114761557Y-71139003D01*
X114786493Y-71140729D01*
X115876793Y-71140729D01*
X115876793Y-70803674D01*
X115876272Y-70759870D01*
X115874709Y-70717303D01*
X115872105Y-70675973D01*
X115868458Y-70635879D01*
X115863770Y-70597021D01*
X115858040Y-70559400D01*
X115851268Y-70523016D01*
X115843454Y-70487868D01*
X115834598Y-70453956D01*
X115824701Y-70421281D01*
X115813761Y-70389842D01*
X115801780Y-70359640D01*
X115788757Y-70330674D01*
X115774692Y-70302945D01*
X115759585Y-70276453D01*
X115743436Y-70251196D01*
X115725948Y-70227328D01*
X115706823Y-70205000D01*
X115686060Y-70184212D01*
X115663661Y-70164963D01*
X115639624Y-70147255D01*
X115613949Y-70131086D01*
X115586638Y-70116457D01*
X115557690Y-70103368D01*
X115527104Y-70091819D01*
X115494881Y-70081810D01*
X115461021Y-70073341D01*
X115425524Y-70066411D01*
X115388389Y-70061022D01*
X115349618Y-70057172D01*
X115309209Y-70054862D01*
X115267163Y-70054092D01*
X115237708Y-70054381D01*
X115195038Y-70055899D01*
X115154185Y-70058718D01*
X115115148Y-70062837D01*
X115077927Y-70068257D01*
X115042522Y-70074979D01*
X115008933Y-70083001D01*
X114977160Y-70092324D01*
X114947204Y-70102948D01*
X114919063Y-70114872D01*
X114892739Y-70128098D01*
X114860189Y-70147309D01*
X114830319Y-70167940D01*
X114803128Y-70189991D01*
X114778616Y-70213461D01*
X114756783Y-70238351D01*
X114737629Y-70264660D01*
X114721154Y-70292389D01*
X114707358Y-70321538D01*
X114695680Y-70355232D01*
X114687944Y-70385537D01*
X114681083Y-70420156D01*
X114675098Y-70459090D01*
X114669989Y-70502339D01*
X114667070Y-70533569D01*
X114664539Y-70566716D01*
X114662398Y-70601781D01*
X114660647Y-70638764D01*
X114659284Y-70677664D01*
X114658311Y-70718482D01*
X114657727Y-70761218D01*
X114657533Y-70805872D01*
X114469954Y-70805872D01*
X114469954Y-70519375D01*
X114470793Y-70462016D01*
X114473309Y-70406260D01*
X114477502Y-70352107D01*
X114483372Y-70299556D01*
X114490920Y-70248609D01*
X114500145Y-70199264D01*
X114511047Y-70151522D01*
X114523627Y-70105383D01*
X114537883Y-70060847D01*
X114553817Y-70017914D01*
X114571428Y-69976583D01*
X114590717Y-69936856D01*
X114611683Y-69898731D01*
X114634326Y-69862209D01*
X114658646Y-69827290D01*
X114684644Y-69793974D01*
X114711918Y-69762475D01*
X114740251Y-69733008D01*
X114769643Y-69705574D01*
X114800094Y-69680172D01*
X114831604Y-69656802D01*
X114864174Y-69635464D01*
X114897802Y-69616158D01*
X114932489Y-69598885D01*
X114968235Y-69583643D01*
X115005041Y-69570434D01*
X115042905Y-69559257D01*
X115081828Y-69550112D01*
X115121811Y-69543000D01*
X115162852Y-69537919D01*
X115204952Y-69534871D01*
X115248112Y-69533855D01*
X115286743Y-69534770D01*
X115324602Y-69537513D01*
X115361688Y-69542085D01*
X115398001Y-69548487D01*
X115433541Y-69556717D01*
X115468308Y-69566776D01*
X115502303Y-69578665D01*
X115535525Y-69592382D01*
X115567974Y-69607928D01*
X115599650Y-69625303D01*
X115620338Y-69637903D01*
X115650383Y-69658066D01*
X115679242Y-69679814D01*
X115706917Y-69703146D01*
X115733407Y-69728062D01*
X115758712Y-69754563D01*
X115782832Y-69782648D01*
X115805767Y-69812317D01*
X115827517Y-69843570D01*
X115848082Y-69876408D01*
X115867462Y-69910830D01*
X115879724Y-69934658D01*
X115897129Y-69971582D01*
X115913349Y-70010091D01*
X115928384Y-70050185D01*
X115942235Y-70091862D01*
X115950810Y-70120527D01*
X115958859Y-70149897D01*
X115966380Y-70179970D01*
X115973376Y-70210747D01*
X115979844Y-70242229D01*
X115985786Y-70274415D01*
X115991202Y-70307304D01*
X115996090Y-70340898D01*
X116000452Y-70375196D01*
X116004288Y-70410198D01*
X116013770Y-70377498D01*
X116023805Y-70345893D01*
X116034395Y-70315382D01*
X116045538Y-70285967D01*
X116057235Y-70257646D01*
X116069486Y-70230419D01*
X116086682Y-70195821D01*
X116104863Y-70163169D01*
X116124029Y-70132463D01*
X116133981Y-70117840D01*
X116154692Y-70089801D01*
X116176891Y-70063206D01*
X116200579Y-70038052D01*
X116225755Y-70014342D01*
X116252419Y-69992074D01*
X116280572Y-69971248D01*
X116310213Y-69951865D01*
X116341343Y-69933925D01*
X116377235Y-69916419D01*
X116409429Y-69902915D01*
X116446143Y-69889088D01*
X116487378Y-69874939D01*
X116517380Y-69865328D01*
X116549391Y-69855574D01*
X116583412Y-69845676D01*
X116619441Y-69835635D01*
X116657480Y-69825452D01*
X116697528Y-69815125D01*
X116739586Y-69804655D01*
X116783653Y-69794042D01*
X116829729Y-69783285D01*
X116853520Y-69777854D01*
X116886650Y-69770131D01*
X116918630Y-69762352D01*
X116949459Y-69754515D01*
X116979137Y-69746621D01*
X117007665Y-69738670D01*
X117048299Y-69726636D01*
X117086345Y-69714473D01*
X117121801Y-69702181D01*
X117154669Y-69689760D01*
X117184947Y-69677211D01*
X117212637Y-69664533D01*
X117245530Y-69647428D01*
X117274415Y-69629817D01*
X117300562Y-69609205D01*
X117320483Y-69585563D01*
X117330443Y-69555882D01*
X117330526Y-69552906D01*
X117321224Y-69521765D01*
X117300387Y-69496852D01*
X117276946Y-69478168D01*
X117246806Y-69459483D01*
X117235272Y-69453255D01*
X117201032Y-69438579D01*
X117167201Y-69428126D01*
X117138071Y-69421038D01*
X117105720Y-69414593D01*
X117070150Y-69408793D01*
X117031360Y-69403637D01*
X116989350Y-69399125D01*
X116959554Y-69396474D01*
X116928327Y-69394110D01*
X116895669Y-69392032D01*
X116861580Y-69390240D01*
X116861580Y-69202662D01*
X116907742Y-69205720D01*
G37*
G36*
X114469954Y-69123527D02*
G01*
X114469954Y-68068398D01*
X116831538Y-67175935D01*
X114469954Y-66353813D01*
X114469954Y-65274504D01*
X114657533Y-65274504D01*
X114657533Y-65551475D01*
X114658059Y-65581460D01*
X114660199Y-65615173D01*
X114663984Y-65644701D01*
X114670699Y-65674608D01*
X114681528Y-65701882D01*
X114691238Y-65716339D01*
X114714074Y-65735112D01*
X114741575Y-65746641D01*
X114771197Y-65752747D01*
X114800718Y-65755022D01*
X114811406Y-65755174D01*
X117249193Y-65755174D01*
X117280962Y-65751407D01*
X117308673Y-65740104D01*
X117332327Y-65721267D01*
X117343715Y-65707547D01*
X117358462Y-65678650D01*
X117366756Y-65650305D01*
X117372681Y-65616242D01*
X117375808Y-65583487D01*
X117377289Y-65546761D01*
X117377421Y-65530959D01*
X117377421Y-65274504D01*
X117565000Y-65274504D01*
X117565000Y-66715048D01*
X117377421Y-66715048D01*
X117377421Y-66431482D01*
X117376544Y-66400610D01*
X117373178Y-66367294D01*
X117367288Y-66338047D01*
X117357225Y-66309071D01*
X117341517Y-66282739D01*
X117319460Y-66260424D01*
X117291554Y-66244195D01*
X117260069Y-66236982D01*
X117249926Y-66236577D01*
X114648007Y-66213129D01*
X117565000Y-67203778D01*
X117565000Y-67377435D01*
X114789424Y-68421573D01*
X116887226Y-68421573D01*
X116922482Y-68421167D01*
X116955988Y-68419950D01*
X116987741Y-68417922D01*
X117017743Y-68415082D01*
X117055020Y-68410033D01*
X117089184Y-68403541D01*
X117120233Y-68395607D01*
X117148169Y-68386230D01*
X117172990Y-68375411D01*
X117201014Y-68359809D01*
X117226928Y-68342310D01*
X117250731Y-68322915D01*
X117272423Y-68301623D01*
X117292004Y-68278436D01*
X117309475Y-68253352D01*
X117315872Y-68242787D01*
X117330355Y-68212280D01*
X117340704Y-68182850D01*
X117349955Y-68148956D01*
X117358107Y-68110596D01*
X117363499Y-68078897D01*
X117368273Y-68044685D01*
X117372429Y-68007962D01*
X117375967Y-67968728D01*
X117378886Y-67926981D01*
X117565000Y-67926981D01*
X117565000Y-69123527D01*
X117378886Y-69123527D01*
X117376110Y-69087400D01*
X117372727Y-69052842D01*
X117368737Y-69019852D01*
X117364140Y-68988430D01*
X117358937Y-68958577D01*
X117349994Y-68916739D01*
X117339685Y-68878429D01*
X117328012Y-68843649D01*
X117314973Y-68812398D01*
X117300569Y-68784676D01*
X117279240Y-68753203D01*
X117261650Y-68733715D01*
X117234825Y-68711562D01*
X117203077Y-68692362D01*
X117176036Y-68679901D01*
X117146225Y-68669101D01*
X117113645Y-68659962D01*
X117078296Y-68652486D01*
X117040178Y-68646670D01*
X116999290Y-68642517D01*
X116955633Y-68640024D01*
X116924990Y-68639286D01*
X116909207Y-68639193D01*
X114785760Y-68639193D01*
X114754390Y-68641666D01*
X114724682Y-68650360D01*
X114698608Y-68667362D01*
X114688307Y-68678761D01*
X114673431Y-68707567D01*
X114665226Y-68739028D01*
X114660538Y-68772301D01*
X114658284Y-68804476D01*
X114657533Y-68840694D01*
X114657533Y-69123527D01*
X114469954Y-69123527D01*
G37*
G36*
X114469954Y-63953394D02*
G01*
X114469954Y-62498928D01*
X114657533Y-62498928D01*
X114657533Y-62804476D01*
X114658302Y-62835592D01*
X114661256Y-62868634D01*
X114667502Y-62901256D01*
X114678332Y-62930726D01*
X114689040Y-62947358D01*
X114712095Y-62967451D01*
X114741877Y-62980102D01*
X114774431Y-62985125D01*
X114786493Y-62985460D01*
X116533318Y-62985460D01*
X116566505Y-62985280D01*
X116598656Y-62984739D01*
X116629772Y-62983837D01*
X116659851Y-62982575D01*
X116703027Y-62980005D01*
X116743871Y-62976624D01*
X116782385Y-62972432D01*
X116818567Y-62967428D01*
X116852417Y-62961613D01*
X116883937Y-62954986D01*
X116913125Y-62947548D01*
X116939982Y-62939298D01*
X116976518Y-62925667D01*
X117011664Y-62910052D01*
X117045418Y-62892454D01*
X117077781Y-62872872D01*
X117108753Y-62851306D01*
X117138334Y-62827757D01*
X117166524Y-62802225D01*
X117193323Y-62774709D01*
X117218731Y-62745210D01*
X117242748Y-62713727D01*
X117257986Y-62691636D01*
X117279331Y-62656841D01*
X117298575Y-62620049D01*
X117315721Y-62581261D01*
X117330767Y-62540476D01*
X117339631Y-62512178D01*
X117347562Y-62482991D01*
X117354560Y-62452918D01*
X117360625Y-62421957D01*
X117365757Y-62390110D01*
X117369956Y-62357374D01*
X117373222Y-62323752D01*
X117375555Y-62289242D01*
X117376954Y-62253845D01*
X117377421Y-62217561D01*
X117376594Y-62167492D01*
X117374112Y-62118951D01*
X117369976Y-62071939D01*
X117364186Y-62026456D01*
X117356741Y-61982501D01*
X117347642Y-61940074D01*
X117336889Y-61899176D01*
X117324481Y-61859806D01*
X117310419Y-61821964D01*
X117294703Y-61785651D01*
X117277332Y-61750867D01*
X117258307Y-61717611D01*
X117237627Y-61685883D01*
X117215293Y-61655684D01*
X117191305Y-61627013D01*
X117165662Y-61599870D01*
X117138629Y-61574228D01*
X117110467Y-61550239D01*
X117081178Y-61527906D01*
X117050761Y-61507226D01*
X117019217Y-61488201D01*
X116986545Y-61470830D01*
X116952745Y-61455114D01*
X116917817Y-61441051D01*
X116881762Y-61428644D01*
X116844579Y-61417890D01*
X116806268Y-61408791D01*
X116766829Y-61401347D01*
X116726263Y-61395556D01*
X116684569Y-61391421D01*
X116641747Y-61388939D01*
X116597798Y-61388112D01*
X115177770Y-61388112D01*
X115143829Y-61388331D01*
X115111524Y-61388988D01*
X115080854Y-61390082D01*
X115042506Y-61392223D01*
X115007066Y-61395143D01*
X114974534Y-61398841D01*
X114944910Y-61403317D01*
X114911970Y-61410008D01*
X114900066Y-61413025D01*
X114866664Y-61422813D01*
X114836250Y-61434045D01*
X114808824Y-61446719D01*
X114780604Y-61463328D01*
X114756451Y-61481901D01*
X114732821Y-61505486D01*
X114714849Y-61528752D01*
X114699401Y-61554473D01*
X114686478Y-61582648D01*
X114681713Y-61595474D01*
X114673495Y-61625905D01*
X114667946Y-61657876D01*
X114664357Y-61687781D01*
X114661523Y-61721532D01*
X114659445Y-61759130D01*
X114658383Y-61789853D01*
X114657745Y-61822740D01*
X114657533Y-61857791D01*
X114469954Y-61857791D01*
X114469954Y-60659047D01*
X114657533Y-60659047D01*
X114657533Y-60764560D01*
X114658383Y-60798200D01*
X114660933Y-60830153D01*
X114665183Y-60860419D01*
X114673495Y-60898149D01*
X114684830Y-60932879D01*
X114699187Y-60964610D01*
X114716566Y-60993341D01*
X114736968Y-61019072D01*
X114754253Y-61036402D01*
X114779887Y-61057010D01*
X114808429Y-61074870D01*
X114839879Y-61089983D01*
X114874237Y-61102348D01*
X114911503Y-61111965D01*
X114941361Y-61117374D01*
X114972855Y-61121238D01*
X115005984Y-61123557D01*
X115040750Y-61124330D01*
X116540645Y-61124330D01*
X116571742Y-61124611D01*
X116602383Y-61125454D01*
X116632570Y-61126860D01*
X116662301Y-61128829D01*
X116691577Y-61131360D01*
X116748764Y-61138109D01*
X116804131Y-61147108D01*
X116857677Y-61158356D01*
X116909404Y-61171855D01*
X116959309Y-61187603D01*
X117007395Y-61205600D01*
X117053659Y-61225848D01*
X117098104Y-61248345D01*
X117140728Y-61273091D01*
X117181532Y-61300088D01*
X117220515Y-61329334D01*
X117257679Y-61360830D01*
X117293021Y-61394575D01*
X117310010Y-61412292D01*
X117346566Y-61453325D01*
X117380764Y-61496006D01*
X117412603Y-61540336D01*
X117442084Y-61586315D01*
X117469207Y-61633942D01*
X117493971Y-61683218D01*
X117516376Y-61734143D01*
X117536423Y-61786716D01*
X117554112Y-61840938D01*
X117569442Y-61896809D01*
X117576222Y-61925362D01*
X117582413Y-61954328D01*
X117588015Y-61983706D01*
X117593026Y-62013496D01*
X117597448Y-62043698D01*
X117601281Y-62074312D01*
X117604524Y-62105339D01*
X117607177Y-62136777D01*
X117609241Y-62168628D01*
X117610715Y-62200891D01*
X117611599Y-62233566D01*
X117611894Y-62266653D01*
X117611379Y-62323325D01*
X117609833Y-62378486D01*
X117607257Y-62432136D01*
X117603651Y-62484274D01*
X117599014Y-62534901D01*
X117593347Y-62584016D01*
X117586649Y-62631621D01*
X117578921Y-62677714D01*
X117570163Y-62722296D01*
X117560374Y-62765367D01*
X117549555Y-62806926D01*
X117537705Y-62846974D01*
X117524825Y-62885511D01*
X117510915Y-62922537D01*
X117495974Y-62958051D01*
X117480003Y-62992055D01*
X117463062Y-63024647D01*
X117445210Y-63056111D01*
X117426448Y-63086448D01*
X117406776Y-63115657D01*
X117386194Y-63143738D01*
X117364701Y-63170692D01*
X117342299Y-63196517D01*
X117318986Y-63221215D01*
X117294763Y-63244786D01*
X117269630Y-63267229D01*
X117243586Y-63288544D01*
X117216633Y-63308731D01*
X117188769Y-63327790D01*
X117159995Y-63345722D01*
X117130311Y-63362526D01*
X117099717Y-63378203D01*
X117063440Y-63394440D01*
X117025502Y-63409080D01*
X116985903Y-63422123D01*
X116944642Y-63433569D01*
X116901719Y-63443418D01*
X116872181Y-63449097D01*
X116841904Y-63454066D01*
X116810889Y-63458325D01*
X116779136Y-63461874D01*
X116746644Y-63464713D01*
X116713414Y-63466843D01*
X116679445Y-63468262D01*
X116644738Y-63468972D01*
X116627107Y-63469061D01*
X114785027Y-63469061D01*
X114753671Y-63472307D01*
X114723589Y-63483527D01*
X114698516Y-63502761D01*
X114691971Y-63510094D01*
X114675323Y-63536884D01*
X114665100Y-63566926D01*
X114659685Y-63598021D01*
X114657667Y-63628246D01*
X114657533Y-63639054D01*
X114657533Y-63953394D01*
X114469954Y-63953394D01*
G37*
G36*
X114469954Y-60471468D02*
G01*
X114469954Y-59708698D01*
X116822013Y-57905453D01*
X115144797Y-57905453D01*
X115113539Y-57905894D01*
X115083328Y-57907216D01*
X115039976Y-57910853D01*
X114998981Y-57916473D01*
X114960343Y-57924076D01*
X114924063Y-57933663D01*
X114890139Y-57945234D01*
X114858572Y-57958788D01*
X114829362Y-57974325D01*
X114802510Y-57991846D01*
X114778014Y-58011351D01*
X114770373Y-58018293D01*
X114744876Y-58045931D01*
X114722608Y-58077553D01*
X114708026Y-58103884D01*
X114695260Y-58132456D01*
X114684309Y-58163269D01*
X114675175Y-58196323D01*
X114667857Y-58231619D01*
X114662355Y-58269155D01*
X114658670Y-58308933D01*
X114656800Y-58350952D01*
X114469954Y-58350952D01*
X114469954Y-57238670D01*
X114657533Y-57238670D01*
X114657906Y-57271540D01*
X114659027Y-57302555D01*
X114661683Y-57341023D01*
X114665667Y-57376194D01*
X114670979Y-57408068D01*
X114677620Y-57436644D01*
X114687788Y-57467728D01*
X114700031Y-57493660D01*
X114718269Y-57520819D01*
X114741659Y-57546794D01*
X114765086Y-57567534D01*
X114792091Y-57587452D01*
X114822674Y-57606546D01*
X114849716Y-57621230D01*
X114856835Y-57624818D01*
X114885766Y-57638042D01*
X114915407Y-57649502D01*
X114945758Y-57659199D01*
X114976819Y-57667133D01*
X115008590Y-57673304D01*
X115041070Y-57677712D01*
X115074261Y-57680357D01*
X115108161Y-57681238D01*
X117565000Y-57681238D01*
X117565000Y-57910582D01*
X115154323Y-59777575D01*
X116907009Y-59777575D01*
X116950316Y-59776531D01*
X116991485Y-59773401D01*
X117030516Y-59768185D01*
X117067408Y-59760882D01*
X117102163Y-59751493D01*
X117134779Y-59740016D01*
X117165257Y-59726454D01*
X117193598Y-59710805D01*
X117219800Y-59693069D01*
X117243864Y-59673247D01*
X117258719Y-59658872D01*
X117279192Y-59635087D01*
X117297745Y-59608520D01*
X117314380Y-59579171D01*
X117329095Y-59547040D01*
X117341892Y-59512126D01*
X117352769Y-59474431D01*
X117361727Y-59433953D01*
X117368766Y-59390694D01*
X117372392Y-59360309D01*
X117375166Y-59328687D01*
X117377086Y-59295828D01*
X117378154Y-59261734D01*
X117565000Y-59261734D01*
X117565000Y-60471468D01*
X117378154Y-60471468D01*
X117375586Y-60429027D01*
X117370907Y-60388530D01*
X117364115Y-60349978D01*
X117355210Y-60313371D01*
X117344193Y-60278709D01*
X117331064Y-60245991D01*
X117315823Y-60215219D01*
X117298469Y-60186391D01*
X117279004Y-60159509D01*
X117257425Y-60134571D01*
X117241866Y-60119026D01*
X117217315Y-60097289D01*
X117191746Y-60077690D01*
X117165159Y-60060229D01*
X117137555Y-60044906D01*
X117108934Y-60031721D01*
X117079295Y-60020674D01*
X117048638Y-60011766D01*
X117016964Y-60004995D01*
X116984273Y-60000363D01*
X116950564Y-59997868D01*
X116927526Y-59997393D01*
X114868558Y-59997393D01*
X114818000Y-60028168D01*
X114790752Y-60051787D01*
X114766526Y-60073551D01*
X114740494Y-60098148D01*
X114719185Y-60119847D01*
X114699848Y-60142061D01*
X114684644Y-60165188D01*
X114672783Y-60194818D01*
X114665184Y-60224275D01*
X114660180Y-60257028D01*
X114657956Y-60287725D01*
X114657533Y-60309535D01*
X114657533Y-60471468D01*
X114469954Y-60471468D01*
G37*
G36*
X117565000Y-55369480D02*
G01*
X117377421Y-55369480D01*
X117377421Y-55249312D01*
X117377086Y-55215801D01*
X117376081Y-55184234D01*
X117374407Y-55154612D01*
X117371133Y-55118142D01*
X117366668Y-55085129D01*
X117361012Y-55055573D01*
X117352268Y-55023491D01*
X117339319Y-54992124D01*
X117321436Y-54968763D01*
X117295607Y-54954337D01*
X117271908Y-54951092D01*
X117242617Y-54953829D01*
X117213245Y-54961322D01*
X117206695Y-54963548D01*
X116580212Y-55211210D01*
X116580212Y-56382843D01*
X116932655Y-56519131D01*
X116967585Y-56531839D01*
X117000570Y-56542853D01*
X117031607Y-56552172D01*
X117060699Y-56559797D01*
X117094327Y-56566946D01*
X117124913Y-56571446D01*
X117157602Y-56573353D01*
X117190051Y-56570339D01*
X117220903Y-56561297D01*
X117250158Y-56546227D01*
X117277816Y-56525130D01*
X117299644Y-56502944D01*
X117312208Y-56487623D01*
X117330995Y-56458547D01*
X117346598Y-56425356D01*
X117356787Y-56395841D01*
X117364939Y-56363692D01*
X117371053Y-56328910D01*
X117375128Y-56291495D01*
X117376848Y-56261706D01*
X117377421Y-56230436D01*
X117377421Y-56103674D01*
X117565000Y-56103674D01*
X117565000Y-57254790D01*
X117377421Y-57254790D01*
X117376790Y-57219495D01*
X117374897Y-57185874D01*
X117371741Y-57153927D01*
X117367323Y-57123655D01*
X117359469Y-57085896D01*
X117349371Y-57051115D01*
X117337029Y-57019310D01*
X117322443Y-56990481D01*
X117305614Y-56964630D01*
X117285349Y-56940484D01*
X117260826Y-56916773D01*
X117232043Y-56893498D01*
X117207661Y-56876327D01*
X117180884Y-56859400D01*
X117151711Y-56842718D01*
X117120142Y-56826281D01*
X117086177Y-56810089D01*
X117049817Y-56794141D01*
X117024246Y-56783646D01*
X114532970Y-55787135D01*
X115082515Y-55787135D01*
X116392634Y-56298579D01*
X116392634Y-55288879D01*
X115082515Y-55787135D01*
X114532970Y-55787135D01*
X114423060Y-55743171D01*
X114423060Y-55573178D01*
X117224281Y-54472620D01*
X117251649Y-54460227D01*
X117283952Y-54440197D01*
X117311469Y-54416160D01*
X117334201Y-54388116D01*
X117352147Y-54356065D01*
X117365307Y-54320007D01*
X117372037Y-54290334D01*
X117376075Y-54258406D01*
X117377421Y-54224225D01*
X117377421Y-54106256D01*
X117565000Y-54106256D01*
X117565000Y-55369480D01*
G37*
G36*
X114469954Y-54061559D02*
G01*
X114469954Y-52602697D01*
X114657533Y-52602697D01*
X114657533Y-52963932D01*
X114659731Y-52996676D01*
X114667459Y-53027710D01*
X114682571Y-53054987D01*
X114692704Y-53065781D01*
X114719408Y-53082396D01*
X114747572Y-53091258D01*
X114777175Y-53095781D01*
X114811406Y-53097288D01*
X117240401Y-53097288D01*
X117271566Y-53095360D01*
X117301860Y-53088433D01*
X117329153Y-53074620D01*
X117347379Y-53056988D01*
X117360522Y-53030381D01*
X117368942Y-52997107D01*
X117373196Y-52967630D01*
X117375983Y-52933394D01*
X117377157Y-52902579D01*
X117377421Y-52877470D01*
X117377421Y-52448824D01*
X117376585Y-52407716D01*
X117374078Y-52367559D01*
X117369899Y-52328353D01*
X117364049Y-52290096D01*
X117356527Y-52252790D01*
X117347333Y-52216434D01*
X117336468Y-52181029D01*
X117323932Y-52146573D01*
X117309724Y-52113068D01*
X117293844Y-52080513D01*
X117276293Y-52048908D01*
X117257070Y-52018254D01*
X117236176Y-51988550D01*
X117213610Y-51959796D01*
X117189373Y-51931992D01*
X117163464Y-51905139D01*
X117135380Y-51879190D01*
X117104617Y-51854100D01*
X117071175Y-51829868D01*
X117035054Y-51806495D01*
X116996253Y-51783981D01*
X116954774Y-51762326D01*
X116910616Y-51741529D01*
X116863778Y-51721591D01*
X116814262Y-51702511D01*
X116762066Y-51684290D01*
X116707192Y-51666928D01*
X116678750Y-51658569D01*
X116649638Y-51650424D01*
X116619857Y-51642495D01*
X116589406Y-51634779D01*
X116558285Y-51627279D01*
X116526494Y-51619993D01*
X116494034Y-51612922D01*
X116460904Y-51606066D01*
X116427104Y-51599424D01*
X116392634Y-51592997D01*
X116392634Y-51403953D01*
X117565000Y-51477226D01*
X117565000Y-54061559D01*
X117377421Y-54061559D01*
X117377421Y-53788984D01*
X117376383Y-53753908D01*
X117373271Y-53722409D01*
X117366796Y-53689333D01*
X117357334Y-53661409D01*
X117342518Y-53635343D01*
X117334923Y-53626318D01*
X117310239Y-53606764D01*
X117283006Y-53594236D01*
X117250513Y-53585987D01*
X117218476Y-53582320D01*
X117194972Y-53581622D01*
X114790157Y-53581622D01*
X114758924Y-53583866D01*
X114728823Y-53591755D01*
X114701632Y-53607182D01*
X114690505Y-53617526D01*
X114673117Y-53643829D01*
X114662974Y-53674110D01*
X114658338Y-53706282D01*
X114657533Y-53728900D01*
X114657533Y-54061559D01*
X114469954Y-54061559D01*
G37*
D11*
X173598095Y-68857200D02*
X173740952Y-68904819D01*
X173740952Y-68904819D02*
X173979047Y-68904819D01*
X173979047Y-68904819D02*
X174074285Y-68857200D01*
X174074285Y-68857200D02*
X174121904Y-68809580D01*
X174121904Y-68809580D02*
X174169523Y-68714342D01*
X174169523Y-68714342D02*
X174169523Y-68619104D01*
X174169523Y-68619104D02*
X174121904Y-68523866D01*
X174121904Y-68523866D02*
X174074285Y-68476247D01*
X174074285Y-68476247D02*
X173979047Y-68428628D01*
X173979047Y-68428628D02*
X173788571Y-68381009D01*
X173788571Y-68381009D02*
X173693333Y-68333390D01*
X173693333Y-68333390D02*
X173645714Y-68285771D01*
X173645714Y-68285771D02*
X173598095Y-68190533D01*
X173598095Y-68190533D02*
X173598095Y-68095295D01*
X173598095Y-68095295D02*
X173645714Y-68000057D01*
X173645714Y-68000057D02*
X173693333Y-67952438D01*
X173693333Y-67952438D02*
X173788571Y-67904819D01*
X173788571Y-67904819D02*
X174026666Y-67904819D01*
X174026666Y-67904819D02*
X174169523Y-67952438D01*
X174979047Y-68857200D02*
X174883809Y-68904819D01*
X174883809Y-68904819D02*
X174693333Y-68904819D01*
X174693333Y-68904819D02*
X174598095Y-68857200D01*
X174598095Y-68857200D02*
X174550476Y-68761961D01*
X174550476Y-68761961D02*
X174550476Y-68381009D01*
X174550476Y-68381009D02*
X174598095Y-68285771D01*
X174598095Y-68285771D02*
X174693333Y-68238152D01*
X174693333Y-68238152D02*
X174883809Y-68238152D01*
X174883809Y-68238152D02*
X174979047Y-68285771D01*
X174979047Y-68285771D02*
X175026666Y-68381009D01*
X175026666Y-68381009D02*
X175026666Y-68476247D01*
X175026666Y-68476247D02*
X174550476Y-68571485D01*
X175455238Y-68904819D02*
X175455238Y-68238152D01*
X175455238Y-68428628D02*
X175502857Y-68333390D01*
X175502857Y-68333390D02*
X175550476Y-68285771D01*
X175550476Y-68285771D02*
X175645714Y-68238152D01*
X175645714Y-68238152D02*
X175740952Y-68238152D01*
X175979048Y-68238152D02*
X176217143Y-68904819D01*
X176217143Y-68904819D02*
X176455238Y-68238152D01*
X176979048Y-68904819D02*
X176883810Y-68857200D01*
X176883810Y-68857200D02*
X176836191Y-68809580D01*
X176836191Y-68809580D02*
X176788572Y-68714342D01*
X176788572Y-68714342D02*
X176788572Y-68428628D01*
X176788572Y-68428628D02*
X176836191Y-68333390D01*
X176836191Y-68333390D02*
X176883810Y-68285771D01*
X176883810Y-68285771D02*
X176979048Y-68238152D01*
X176979048Y-68238152D02*
X177121905Y-68238152D01*
X177121905Y-68238152D02*
X177217143Y-68285771D01*
X177217143Y-68285771D02*
X177264762Y-68333390D01*
X177264762Y-68333390D02*
X177312381Y-68428628D01*
X177312381Y-68428628D02*
X177312381Y-68714342D01*
X177312381Y-68714342D02*
X177264762Y-68809580D01*
X177264762Y-68809580D02*
X177217143Y-68857200D01*
X177217143Y-68857200D02*
X177121905Y-68904819D01*
X177121905Y-68904819D02*
X176979048Y-68904819D01*
X177693334Y-68857200D02*
X177788572Y-68904819D01*
X177788572Y-68904819D02*
X177979048Y-68904819D01*
X177979048Y-68904819D02*
X178074286Y-68857200D01*
X178074286Y-68857200D02*
X178121905Y-68761961D01*
X178121905Y-68761961D02*
X178121905Y-68714342D01*
X178121905Y-68714342D02*
X178074286Y-68619104D01*
X178074286Y-68619104D02*
X177979048Y-68571485D01*
X177979048Y-68571485D02*
X177836191Y-68571485D01*
X177836191Y-68571485D02*
X177740953Y-68523866D01*
X177740953Y-68523866D02*
X177693334Y-68428628D01*
X177693334Y-68428628D02*
X177693334Y-68381009D01*
X177693334Y-68381009D02*
X177740953Y-68285771D01*
X177740953Y-68285771D02*
X177836191Y-68238152D01*
X177836191Y-68238152D02*
X177979048Y-68238152D01*
X177979048Y-68238152D02*
X178074286Y-68285771D01*
X180932381Y-59281009D02*
X181265714Y-59281009D01*
X181408571Y-59804819D02*
X180932381Y-59804819D01*
X180932381Y-59804819D02*
X180932381Y-58804819D01*
X180932381Y-58804819D02*
X181408571Y-58804819D01*
X181837143Y-59138152D02*
X181837143Y-59804819D01*
X181837143Y-59233390D02*
X181884762Y-59185771D01*
X181884762Y-59185771D02*
X181980000Y-59138152D01*
X181980000Y-59138152D02*
X182122857Y-59138152D01*
X182122857Y-59138152D02*
X182218095Y-59185771D01*
X182218095Y-59185771D02*
X182265714Y-59281009D01*
X182265714Y-59281009D02*
X182265714Y-59804819D01*
X183122857Y-59757200D02*
X183027619Y-59804819D01*
X183027619Y-59804819D02*
X182837143Y-59804819D01*
X182837143Y-59804819D02*
X182741905Y-59757200D01*
X182741905Y-59757200D02*
X182694286Y-59661961D01*
X182694286Y-59661961D02*
X182694286Y-59281009D01*
X182694286Y-59281009D02*
X182741905Y-59185771D01*
X182741905Y-59185771D02*
X182837143Y-59138152D01*
X182837143Y-59138152D02*
X183027619Y-59138152D01*
X183027619Y-59138152D02*
X183122857Y-59185771D01*
X183122857Y-59185771D02*
X183170476Y-59281009D01*
X183170476Y-59281009D02*
X183170476Y-59376247D01*
X183170476Y-59376247D02*
X182694286Y-59471485D01*
X183599048Y-59804819D02*
X183599048Y-59138152D01*
X183599048Y-59328628D02*
X183646667Y-59233390D01*
X183646667Y-59233390D02*
X183694286Y-59185771D01*
X183694286Y-59185771D02*
X183789524Y-59138152D01*
X183789524Y-59138152D02*
X183884762Y-59138152D01*
X184646667Y-59138152D02*
X184646667Y-59947676D01*
X184646667Y-59947676D02*
X184599048Y-60042914D01*
X184599048Y-60042914D02*
X184551429Y-60090533D01*
X184551429Y-60090533D02*
X184456191Y-60138152D01*
X184456191Y-60138152D02*
X184313334Y-60138152D01*
X184313334Y-60138152D02*
X184218096Y-60090533D01*
X184646667Y-59757200D02*
X184551429Y-59804819D01*
X184551429Y-59804819D02*
X184360953Y-59804819D01*
X184360953Y-59804819D02*
X184265715Y-59757200D01*
X184265715Y-59757200D02*
X184218096Y-59709580D01*
X184218096Y-59709580D02*
X184170477Y-59614342D01*
X184170477Y-59614342D02*
X184170477Y-59328628D01*
X184170477Y-59328628D02*
X184218096Y-59233390D01*
X184218096Y-59233390D02*
X184265715Y-59185771D01*
X184265715Y-59185771D02*
X184360953Y-59138152D01*
X184360953Y-59138152D02*
X184551429Y-59138152D01*
X184551429Y-59138152D02*
X184646667Y-59185771D01*
X185122858Y-59804819D02*
X185122858Y-59138152D01*
X185218096Y-58757200D02*
X185075239Y-58900057D01*
X186027619Y-59804819D02*
X186027619Y-59281009D01*
X186027619Y-59281009D02*
X185980000Y-59185771D01*
X185980000Y-59185771D02*
X185884762Y-59138152D01*
X185884762Y-59138152D02*
X185694286Y-59138152D01*
X185694286Y-59138152D02*
X185599048Y-59185771D01*
X186027619Y-59757200D02*
X185932381Y-59804819D01*
X185932381Y-59804819D02*
X185694286Y-59804819D01*
X185694286Y-59804819D02*
X185599048Y-59757200D01*
X185599048Y-59757200D02*
X185551429Y-59661961D01*
X185551429Y-59661961D02*
X185551429Y-59566723D01*
X185551429Y-59566723D02*
X185599048Y-59471485D01*
X185599048Y-59471485D02*
X185694286Y-59423866D01*
X185694286Y-59423866D02*
X185932381Y-59423866D01*
X185932381Y-59423866D02*
X186027619Y-59376247D01*
X138197381Y-31901009D02*
X138530714Y-31901009D01*
X138673571Y-32424819D02*
X138197381Y-32424819D01*
X138197381Y-32424819D02*
X138197381Y-31424819D01*
X138197381Y-31424819D02*
X138673571Y-31424819D01*
X139054524Y-32377200D02*
X139197381Y-32424819D01*
X139197381Y-32424819D02*
X139435476Y-32424819D01*
X139435476Y-32424819D02*
X139530714Y-32377200D01*
X139530714Y-32377200D02*
X139578333Y-32329580D01*
X139578333Y-32329580D02*
X139625952Y-32234342D01*
X139625952Y-32234342D02*
X139625952Y-32139104D01*
X139625952Y-32139104D02*
X139578333Y-32043866D01*
X139578333Y-32043866D02*
X139530714Y-31996247D01*
X139530714Y-31996247D02*
X139435476Y-31948628D01*
X139435476Y-31948628D02*
X139245000Y-31901009D01*
X139245000Y-31901009D02*
X139149762Y-31853390D01*
X139149762Y-31853390D02*
X139102143Y-31805771D01*
X139102143Y-31805771D02*
X139054524Y-31710533D01*
X139054524Y-31710533D02*
X139054524Y-31615295D01*
X139054524Y-31615295D02*
X139102143Y-31520057D01*
X139102143Y-31520057D02*
X139149762Y-31472438D01*
X139149762Y-31472438D02*
X139245000Y-31424819D01*
X139245000Y-31424819D02*
X139483095Y-31424819D01*
X139483095Y-31424819D02*
X139625952Y-31472438D01*
X140054524Y-32424819D02*
X140054524Y-31424819D01*
X140054524Y-31424819D02*
X140435476Y-31424819D01*
X140435476Y-31424819D02*
X140530714Y-31472438D01*
X140530714Y-31472438D02*
X140578333Y-31520057D01*
X140578333Y-31520057D02*
X140625952Y-31615295D01*
X140625952Y-31615295D02*
X140625952Y-31758152D01*
X140625952Y-31758152D02*
X140578333Y-31853390D01*
X140578333Y-31853390D02*
X140530714Y-31901009D01*
X140530714Y-31901009D02*
X140435476Y-31948628D01*
X140435476Y-31948628D02*
X140054524Y-31948628D01*
X140959286Y-31424819D02*
X141578333Y-31424819D01*
X141578333Y-31424819D02*
X141245000Y-31805771D01*
X141245000Y-31805771D02*
X141387857Y-31805771D01*
X141387857Y-31805771D02*
X141483095Y-31853390D01*
X141483095Y-31853390D02*
X141530714Y-31901009D01*
X141530714Y-31901009D02*
X141578333Y-31996247D01*
X141578333Y-31996247D02*
X141578333Y-32234342D01*
X141578333Y-32234342D02*
X141530714Y-32329580D01*
X141530714Y-32329580D02*
X141483095Y-32377200D01*
X141483095Y-32377200D02*
X141387857Y-32424819D01*
X141387857Y-32424819D02*
X141102143Y-32424819D01*
X141102143Y-32424819D02*
X141006905Y-32377200D01*
X141006905Y-32377200D02*
X140959286Y-32329580D01*
X141959286Y-31520057D02*
X142006905Y-31472438D01*
X142006905Y-31472438D02*
X142102143Y-31424819D01*
X142102143Y-31424819D02*
X142340238Y-31424819D01*
X142340238Y-31424819D02*
X142435476Y-31472438D01*
X142435476Y-31472438D02*
X142483095Y-31520057D01*
X142483095Y-31520057D02*
X142530714Y-31615295D01*
X142530714Y-31615295D02*
X142530714Y-31710533D01*
X142530714Y-31710533D02*
X142483095Y-31853390D01*
X142483095Y-31853390D02*
X141911667Y-32424819D01*
X141911667Y-32424819D02*
X142530714Y-32424819D01*
X143625953Y-31424819D02*
X143864048Y-32424819D01*
X143864048Y-32424819D02*
X144054524Y-31710533D01*
X144054524Y-31710533D02*
X144245000Y-32424819D01*
X144245000Y-32424819D02*
X144483096Y-31424819D01*
X145435476Y-32424819D02*
X145102143Y-31948628D01*
X144864048Y-32424819D02*
X144864048Y-31424819D01*
X144864048Y-31424819D02*
X145245000Y-31424819D01*
X145245000Y-31424819D02*
X145340238Y-31472438D01*
X145340238Y-31472438D02*
X145387857Y-31520057D01*
X145387857Y-31520057D02*
X145435476Y-31615295D01*
X145435476Y-31615295D02*
X145435476Y-31758152D01*
X145435476Y-31758152D02*
X145387857Y-31853390D01*
X145387857Y-31853390D02*
X145340238Y-31901009D01*
X145340238Y-31901009D02*
X145245000Y-31948628D01*
X145245000Y-31948628D02*
X144864048Y-31948628D01*
X146054524Y-31424819D02*
X146245000Y-31424819D01*
X146245000Y-31424819D02*
X146340238Y-31472438D01*
X146340238Y-31472438D02*
X146435476Y-31567676D01*
X146435476Y-31567676D02*
X146483095Y-31758152D01*
X146483095Y-31758152D02*
X146483095Y-32091485D01*
X146483095Y-32091485D02*
X146435476Y-32281961D01*
X146435476Y-32281961D02*
X146340238Y-32377200D01*
X146340238Y-32377200D02*
X146245000Y-32424819D01*
X146245000Y-32424819D02*
X146054524Y-32424819D01*
X146054524Y-32424819D02*
X145959286Y-32377200D01*
X145959286Y-32377200D02*
X145864048Y-32281961D01*
X145864048Y-32281961D02*
X145816429Y-32091485D01*
X145816429Y-32091485D02*
X145816429Y-31758152D01*
X145816429Y-31758152D02*
X145864048Y-31567676D01*
X145864048Y-31567676D02*
X145959286Y-31472438D01*
X145959286Y-31472438D02*
X146054524Y-31424819D01*
X147102143Y-31424819D02*
X147292619Y-31424819D01*
X147292619Y-31424819D02*
X147387857Y-31472438D01*
X147387857Y-31472438D02*
X147483095Y-31567676D01*
X147483095Y-31567676D02*
X147530714Y-31758152D01*
X147530714Y-31758152D02*
X147530714Y-32091485D01*
X147530714Y-32091485D02*
X147483095Y-32281961D01*
X147483095Y-32281961D02*
X147387857Y-32377200D01*
X147387857Y-32377200D02*
X147292619Y-32424819D01*
X147292619Y-32424819D02*
X147102143Y-32424819D01*
X147102143Y-32424819D02*
X147006905Y-32377200D01*
X147006905Y-32377200D02*
X146911667Y-32281961D01*
X146911667Y-32281961D02*
X146864048Y-32091485D01*
X146864048Y-32091485D02*
X146864048Y-31758152D01*
X146864048Y-31758152D02*
X146911667Y-31567676D01*
X146911667Y-31567676D02*
X147006905Y-31472438D01*
X147006905Y-31472438D02*
X147102143Y-31424819D01*
X147959286Y-32424819D02*
X147959286Y-31424819D01*
X147959286Y-31424819D02*
X148292619Y-32139104D01*
X148292619Y-32139104D02*
X148625952Y-31424819D01*
X148625952Y-31424819D02*
X148625952Y-32424819D01*
X149768810Y-31424819D02*
X150387857Y-31424819D01*
X150387857Y-31424819D02*
X150054524Y-31805771D01*
X150054524Y-31805771D02*
X150197381Y-31805771D01*
X150197381Y-31805771D02*
X150292619Y-31853390D01*
X150292619Y-31853390D02*
X150340238Y-31901009D01*
X150340238Y-31901009D02*
X150387857Y-31996247D01*
X150387857Y-31996247D02*
X150387857Y-32234342D01*
X150387857Y-32234342D02*
X150340238Y-32329580D01*
X150340238Y-32329580D02*
X150292619Y-32377200D01*
X150292619Y-32377200D02*
X150197381Y-32424819D01*
X150197381Y-32424819D02*
X149911667Y-32424819D01*
X149911667Y-32424819D02*
X149816429Y-32377200D01*
X149816429Y-32377200D02*
X149768810Y-32329580D01*
X150768810Y-31520057D02*
X150816429Y-31472438D01*
X150816429Y-31472438D02*
X150911667Y-31424819D01*
X150911667Y-31424819D02*
X151149762Y-31424819D01*
X151149762Y-31424819D02*
X151245000Y-31472438D01*
X151245000Y-31472438D02*
X151292619Y-31520057D01*
X151292619Y-31520057D02*
X151340238Y-31615295D01*
X151340238Y-31615295D02*
X151340238Y-31710533D01*
X151340238Y-31710533D02*
X151292619Y-31853390D01*
X151292619Y-31853390D02*
X150721191Y-32424819D01*
X150721191Y-32424819D02*
X151340238Y-32424819D01*
X194328095Y-39448152D02*
X194328095Y-40305295D01*
X194328095Y-40305295D02*
X194280476Y-40400533D01*
X194280476Y-40400533D02*
X194185238Y-40448152D01*
X194185238Y-40448152D02*
X194137619Y-40448152D01*
X194328095Y-39114819D02*
X194280476Y-39162438D01*
X194280476Y-39162438D02*
X194328095Y-39210057D01*
X194328095Y-39210057D02*
X194375714Y-39162438D01*
X194375714Y-39162438D02*
X194328095Y-39114819D01*
X194328095Y-39114819D02*
X194328095Y-39210057D01*
X195232856Y-40114819D02*
X195232856Y-39591009D01*
X195232856Y-39591009D02*
X195185237Y-39495771D01*
X195185237Y-39495771D02*
X195089999Y-39448152D01*
X195089999Y-39448152D02*
X194899523Y-39448152D01*
X194899523Y-39448152D02*
X194804285Y-39495771D01*
X195232856Y-40067200D02*
X195137618Y-40114819D01*
X195137618Y-40114819D02*
X194899523Y-40114819D01*
X194899523Y-40114819D02*
X194804285Y-40067200D01*
X194804285Y-40067200D02*
X194756666Y-39971961D01*
X194756666Y-39971961D02*
X194756666Y-39876723D01*
X194756666Y-39876723D02*
X194804285Y-39781485D01*
X194804285Y-39781485D02*
X194899523Y-39733866D01*
X194899523Y-39733866D02*
X195137618Y-39733866D01*
X195137618Y-39733866D02*
X195232856Y-39686247D01*
X196137618Y-40067200D02*
X196042380Y-40114819D01*
X196042380Y-40114819D02*
X195851904Y-40114819D01*
X195851904Y-40114819D02*
X195756666Y-40067200D01*
X195756666Y-40067200D02*
X195709047Y-40019580D01*
X195709047Y-40019580D02*
X195661428Y-39924342D01*
X195661428Y-39924342D02*
X195661428Y-39638628D01*
X195661428Y-39638628D02*
X195709047Y-39543390D01*
X195709047Y-39543390D02*
X195756666Y-39495771D01*
X195756666Y-39495771D02*
X195851904Y-39448152D01*
X195851904Y-39448152D02*
X196042380Y-39448152D01*
X196042380Y-39448152D02*
X196137618Y-39495771D01*
X196566190Y-40114819D02*
X196566190Y-39114819D01*
X196661428Y-39733866D02*
X196947142Y-40114819D01*
X196947142Y-39448152D02*
X196566190Y-39829104D01*
X197899523Y-40114819D02*
X197328095Y-40114819D01*
X197613809Y-40114819D02*
X197613809Y-39114819D01*
X197613809Y-39114819D02*
X197518571Y-39257676D01*
X197518571Y-39257676D02*
X197423333Y-39352914D01*
X197423333Y-39352914D02*
X197328095Y-39400533D01*
X189076190Y-67904819D02*
X189647618Y-67904819D01*
X189361904Y-68904819D02*
X189361904Y-67904819D01*
X189980952Y-68904819D02*
X189980952Y-68238152D01*
X189980952Y-67904819D02*
X189933333Y-67952438D01*
X189933333Y-67952438D02*
X189980952Y-68000057D01*
X189980952Y-68000057D02*
X190028571Y-67952438D01*
X190028571Y-67952438D02*
X189980952Y-67904819D01*
X189980952Y-67904819D02*
X189980952Y-68000057D01*
X190838094Y-68857200D02*
X190742856Y-68904819D01*
X190742856Y-68904819D02*
X190552380Y-68904819D01*
X190552380Y-68904819D02*
X190457142Y-68857200D01*
X190457142Y-68857200D02*
X190409523Y-68761961D01*
X190409523Y-68761961D02*
X190409523Y-68381009D01*
X190409523Y-68381009D02*
X190457142Y-68285771D01*
X190457142Y-68285771D02*
X190552380Y-68238152D01*
X190552380Y-68238152D02*
X190742856Y-68238152D01*
X190742856Y-68238152D02*
X190838094Y-68285771D01*
X190838094Y-68285771D02*
X190885713Y-68381009D01*
X190885713Y-68381009D02*
X190885713Y-68476247D01*
X190885713Y-68476247D02*
X190409523Y-68571485D01*
X191314285Y-68904819D02*
X191314285Y-68238152D01*
X191314285Y-68428628D02*
X191361904Y-68333390D01*
X191361904Y-68333390D02*
X191409523Y-68285771D01*
X191409523Y-68285771D02*
X191504761Y-68238152D01*
X191504761Y-68238152D02*
X191599999Y-68238152D01*
X191933333Y-68904819D02*
X191933333Y-68238152D01*
X191933333Y-68428628D02*
X191980952Y-68333390D01*
X191980952Y-68333390D02*
X192028571Y-68285771D01*
X192028571Y-68285771D02*
X192123809Y-68238152D01*
X192123809Y-68238152D02*
X192219047Y-68238152D01*
X192980952Y-68904819D02*
X192980952Y-68381009D01*
X192980952Y-68381009D02*
X192933333Y-68285771D01*
X192933333Y-68285771D02*
X192838095Y-68238152D01*
X192838095Y-68238152D02*
X192647619Y-68238152D01*
X192647619Y-68238152D02*
X192552381Y-68285771D01*
X192980952Y-68857200D02*
X192885714Y-68904819D01*
X192885714Y-68904819D02*
X192647619Y-68904819D01*
X192647619Y-68904819D02*
X192552381Y-68857200D01*
X192552381Y-68857200D02*
X192504762Y-68761961D01*
X192504762Y-68761961D02*
X192504762Y-68666723D01*
X192504762Y-68666723D02*
X192552381Y-68571485D01*
X192552381Y-68571485D02*
X192647619Y-68523866D01*
X192647619Y-68523866D02*
X192885714Y-68523866D01*
X192885714Y-68523866D02*
X192980952Y-68476247D01*
D12*
%TO.C,C1*%
X160835354Y-48250000D02*
X161835354Y-48250000D01*
X161335354Y-47750000D02*
X161335354Y-48750000D01*
X166315000Y-46045000D02*
X166315000Y-56205000D01*
X166355000Y-46045000D02*
X166355000Y-56205000D01*
X166395000Y-46045000D02*
X166395000Y-56205000D01*
X166435000Y-46046000D02*
X166435000Y-56204000D01*
X166475000Y-46047000D02*
X166475000Y-56203000D01*
X166515000Y-46048000D02*
X166515000Y-56202000D01*
X166555000Y-46050000D02*
X166555000Y-50085000D01*
X166555000Y-52165000D02*
X166555000Y-56200000D01*
X166595000Y-46052000D02*
X166595000Y-50085000D01*
X166595000Y-52165000D02*
X166595000Y-56198000D01*
X166635000Y-46055000D02*
X166635000Y-50085000D01*
X166635000Y-52165000D02*
X166635000Y-56195000D01*
X166675000Y-46057000D02*
X166675000Y-50085000D01*
X166675000Y-52165000D02*
X166675000Y-56193000D01*
X166715000Y-46060000D02*
X166715000Y-50085000D01*
X166715000Y-52165000D02*
X166715000Y-56190000D01*
X166755000Y-46063000D02*
X166755000Y-50085000D01*
X166755000Y-52165000D02*
X166755000Y-56187000D01*
X166795000Y-46067000D02*
X166795000Y-50085000D01*
X166795000Y-52165000D02*
X166795000Y-56183000D01*
X166835000Y-46071000D02*
X166835000Y-50085000D01*
X166835000Y-52165000D02*
X166835000Y-56179000D01*
X166875000Y-46075000D02*
X166875000Y-50085000D01*
X166875000Y-52165000D02*
X166875000Y-56175000D01*
X166915000Y-46080000D02*
X166915000Y-50085000D01*
X166915000Y-52165000D02*
X166915000Y-56170000D01*
X166955000Y-46085000D02*
X166955000Y-50085000D01*
X166955000Y-52165000D02*
X166955000Y-56165000D01*
X166995000Y-46090000D02*
X166995000Y-50085000D01*
X166995000Y-52165000D02*
X166995000Y-56160000D01*
X167036000Y-46095000D02*
X167036000Y-50085000D01*
X167036000Y-52165000D02*
X167036000Y-56155000D01*
X167076000Y-46101000D02*
X167076000Y-50085000D01*
X167076000Y-52165000D02*
X167076000Y-56149000D01*
X167116000Y-46107000D02*
X167116000Y-50085000D01*
X167116000Y-52165000D02*
X167116000Y-56143000D01*
X167156000Y-46114000D02*
X167156000Y-50085000D01*
X167156000Y-52165000D02*
X167156000Y-56136000D01*
X167196000Y-46121000D02*
X167196000Y-50085000D01*
X167196000Y-52165000D02*
X167196000Y-56129000D01*
X167236000Y-46128000D02*
X167236000Y-50085000D01*
X167236000Y-52165000D02*
X167236000Y-56122000D01*
X167276000Y-46135000D02*
X167276000Y-50085000D01*
X167276000Y-52165000D02*
X167276000Y-56115000D01*
X167316000Y-46143000D02*
X167316000Y-50085000D01*
X167316000Y-52165000D02*
X167316000Y-56107000D01*
X167356000Y-46151000D02*
X167356000Y-50085000D01*
X167356000Y-52165000D02*
X167356000Y-56099000D01*
X167396000Y-46160000D02*
X167396000Y-50085000D01*
X167396000Y-52165000D02*
X167396000Y-56090000D01*
X167436000Y-46169000D02*
X167436000Y-50085000D01*
X167436000Y-52165000D02*
X167436000Y-56081000D01*
X167476000Y-46178000D02*
X167476000Y-50085000D01*
X167476000Y-52165000D02*
X167476000Y-56072000D01*
X167516000Y-46187000D02*
X167516000Y-50085000D01*
X167516000Y-52165000D02*
X167516000Y-56063000D01*
X167556000Y-46197000D02*
X167556000Y-50085000D01*
X167556000Y-52165000D02*
X167556000Y-56053000D01*
X167596000Y-46207000D02*
X167596000Y-50085000D01*
X167596000Y-52165000D02*
X167596000Y-56043000D01*
X167636000Y-46218000D02*
X167636000Y-50085000D01*
X167636000Y-52165000D02*
X167636000Y-56032000D01*
X167676000Y-46228000D02*
X167676000Y-50085000D01*
X167676000Y-52165000D02*
X167676000Y-56022000D01*
X167716000Y-46240000D02*
X167716000Y-50085000D01*
X167716000Y-52165000D02*
X167716000Y-56010000D01*
X167756000Y-46251000D02*
X167756000Y-50085000D01*
X167756000Y-52165000D02*
X167756000Y-55999000D01*
X167796000Y-46263000D02*
X167796000Y-50085000D01*
X167796000Y-52165000D02*
X167796000Y-55987000D01*
X167836000Y-46275000D02*
X167836000Y-50085000D01*
X167836000Y-52165000D02*
X167836000Y-55975000D01*
X167876000Y-46288000D02*
X167876000Y-50085000D01*
X167876000Y-52165000D02*
X167876000Y-55962000D01*
X167916000Y-46301000D02*
X167916000Y-50085000D01*
X167916000Y-52165000D02*
X167916000Y-55949000D01*
X167956000Y-46314000D02*
X167956000Y-50085000D01*
X167956000Y-52165000D02*
X167956000Y-55936000D01*
X167996000Y-46328000D02*
X167996000Y-50085000D01*
X167996000Y-52165000D02*
X167996000Y-55922000D01*
X168036000Y-46342000D02*
X168036000Y-50085000D01*
X168036000Y-52165000D02*
X168036000Y-55908000D01*
X168076000Y-46357000D02*
X168076000Y-50085000D01*
X168076000Y-52165000D02*
X168076000Y-55893000D01*
X168116000Y-46371000D02*
X168116000Y-50085000D01*
X168116000Y-52165000D02*
X168116000Y-55879000D01*
X168156000Y-46387000D02*
X168156000Y-50085000D01*
X168156000Y-52165000D02*
X168156000Y-55863000D01*
X168196000Y-46402000D02*
X168196000Y-50085000D01*
X168196000Y-52165000D02*
X168196000Y-55848000D01*
X168236000Y-46418000D02*
X168236000Y-50085000D01*
X168236000Y-52165000D02*
X168236000Y-55832000D01*
X168276000Y-46435000D02*
X168276000Y-50085000D01*
X168276000Y-52165000D02*
X168276000Y-55815000D01*
X168316000Y-46451000D02*
X168316000Y-50085000D01*
X168316000Y-52165000D02*
X168316000Y-55799000D01*
X168356000Y-46468000D02*
X168356000Y-50085000D01*
X168356000Y-52165000D02*
X168356000Y-55782000D01*
X168396000Y-46486000D02*
X168396000Y-50085000D01*
X168396000Y-52165000D02*
X168396000Y-55764000D01*
X168436000Y-46504000D02*
X168436000Y-50085000D01*
X168436000Y-52165000D02*
X168436000Y-55746000D01*
X168476000Y-46522000D02*
X168476000Y-50085000D01*
X168476000Y-52165000D02*
X168476000Y-55728000D01*
X168516000Y-46541000D02*
X168516000Y-50085000D01*
X168516000Y-52165000D02*
X168516000Y-55709000D01*
X168556000Y-46561000D02*
X168556000Y-50085000D01*
X168556000Y-52165000D02*
X168556000Y-55689000D01*
X168596000Y-46580000D02*
X168596000Y-50085000D01*
X168596000Y-52165000D02*
X168596000Y-55670000D01*
X168636000Y-46600000D02*
X168636000Y-55650000D01*
X168676000Y-46621000D02*
X168676000Y-55629000D01*
X168716000Y-46642000D02*
X168716000Y-55608000D01*
X168756000Y-46663000D02*
X168756000Y-55587000D01*
X168796000Y-46685000D02*
X168796000Y-55565000D01*
X168836000Y-46708000D02*
X168836000Y-55542000D01*
X168876000Y-46730000D02*
X168876000Y-55520000D01*
X168916000Y-46754000D02*
X168916000Y-55496000D01*
X168956000Y-46778000D02*
X168956000Y-55472000D01*
X168996000Y-46802000D02*
X168996000Y-55448000D01*
X169036000Y-46827000D02*
X169036000Y-55423000D01*
X169076000Y-46852000D02*
X169076000Y-55398000D01*
X169116000Y-46878000D02*
X169116000Y-55372000D01*
X169156000Y-46904000D02*
X169156000Y-55346000D01*
X169196000Y-46931000D02*
X169196000Y-55319000D01*
X169236000Y-46959000D02*
X169236000Y-55291000D01*
X169276000Y-46987000D02*
X169276000Y-55263000D01*
X169316000Y-47015000D02*
X169316000Y-55235000D01*
X169356000Y-47045000D02*
X169356000Y-55205000D01*
X169396000Y-47075000D02*
X169396000Y-55175000D01*
X169436000Y-47105000D02*
X169436000Y-55145000D01*
X169476000Y-47136000D02*
X169476000Y-55114000D01*
X169516000Y-47168000D02*
X169516000Y-55082000D01*
X169556000Y-47200000D02*
X169556000Y-55050000D01*
X169596000Y-47233000D02*
X169596000Y-55017000D01*
X169636000Y-47267000D02*
X169636000Y-54983000D01*
X169676000Y-47301000D02*
X169676000Y-54949000D01*
X169716000Y-47336000D02*
X169716000Y-54914000D01*
X169756000Y-47372000D02*
X169756000Y-54878000D01*
X169796000Y-47409000D02*
X169796000Y-54841000D01*
X169836000Y-47446000D02*
X169836000Y-54804000D01*
X169876000Y-47485000D02*
X169876000Y-54765000D01*
X169916000Y-47524000D02*
X169916000Y-54726000D01*
X169956000Y-47564000D02*
X169956000Y-54686000D01*
X169996000Y-47605000D02*
X169996000Y-54645000D01*
X170036000Y-47647000D02*
X170036000Y-54603000D01*
X170076000Y-47689000D02*
X170076000Y-54561000D01*
X170116000Y-47733000D02*
X170116000Y-54517000D01*
X170156000Y-47778000D02*
X170156000Y-54472000D01*
X170196000Y-47824000D02*
X170196000Y-54426000D01*
X170236000Y-47871000D02*
X170236000Y-54379000D01*
X170276000Y-47919000D02*
X170276000Y-54331000D01*
X170316000Y-47969000D02*
X170316000Y-54281000D01*
X170356000Y-48019000D02*
X170356000Y-54231000D01*
X170396000Y-48071000D02*
X170396000Y-54179000D01*
X170436000Y-48125000D02*
X170436000Y-54125000D01*
X170476000Y-48180000D02*
X170476000Y-54070000D01*
X170516000Y-48236000D02*
X170516000Y-54014000D01*
X170556000Y-48295000D02*
X170556000Y-53955000D01*
X170596000Y-48355000D02*
X170596000Y-53895000D01*
X170636000Y-48416000D02*
X170636000Y-53834000D01*
X170676000Y-48480000D02*
X170676000Y-53770000D01*
X170716000Y-48546000D02*
X170716000Y-53704000D01*
X170756000Y-48615000D02*
X170756000Y-53635000D01*
X170796000Y-48686000D02*
X170796000Y-53564000D01*
X170836000Y-48760000D02*
X170836000Y-53490000D01*
X170876000Y-48836000D02*
X170876000Y-53414000D01*
X170916000Y-48916000D02*
X170916000Y-53334000D01*
X170956000Y-49000000D02*
X170956000Y-53250000D01*
X170996000Y-49088000D02*
X170996000Y-53162000D01*
X171036000Y-49181000D02*
X171036000Y-53069000D01*
X171076000Y-49279000D02*
X171076000Y-52971000D01*
X171116000Y-49383000D02*
X171116000Y-52867000D01*
X171156000Y-49495000D02*
X171156000Y-52755000D01*
X171196000Y-49615000D02*
X171196000Y-52635000D01*
X171236000Y-49747000D02*
X171236000Y-52503000D01*
X171276000Y-49895000D02*
X171276000Y-52355000D01*
X171316000Y-50063000D02*
X171316000Y-52187000D01*
X171356000Y-50263000D02*
X171356000Y-51987000D01*
X171396000Y-50526000D02*
X171396000Y-51724000D01*
X171435000Y-51125000D02*
G75*
G03*
X171435000Y-51125000I-5120000J0D01*
G01*
%TO.C,Servos*%
X182270000Y-67000000D02*
X182270000Y-89920000D01*
X179610000Y-89920000D02*
X182270000Y-89920000D01*
X179610000Y-67000000D02*
X182270000Y-67000000D01*
X179610000Y-67000000D02*
X179610000Y-89920000D01*
X179610000Y-65730000D02*
X179610000Y-64400000D01*
X179610000Y-64400000D02*
X180940000Y-64400000D01*
%TO.C,Energ\u00EDa*%
X184810000Y-67000000D02*
X184810000Y-89920000D01*
X182150000Y-89920000D02*
X184810000Y-89920000D01*
X182150000Y-67000000D02*
X184810000Y-67000000D01*
X182150000Y-67000000D02*
X182150000Y-89920000D01*
X182150000Y-65730000D02*
X182150000Y-64400000D01*
X182150000Y-64400000D02*
X183480000Y-64400000D01*
D13*
%TO.C,ESP32 WROOM 32*%
X131160000Y-33855000D02*
X142229000Y-33855000D01*
X131160000Y-33855000D02*
X159670000Y-33855000D01*
X131160000Y-84805000D02*
X131160000Y-33855000D01*
X131160000Y-84805000D02*
X131160000Y-33855000D01*
X131160000Y-84805000D02*
X136530000Y-84805000D01*
X136530000Y-84805000D02*
X154220000Y-84805000D01*
X142229000Y-33855000D02*
X148940000Y-33855000D01*
X148940000Y-33855000D02*
X159670000Y-33855000D01*
X154220000Y-84805000D02*
X159670000Y-84805000D01*
X159670000Y-33855000D02*
X159670000Y-84805000D01*
X159670000Y-33855000D02*
X159670000Y-84805000D01*
X159670000Y-84805000D02*
X131160000Y-84805000D01*
D14*
X130690000Y-43815000D02*
G75*
G03*
X130690000Y-43815000I-100000J0D01*
G01*
D12*
%TO.C,jack1*%
X206520000Y-50010000D02*
X191820000Y-50010000D01*
X206520000Y-40810000D02*
X206520000Y-50010000D01*
X197720000Y-40810000D02*
X206520000Y-40810000D01*
X192670000Y-50210000D02*
X191620000Y-50210000D01*
X191820000Y-50010000D02*
X191820000Y-47410000D01*
X191820000Y-43510000D02*
X191820000Y-40810000D01*
X191820000Y-40810000D02*
X193720000Y-40810000D01*
X191620000Y-49160000D02*
X191620000Y-50210000D01*
%TO.C,REF\u002A\u002A*%
D15*
X127737190Y-59276457D02*
X127835847Y-59276941D01*
X127911430Y-59278014D01*
X127967433Y-59279892D01*
X128007347Y-59282794D01*
X128034666Y-59286937D01*
X128052881Y-59292538D01*
X128065486Y-59299815D01*
X128071696Y-59304976D01*
X128098980Y-59346832D01*
X128097867Y-59394495D01*
X128074602Y-59436247D01*
X128045871Y-59471729D01*
X127183873Y-59471729D01*
X127155142Y-59436247D01*
X127134242Y-59402002D01*
X127126410Y-59374037D01*
X127135477Y-59343396D01*
X127155142Y-59311826D01*
X127183873Y-59276344D01*
X127611966Y-59276344D01*
X127737190Y-59276457D01*
G36*
X127737190Y-59276457D02*
G01*
X127835847Y-59276941D01*
X127911430Y-59278014D01*
X127967433Y-59279892D01*
X128007347Y-59282794D01*
X128034666Y-59286937D01*
X128052881Y-59292538D01*
X128065486Y-59299815D01*
X128071696Y-59304976D01*
X128098980Y-59346832D01*
X128097867Y-59394495D01*
X128074602Y-59436247D01*
X128045871Y-59471729D01*
X127183873Y-59471729D01*
X127155142Y-59436247D01*
X127134242Y-59402002D01*
X127126410Y-59374037D01*
X127135477Y-59343396D01*
X127155142Y-59311826D01*
X127183873Y-59276344D01*
X127611966Y-59276344D01*
X127737190Y-59276457D01*
G37*
X127739816Y-68782650D02*
X127838185Y-68783081D01*
X127913465Y-68784077D01*
X127969138Y-68785869D01*
X128008690Y-68788683D01*
X128035605Y-68792750D01*
X128053367Y-68798296D01*
X128065461Y-68805551D01*
X128073274Y-68812617D01*
X128099476Y-68856556D01*
X128097125Y-68903374D01*
X128068548Y-68945263D01*
X128057391Y-68954888D01*
X128044447Y-68962409D01*
X128026136Y-68968088D01*
X127998882Y-68972181D01*
X127959104Y-68974949D01*
X127903226Y-68976650D01*
X127827668Y-68977543D01*
X127728852Y-68977887D01*
X127616978Y-68977942D01*
X127200192Y-68977942D01*
X127163301Y-68941051D01*
X127132264Y-68895579D01*
X127131145Y-68851470D01*
X127156470Y-68812617D01*
X127166552Y-68803855D01*
X127179559Y-68796982D01*
X127198975Y-68791769D01*
X127228284Y-68787988D01*
X127270971Y-68785410D01*
X127330519Y-68783807D01*
X127410414Y-68782949D01*
X127514140Y-68782610D01*
X127614872Y-68782557D01*
X127739816Y-68782650D01*
G36*
X127739816Y-68782650D02*
G01*
X127838185Y-68783081D01*
X127913465Y-68784077D01*
X127969138Y-68785869D01*
X128008690Y-68788683D01*
X128035605Y-68792750D01*
X128053367Y-68798296D01*
X128065461Y-68805551D01*
X128073274Y-68812617D01*
X128099476Y-68856556D01*
X128097125Y-68903374D01*
X128068548Y-68945263D01*
X128057391Y-68954888D01*
X128044447Y-68962409D01*
X128026136Y-68968088D01*
X127998882Y-68972181D01*
X127959104Y-68974949D01*
X127903226Y-68976650D01*
X127827668Y-68977543D01*
X127728852Y-68977887D01*
X127616978Y-68977942D01*
X127200192Y-68977942D01*
X127163301Y-68941051D01*
X127132264Y-68895579D01*
X127131145Y-68851470D01*
X127156470Y-68812617D01*
X127166552Y-68803855D01*
X127179559Y-68796982D01*
X127198975Y-68791769D01*
X127228284Y-68787988D01*
X127270971Y-68785410D01*
X127330519Y-68783807D01*
X127410414Y-68782949D01*
X127514140Y-68782610D01*
X127614872Y-68782557D01*
X127739816Y-68782650D01*
G37*
X119415265Y-68129283D02*
X119537158Y-68151423D01*
X119686107Y-68211936D01*
X119815309Y-68299686D01*
X119922223Y-68410212D01*
X120004306Y-68539054D01*
X120059016Y-68681753D01*
X120083810Y-68833849D01*
X120076147Y-68990881D01*
X120059772Y-69068286D01*
X120001089Y-69219141D01*
X119911543Y-69353125D01*
X119793893Y-69467006D01*
X119650902Y-69557552D01*
X119635286Y-69565212D01*
X119576686Y-69591694D01*
X119527334Y-69608322D01*
X119475270Y-69617350D01*
X119408539Y-69621032D01*
X119335929Y-69621643D01*
X119248691Y-69620633D01*
X119185624Y-69616072D01*
X119134636Y-69605666D01*
X119083633Y-69587121D01*
X119033313Y-69564230D01*
X118890470Y-69478846D01*
X118774810Y-69373699D01*
X118686325Y-69252955D01*
X118625005Y-69120779D01*
X118590839Y-68981337D01*
X118583818Y-68838795D01*
X118603933Y-68697318D01*
X118651172Y-68561071D01*
X118725527Y-68434221D01*
X118826987Y-68320933D01*
X118955543Y-68225372D01*
X119036572Y-68182446D01*
X119149908Y-68145295D01*
X119280751Y-68127288D01*
X119415265Y-68129283D01*
G36*
X119415265Y-68129283D02*
G01*
X119537158Y-68151423D01*
X119686107Y-68211936D01*
X119815309Y-68299686D01*
X119922223Y-68410212D01*
X120004306Y-68539054D01*
X120059016Y-68681753D01*
X120083810Y-68833849D01*
X120076147Y-68990881D01*
X120059772Y-69068286D01*
X120001089Y-69219141D01*
X119911543Y-69353125D01*
X119793893Y-69467006D01*
X119650902Y-69557552D01*
X119635286Y-69565212D01*
X119576686Y-69591694D01*
X119527334Y-69608322D01*
X119475270Y-69617350D01*
X119408539Y-69621032D01*
X119335929Y-69621643D01*
X119248691Y-69620633D01*
X119185624Y-69616072D01*
X119134636Y-69605666D01*
X119083633Y-69587121D01*
X119033313Y-69564230D01*
X118890470Y-69478846D01*
X118774810Y-69373699D01*
X118686325Y-69252955D01*
X118625005Y-69120779D01*
X118590839Y-68981337D01*
X118583818Y-68838795D01*
X118603933Y-68697318D01*
X118651172Y-68561071D01*
X118725527Y-68434221D01*
X118826987Y-68320933D01*
X118955543Y-68225372D01*
X119036572Y-68182446D01*
X119149908Y-68145295D01*
X119280751Y-68127288D01*
X119415265Y-68129283D01*
G37*
X127281860Y-57932024D02*
X127298186Y-57945821D01*
X127309318Y-57960668D01*
X127316250Y-57982185D01*
X127319977Y-58015992D01*
X127321494Y-58067708D01*
X127321794Y-58142953D01*
X127321795Y-58157731D01*
X127321795Y-58352025D01*
X127682505Y-58352025D01*
X127796201Y-58352153D01*
X127883685Y-58352734D01*
X127948802Y-58354064D01*
X127995398Y-58356440D01*
X128027319Y-58360156D01*
X128048412Y-58365508D01*
X128062523Y-58372793D01*
X128073274Y-58382084D01*
X128099696Y-58425929D01*
X128097614Y-58471700D01*
X128067469Y-58513210D01*
X128063733Y-58516259D01*
X128049610Y-58526188D01*
X128033086Y-58533752D01*
X128010146Y-58539271D01*
X127976773Y-58543067D01*
X127928955Y-58545458D01*
X127862674Y-58546766D01*
X127773918Y-58547309D01*
X127672963Y-58547409D01*
X127321795Y-58547409D01*
X127321795Y-58732950D01*
X127321256Y-58812573D01*
X127319157Y-58867696D01*
X127314771Y-58903868D01*
X127307376Y-58926638D01*
X127296245Y-58941553D01*
X127294310Y-58943364D01*
X127250057Y-58965142D01*
X127200029Y-58963216D01*
X127156470Y-58938179D01*
X127148020Y-58928496D01*
X127141321Y-58916012D01*
X127136169Y-58897397D01*
X127132361Y-58869323D01*
X127129697Y-58828459D01*
X127127972Y-58771478D01*
X127126984Y-58695048D01*
X127126532Y-58595843D01*
X127126412Y-58470531D01*
X127126410Y-58443867D01*
X127126539Y-58312323D01*
X127127043Y-58207535D01*
X127128096Y-58126201D01*
X127129876Y-58065020D01*
X127132557Y-58020689D01*
X127136314Y-57989906D01*
X127141325Y-57969369D01*
X127147763Y-57955775D01*
X127152712Y-57949197D01*
X127196029Y-57915056D01*
X127241003Y-57910926D01*
X127281860Y-57932024D01*
G36*
X127281860Y-57932024D02*
G01*
X127298186Y-57945821D01*
X127309318Y-57960668D01*
X127316250Y-57982185D01*
X127319977Y-58015992D01*
X127321494Y-58067708D01*
X127321794Y-58142953D01*
X127321795Y-58157731D01*
X127321795Y-58352025D01*
X127682505Y-58352025D01*
X127796201Y-58352153D01*
X127883685Y-58352734D01*
X127948802Y-58354064D01*
X127995398Y-58356440D01*
X128027319Y-58360156D01*
X128048412Y-58365508D01*
X128062523Y-58372793D01*
X128073274Y-58382084D01*
X128099696Y-58425929D01*
X128097614Y-58471700D01*
X128067469Y-58513210D01*
X128063733Y-58516259D01*
X128049610Y-58526188D01*
X128033086Y-58533752D01*
X128010146Y-58539271D01*
X127976773Y-58543067D01*
X127928955Y-58545458D01*
X127862674Y-58546766D01*
X127773918Y-58547309D01*
X127672963Y-58547409D01*
X127321795Y-58547409D01*
X127321795Y-58732950D01*
X127321256Y-58812573D01*
X127319157Y-58867696D01*
X127314771Y-58903868D01*
X127307376Y-58926638D01*
X127296245Y-58941553D01*
X127294310Y-58943364D01*
X127250057Y-58965142D01*
X127200029Y-58963216D01*
X127156470Y-58938179D01*
X127148020Y-58928496D01*
X127141321Y-58916012D01*
X127136169Y-58897397D01*
X127132361Y-58869323D01*
X127129697Y-58828459D01*
X127127972Y-58771478D01*
X127126984Y-58695048D01*
X127126532Y-58595843D01*
X127126412Y-58470531D01*
X127126410Y-58443867D01*
X127126539Y-58312323D01*
X127127043Y-58207535D01*
X127128096Y-58126201D01*
X127129876Y-58065020D01*
X127132557Y-58020689D01*
X127136314Y-57989906D01*
X127141325Y-57969369D01*
X127147763Y-57955775D01*
X127152712Y-57949197D01*
X127196029Y-57915056D01*
X127241003Y-57910926D01*
X127281860Y-57932024D01*
G37*
X127734486Y-56548571D02*
X127830398Y-56549028D01*
X127903544Y-56550097D01*
X127957570Y-56552029D01*
X127996123Y-56555077D01*
X128022848Y-56559491D01*
X128041394Y-56565524D01*
X128055405Y-56573426D01*
X128063733Y-56579625D01*
X128096449Y-56620539D01*
X128100000Y-56667518D01*
X128079937Y-56710456D01*
X128068092Y-56724644D01*
X128052358Y-56734128D01*
X128027022Y-56739849D01*
X127986370Y-56742747D01*
X127924688Y-56743762D01*
X127877038Y-56743859D01*
X127697535Y-56743859D01*
X127697535Y-57405161D01*
X127860833Y-57405161D01*
X127935505Y-57405845D01*
X127986824Y-57408581D01*
X128021477Y-57414396D01*
X128046155Y-57424316D01*
X128063733Y-57436311D01*
X128096357Y-57477454D01*
X128100220Y-57523983D01*
X128077032Y-57568527D01*
X128064876Y-57580688D01*
X128048761Y-57589277D01*
X128023660Y-57594942D01*
X127984544Y-57598331D01*
X127926386Y-57600092D01*
X127844158Y-57600872D01*
X127825286Y-57600964D01*
X127670357Y-57601608D01*
X127542674Y-57601940D01*
X127439427Y-57601832D01*
X127357803Y-57601155D01*
X127294992Y-57599782D01*
X127248181Y-57597584D01*
X127214559Y-57594434D01*
X127191315Y-57590202D01*
X127175636Y-57584762D01*
X127164711Y-57577985D01*
X127156470Y-57570486D01*
X127130107Y-57528067D01*
X127133688Y-57483828D01*
X127163301Y-57442052D01*
X127182407Y-57425147D01*
X127203511Y-57414371D01*
X127233568Y-57408359D01*
X127279533Y-57405744D01*
X127348360Y-57405161D01*
X127502150Y-57405161D01*
X127502150Y-56743859D01*
X127344339Y-56743859D01*
X127271636Y-56743184D01*
X127222545Y-56740474D01*
X127190636Y-56734699D01*
X127169478Y-56724831D01*
X127156470Y-56713800D01*
X127130107Y-56671381D01*
X127133688Y-56627141D01*
X127163301Y-56585365D01*
X127200192Y-56548475D01*
X127612162Y-56548475D01*
X127734486Y-56548571D01*
G36*
X127734486Y-56548571D02*
G01*
X127830398Y-56549028D01*
X127903544Y-56550097D01*
X127957570Y-56552029D01*
X127996123Y-56555077D01*
X128022848Y-56559491D01*
X128041394Y-56565524D01*
X128055405Y-56573426D01*
X128063733Y-56579625D01*
X128096449Y-56620539D01*
X128100000Y-56667518D01*
X128079937Y-56710456D01*
X128068092Y-56724644D01*
X128052358Y-56734128D01*
X128027022Y-56739849D01*
X127986370Y-56742747D01*
X127924688Y-56743762D01*
X127877038Y-56743859D01*
X127697535Y-56743859D01*
X127697535Y-57405161D01*
X127860833Y-57405161D01*
X127935505Y-57405845D01*
X127986824Y-57408581D01*
X128021477Y-57414396D01*
X128046155Y-57424316D01*
X128063733Y-57436311D01*
X128096357Y-57477454D01*
X128100220Y-57523983D01*
X128077032Y-57568527D01*
X128064876Y-57580688D01*
X128048761Y-57589277D01*
X128023660Y-57594942D01*
X127984544Y-57598331D01*
X127926386Y-57600092D01*
X127844158Y-57600872D01*
X127825286Y-57600964D01*
X127670357Y-57601608D01*
X127542674Y-57601940D01*
X127439427Y-57601832D01*
X127357803Y-57601155D01*
X127294992Y-57599782D01*
X127248181Y-57597584D01*
X127214559Y-57594434D01*
X127191315Y-57590202D01*
X127175636Y-57584762D01*
X127164711Y-57577985D01*
X127156470Y-57570486D01*
X127130107Y-57528067D01*
X127133688Y-57483828D01*
X127163301Y-57442052D01*
X127182407Y-57425147D01*
X127203511Y-57414371D01*
X127233568Y-57408359D01*
X127279533Y-57405744D01*
X127348360Y-57405161D01*
X127502150Y-57405161D01*
X127502150Y-56743859D01*
X127344339Y-56743859D01*
X127271636Y-56743184D01*
X127222545Y-56740474D01*
X127190636Y-56734699D01*
X127169478Y-56724831D01*
X127156470Y-56713800D01*
X127130107Y-56671381D01*
X127133688Y-56627141D01*
X127163301Y-56585365D01*
X127200192Y-56548475D01*
X127612162Y-56548475D01*
X127734486Y-56548571D01*
G37*
X127684012Y-62781480D02*
X127768135Y-62811539D01*
X127780937Y-62817239D01*
X127855862Y-62856115D01*
X127913757Y-62899805D01*
X127962972Y-62956194D01*
X128011857Y-63033162D01*
X128014409Y-63037634D01*
X128046595Y-63104637D01*
X128070632Y-63180369D01*
X128087351Y-63269696D01*
X128097579Y-63377485D01*
X128102146Y-63508602D01*
X128102543Y-63554928D01*
X128103334Y-63775524D01*
X128063733Y-63806674D01*
X128050711Y-63815914D01*
X128035504Y-63823122D01*
X128014466Y-63828550D01*
X127983950Y-63832449D01*
X127940311Y-63835071D01*
X127907949Y-63835926D01*
X127879900Y-63836668D01*
X127799072Y-63837490D01*
X127694181Y-63837790D01*
X127612162Y-63837824D01*
X127200192Y-63837824D01*
X127163301Y-63800933D01*
X127148348Y-63784560D01*
X127138108Y-63766857D01*
X127131701Y-63742135D01*
X127128247Y-63704706D01*
X127126867Y-63648881D01*
X127126817Y-63627409D01*
X127321795Y-63627409D01*
X127907949Y-63627409D01*
X127907949Y-63502418D01*
X127905810Y-63429277D01*
X127900181Y-63354193D01*
X127892243Y-63292570D01*
X127891575Y-63288851D01*
X127862212Y-63179401D01*
X127818097Y-63094506D01*
X127757183Y-63031482D01*
X127677424Y-62987640D01*
X127656284Y-62980017D01*
X127623362Y-62972544D01*
X127590836Y-62975779D01*
X127547564Y-62991521D01*
X127526307Y-63001010D01*
X127469820Y-63032083D01*
X127430191Y-63069521D01*
X127402594Y-63110713D01*
X127366682Y-63193224D01*
X127340668Y-63298821D01*
X127325688Y-63421836D01*
X127322392Y-63510930D01*
X127321795Y-63627409D01*
X127126817Y-63627409D01*
X127126681Y-63568972D01*
X127126687Y-63564217D01*
X127132493Y-63392499D01*
X127150101Y-63246445D01*
X127180563Y-63123647D01*
X127224935Y-63021697D01*
X127284271Y-62938186D01*
X127359624Y-62870707D01*
X127452050Y-62816851D01*
X127454304Y-62815792D01*
X127537024Y-62783651D01*
X127610284Y-62772199D01*
X127684012Y-62781480D01*
G36*
X127684012Y-62781480D02*
G01*
X127768135Y-62811539D01*
X127780937Y-62817239D01*
X127855862Y-62856115D01*
X127913757Y-62899805D01*
X127962972Y-62956194D01*
X128011857Y-63033162D01*
X128014409Y-63037634D01*
X128046595Y-63104637D01*
X128070632Y-63180369D01*
X128087351Y-63269696D01*
X128097579Y-63377485D01*
X128102146Y-63508602D01*
X128102543Y-63554928D01*
X128103334Y-63775524D01*
X128063733Y-63806674D01*
X128050711Y-63815914D01*
X128035504Y-63823122D01*
X128014466Y-63828550D01*
X127983950Y-63832449D01*
X127940311Y-63835071D01*
X127907949Y-63835926D01*
X127879900Y-63836668D01*
X127799072Y-63837490D01*
X127694181Y-63837790D01*
X127612162Y-63837824D01*
X127200192Y-63837824D01*
X127163301Y-63800933D01*
X127148348Y-63784560D01*
X127138108Y-63766857D01*
X127131701Y-63742135D01*
X127128247Y-63704706D01*
X127126867Y-63648881D01*
X127126817Y-63627409D01*
X127321795Y-63627409D01*
X127907949Y-63627409D01*
X127907949Y-63502418D01*
X127905810Y-63429277D01*
X127900181Y-63354193D01*
X127892243Y-63292570D01*
X127891575Y-63288851D01*
X127862212Y-63179401D01*
X127818097Y-63094506D01*
X127757183Y-63031482D01*
X127677424Y-62987640D01*
X127656284Y-62980017D01*
X127623362Y-62972544D01*
X127590836Y-62975779D01*
X127547564Y-62991521D01*
X127526307Y-63001010D01*
X127469820Y-63032083D01*
X127430191Y-63069521D01*
X127402594Y-63110713D01*
X127366682Y-63193224D01*
X127340668Y-63298821D01*
X127325688Y-63421836D01*
X127322392Y-63510930D01*
X127321795Y-63627409D01*
X127126817Y-63627409D01*
X127126681Y-63568972D01*
X127126687Y-63564217D01*
X127132493Y-63392499D01*
X127150101Y-63246445D01*
X127180563Y-63123647D01*
X127224935Y-63021697D01*
X127284271Y-62938186D01*
X127359624Y-62870707D01*
X127452050Y-62816851D01*
X127454304Y-62815792D01*
X127537024Y-62783651D01*
X127610284Y-62772199D01*
X127684012Y-62781480D01*
G37*
X127693174Y-72235005D02*
X127778705Y-72263607D01*
X127859663Y-72305011D01*
X127924246Y-72354095D01*
X127932038Y-72362067D01*
X127986808Y-72429600D01*
X128029563Y-72503552D01*
X128061423Y-72588188D01*
X128083508Y-72687771D01*
X128096938Y-72806566D01*
X128102834Y-72948834D01*
X128103334Y-73014000D01*
X128102935Y-73096855D01*
X128101266Y-73155123D01*
X128097622Y-73194270D01*
X128091293Y-73219763D01*
X128081574Y-73237068D01*
X128073274Y-73246344D01*
X128063192Y-73255106D01*
X128050185Y-73261979D01*
X128030769Y-73267192D01*
X128001460Y-73270973D01*
X127958773Y-73273551D01*
X127899225Y-73275154D01*
X127819330Y-73276011D01*
X127715605Y-73276351D01*
X127614872Y-73276403D01*
X127480519Y-73276734D01*
X127373192Y-73276662D01*
X127321795Y-73275384D01*
X127289881Y-73274590D01*
X127227579Y-73268915D01*
X127183275Y-73258041D01*
X127153960Y-73240368D01*
X127136625Y-73214297D01*
X127128261Y-73178229D01*
X127125859Y-73130566D01*
X127126409Y-73069708D01*
X127126944Y-73017143D01*
X127127851Y-72979569D01*
X127321776Y-72979569D01*
X127321795Y-73081019D01*
X127907949Y-73081019D01*
X127907835Y-72957025D01*
X127905696Y-72882415D01*
X127900183Y-72804272D01*
X127892472Y-72739074D01*
X127892155Y-72737090D01*
X127866678Y-72631717D01*
X127827000Y-72549986D01*
X127770538Y-72487816D01*
X127709406Y-72448314D01*
X127641593Y-72423974D01*
X127577919Y-72425861D01*
X127509665Y-72454109D01*
X127439056Y-72509362D01*
X127386735Y-72585927D01*
X127351763Y-72685449D01*
X127339386Y-72751961D01*
X127330694Y-72827461D01*
X127324404Y-72907479D01*
X127321788Y-72975538D01*
X127321776Y-72979569D01*
X127127851Y-72979569D01*
X127130660Y-72863119D01*
X127141699Y-72734125D01*
X127161246Y-72625763D01*
X127190483Y-72533638D01*
X127230597Y-72453353D01*
X127282769Y-72380512D01*
X127305433Y-72354495D01*
X127358462Y-72311337D01*
X127430421Y-72272421D01*
X127510184Y-72242427D01*
X127586625Y-72226035D01*
X127614872Y-72224332D01*
X127693174Y-72235005D01*
G36*
X127693174Y-72235005D02*
G01*
X127778705Y-72263607D01*
X127859663Y-72305011D01*
X127924246Y-72354095D01*
X127932038Y-72362067D01*
X127986808Y-72429600D01*
X128029563Y-72503552D01*
X128061423Y-72588188D01*
X128083508Y-72687771D01*
X128096938Y-72806566D01*
X128102834Y-72948834D01*
X128103334Y-73014000D01*
X128102935Y-73096855D01*
X128101266Y-73155123D01*
X128097622Y-73194270D01*
X128091293Y-73219763D01*
X128081574Y-73237068D01*
X128073274Y-73246344D01*
X128063192Y-73255106D01*
X128050185Y-73261979D01*
X128030769Y-73267192D01*
X128001460Y-73270973D01*
X127958773Y-73273551D01*
X127899225Y-73275154D01*
X127819330Y-73276011D01*
X127715605Y-73276351D01*
X127614872Y-73276403D01*
X127480519Y-73276734D01*
X127373192Y-73276662D01*
X127321795Y-73275384D01*
X127289881Y-73274590D01*
X127227579Y-73268915D01*
X127183275Y-73258041D01*
X127153960Y-73240368D01*
X127136625Y-73214297D01*
X127128261Y-73178229D01*
X127125859Y-73130566D01*
X127126409Y-73069708D01*
X127126944Y-73017143D01*
X127127851Y-72979569D01*
X127321776Y-72979569D01*
X127321795Y-73081019D01*
X127907949Y-73081019D01*
X127907835Y-72957025D01*
X127905696Y-72882415D01*
X127900183Y-72804272D01*
X127892472Y-72739074D01*
X127892155Y-72737090D01*
X127866678Y-72631717D01*
X127827000Y-72549986D01*
X127770538Y-72487816D01*
X127709406Y-72448314D01*
X127641593Y-72423974D01*
X127577919Y-72425861D01*
X127509665Y-72454109D01*
X127439056Y-72509362D01*
X127386735Y-72585927D01*
X127351763Y-72685449D01*
X127339386Y-72751961D01*
X127330694Y-72827461D01*
X127324404Y-72907479D01*
X127321788Y-72975538D01*
X127321776Y-72979569D01*
X127127851Y-72979569D01*
X127130660Y-72863119D01*
X127141699Y-72734125D01*
X127161246Y-72625763D01*
X127190483Y-72533638D01*
X127230597Y-72453353D01*
X127282769Y-72380512D01*
X127305433Y-72354495D01*
X127358462Y-72311337D01*
X127430421Y-72272421D01*
X127510184Y-72242427D01*
X127586625Y-72226035D01*
X127614872Y-72224332D01*
X127693174Y-72235005D01*
G37*
X127897394Y-65702944D02*
X127952221Y-65704168D01*
X127991443Y-65706638D01*
X128018673Y-65710568D01*
X128037523Y-65716174D01*
X128051605Y-65723672D01*
X128062899Y-65731987D01*
X128083846Y-65749976D01*
X128097731Y-65767875D01*
X128103060Y-65788166D01*
X128098340Y-65813332D01*
X128082077Y-65845854D01*
X128052777Y-65888217D01*
X128008946Y-65942902D01*
X127949091Y-66012391D01*
X127871718Y-66099169D01*
X127782814Y-66197469D01*
X127462435Y-66550664D01*
X127754177Y-66558179D01*
X127854747Y-66560897D01*
X127929604Y-66563521D01*
X127983084Y-66566633D01*
X128019526Y-66570816D01*
X128043268Y-66576651D01*
X128058646Y-66584720D01*
X128070000Y-66595605D01*
X128074626Y-66601175D01*
X128100042Y-66650410D01*
X128096209Y-66696931D01*
X128063733Y-66737443D01*
X128050667Y-66746710D01*
X128035409Y-66753933D01*
X128014296Y-66759366D01*
X127983669Y-66763262D01*
X127939866Y-66765875D01*
X127879227Y-66767461D01*
X127798091Y-66768272D01*
X127692797Y-66768562D01*
X127614872Y-66768593D01*
X127492988Y-66768495D01*
X127397503Y-66768033D01*
X127324755Y-66766951D01*
X127271083Y-66764997D01*
X127232827Y-66761916D01*
X127206327Y-66757454D01*
X127187920Y-66751357D01*
X127173948Y-66743371D01*
X127166011Y-66737443D01*
X127147212Y-66722416D01*
X127133017Y-66708372D01*
X127124846Y-66693184D01*
X127124116Y-66674727D01*
X127132244Y-66650874D01*
X127150649Y-66619499D01*
X127180749Y-66578476D01*
X127223960Y-66525678D01*
X127281702Y-66458979D01*
X127355392Y-66376253D01*
X127446448Y-66275374D01*
X127551138Y-66159895D01*
X127769207Y-65919421D01*
X127476508Y-65911906D01*
X127375754Y-65909193D01*
X127300722Y-65906576D01*
X127247084Y-65903474D01*
X127210510Y-65899310D01*
X127186671Y-65893505D01*
X127171238Y-65885478D01*
X127159882Y-65874651D01*
X127155110Y-65868910D01*
X127129877Y-65822937D01*
X127133566Y-65779191D01*
X127155123Y-65744489D01*
X127183835Y-65709007D01*
X127603150Y-65704594D01*
X127726471Y-65703373D01*
X127823348Y-65702751D01*
X127897394Y-65702944D01*
G36*
X127897394Y-65702944D02*
G01*
X127952221Y-65704168D01*
X127991443Y-65706638D01*
X128018673Y-65710568D01*
X128037523Y-65716174D01*
X128051605Y-65723672D01*
X128062899Y-65731987D01*
X128083846Y-65749976D01*
X128097731Y-65767875D01*
X128103060Y-65788166D01*
X128098340Y-65813332D01*
X128082077Y-65845854D01*
X128052777Y-65888217D01*
X128008946Y-65942902D01*
X127949091Y-66012391D01*
X127871718Y-66099169D01*
X127782814Y-66197469D01*
X127462435Y-66550664D01*
X127754177Y-66558179D01*
X127854747Y-66560897D01*
X127929604Y-66563521D01*
X127983084Y-66566633D01*
X128019526Y-66570816D01*
X128043268Y-66576651D01*
X128058646Y-66584720D01*
X128070000Y-66595605D01*
X128074626Y-66601175D01*
X128100042Y-66650410D01*
X128096209Y-66696931D01*
X128063733Y-66737443D01*
X128050667Y-66746710D01*
X128035409Y-66753933D01*
X128014296Y-66759366D01*
X127983669Y-66763262D01*
X127939866Y-66765875D01*
X127879227Y-66767461D01*
X127798091Y-66768272D01*
X127692797Y-66768562D01*
X127614872Y-66768593D01*
X127492988Y-66768495D01*
X127397503Y-66768033D01*
X127324755Y-66766951D01*
X127271083Y-66764997D01*
X127232827Y-66761916D01*
X127206327Y-66757454D01*
X127187920Y-66751357D01*
X127173948Y-66743371D01*
X127166011Y-66737443D01*
X127147212Y-66722416D01*
X127133017Y-66708372D01*
X127124846Y-66693184D01*
X127124116Y-66674727D01*
X127132244Y-66650874D01*
X127150649Y-66619499D01*
X127180749Y-66578476D01*
X127223960Y-66525678D01*
X127281702Y-66458979D01*
X127355392Y-66376253D01*
X127446448Y-66275374D01*
X127551138Y-66159895D01*
X127769207Y-65919421D01*
X127476508Y-65911906D01*
X127375754Y-65909193D01*
X127300722Y-65906576D01*
X127247084Y-65903474D01*
X127210510Y-65899310D01*
X127186671Y-65893505D01*
X127171238Y-65885478D01*
X127159882Y-65874651D01*
X127155110Y-65868910D01*
X127129877Y-65822937D01*
X127133566Y-65779191D01*
X127155123Y-65744489D01*
X127183835Y-65709007D01*
X127603150Y-65704594D01*
X127726471Y-65703373D01*
X127823348Y-65702751D01*
X127897394Y-65702944D01*
G37*
X127885910Y-67221356D02*
X127948818Y-67227000D01*
X127982403Y-67236436D01*
X127985033Y-67238267D01*
X128026998Y-67290079D01*
X128060232Y-67366044D01*
X128084023Y-67461346D01*
X128097663Y-67571170D01*
X128100442Y-67690700D01*
X128091649Y-67815120D01*
X128080849Y-67888297D01*
X128048362Y-68003074D01*
X127995250Y-68109750D01*
X127926319Y-68199065D01*
X127912542Y-68212640D01*
X127854622Y-68256746D01*
X127782840Y-68296543D01*
X127707583Y-68327381D01*
X127639241Y-68344611D01*
X127612993Y-68346688D01*
X127558241Y-68337847D01*
X127490119Y-68314349D01*
X127418414Y-68280703D01*
X127352913Y-68241418D01*
X127309162Y-68206709D01*
X127244083Y-68125557D01*
X127192285Y-68020652D01*
X127154938Y-67895754D01*
X127133217Y-67754621D01*
X127127909Y-67625279D01*
X127133776Y-67516216D01*
X127149082Y-67424995D01*
X127172875Y-67354936D01*
X127204204Y-67309358D01*
X127222078Y-67296938D01*
X127263649Y-67284308D01*
X127301256Y-67292807D01*
X127336919Y-67319639D01*
X127353603Y-67361330D01*
X127352248Y-67421824D01*
X127343209Y-67468613D01*
X127325987Y-67572582D01*
X127324351Y-67678834D01*
X127338329Y-67797763D01*
X127344252Y-67830614D01*
X127375431Y-67941199D01*
X127421810Y-68027713D01*
X127482599Y-68089207D01*
X127557008Y-68124732D01*
X127595478Y-68132079D01*
X127673527Y-68127270D01*
X127742581Y-68096220D01*
X127801293Y-68041760D01*
X127848317Y-67966718D01*
X127882307Y-67873924D01*
X127901918Y-67766206D01*
X127905805Y-67646395D01*
X127892620Y-67517319D01*
X127891376Y-67510031D01*
X127881814Y-67458692D01*
X127872578Y-67430226D01*
X127858873Y-67417888D01*
X127835906Y-67414932D01*
X127823743Y-67414865D01*
X127772683Y-67414865D01*
X127772683Y-67506031D01*
X127767168Y-67586536D01*
X127749594Y-67641475D01*
X127718417Y-67673440D01*
X127672094Y-67685026D01*
X127666048Y-67685167D01*
X127626453Y-67678389D01*
X127598181Y-67655145D01*
X127579471Y-67611884D01*
X127568564Y-67545055D01*
X127564554Y-67480324D01*
X127562253Y-67386241D01*
X127565764Y-67317998D01*
X127578719Y-67271455D01*
X127604750Y-67242472D01*
X127647491Y-67226909D01*
X127710574Y-67220625D01*
X127793428Y-67219480D01*
X127885910Y-67221356D01*
G36*
X127885910Y-67221356D02*
G01*
X127948818Y-67227000D01*
X127982403Y-67236436D01*
X127985033Y-67238267D01*
X128026998Y-67290079D01*
X128060232Y-67366044D01*
X128084023Y-67461346D01*
X128097663Y-67571170D01*
X128100442Y-67690700D01*
X128091649Y-67815120D01*
X128080849Y-67888297D01*
X128048362Y-68003074D01*
X127995250Y-68109750D01*
X127926319Y-68199065D01*
X127912542Y-68212640D01*
X127854622Y-68256746D01*
X127782840Y-68296543D01*
X127707583Y-68327381D01*
X127639241Y-68344611D01*
X127612993Y-68346688D01*
X127558241Y-68337847D01*
X127490119Y-68314349D01*
X127418414Y-68280703D01*
X127352913Y-68241418D01*
X127309162Y-68206709D01*
X127244083Y-68125557D01*
X127192285Y-68020652D01*
X127154938Y-67895754D01*
X127133217Y-67754621D01*
X127127909Y-67625279D01*
X127133776Y-67516216D01*
X127149082Y-67424995D01*
X127172875Y-67354936D01*
X127204204Y-67309358D01*
X127222078Y-67296938D01*
X127263649Y-67284308D01*
X127301256Y-67292807D01*
X127336919Y-67319639D01*
X127353603Y-67361330D01*
X127352248Y-67421824D01*
X127343209Y-67468613D01*
X127325987Y-67572582D01*
X127324351Y-67678834D01*
X127338329Y-67797763D01*
X127344252Y-67830614D01*
X127375431Y-67941199D01*
X127421810Y-68027713D01*
X127482599Y-68089207D01*
X127557008Y-68124732D01*
X127595478Y-68132079D01*
X127673527Y-68127270D01*
X127742581Y-68096220D01*
X127801293Y-68041760D01*
X127848317Y-67966718D01*
X127882307Y-67873924D01*
X127901918Y-67766206D01*
X127905805Y-67646395D01*
X127892620Y-67517319D01*
X127891376Y-67510031D01*
X127881814Y-67458692D01*
X127872578Y-67430226D01*
X127858873Y-67417888D01*
X127835906Y-67414932D01*
X127823743Y-67414865D01*
X127772683Y-67414865D01*
X127772683Y-67506031D01*
X127767168Y-67586536D01*
X127749594Y-67641475D01*
X127718417Y-67673440D01*
X127672094Y-67685026D01*
X127666048Y-67685167D01*
X127626453Y-67678389D01*
X127598181Y-67655145D01*
X127579471Y-67611884D01*
X127568564Y-67545055D01*
X127564554Y-67480324D01*
X127562253Y-67386241D01*
X127565764Y-67317998D01*
X127578719Y-67271455D01*
X127604750Y-67242472D01*
X127647491Y-67226909D01*
X127710574Y-67220625D01*
X127793428Y-67219480D01*
X127885910Y-67221356D01*
G37*
X127252790Y-64290045D02*
X127276103Y-64296349D01*
X127293506Y-64311078D01*
X127305940Y-64337685D01*
X127314345Y-64379626D01*
X127319665Y-64440354D01*
X127322839Y-64523324D01*
X127324809Y-64631989D01*
X127325245Y-64665295D01*
X127329310Y-64987587D01*
X127415730Y-64992094D01*
X127502150Y-64996602D01*
X127502150Y-64772737D01*
X127502473Y-64685279D01*
X127503837Y-64622831D01*
X127506839Y-64580346D01*
X127512073Y-64552777D01*
X127520135Y-64535078D01*
X127531620Y-64522203D01*
X127531711Y-64522120D01*
X127576471Y-64498770D01*
X127624847Y-64499614D01*
X127666086Y-64524121D01*
X127670325Y-64528971D01*
X127681249Y-64546185D01*
X127688849Y-64569774D01*
X127693697Y-64604993D01*
X127696366Y-64657100D01*
X127697428Y-64731350D01*
X127697535Y-64778838D01*
X127697535Y-64995102D01*
X127907949Y-64995102D01*
X127907949Y-64666780D01*
X127908139Y-64558382D01*
X127908914Y-64476065D01*
X127910584Y-64415851D01*
X127913458Y-64373765D01*
X127917847Y-64345829D01*
X127924059Y-64328066D01*
X127932404Y-64316500D01*
X127935434Y-64313585D01*
X127977434Y-64292064D01*
X128025214Y-64290490D01*
X128066642Y-64308145D01*
X128079937Y-64322115D01*
X128087256Y-64336646D01*
X128092919Y-64359162D01*
X128097123Y-64393224D01*
X128100068Y-64442393D01*
X128101951Y-64510232D01*
X128102970Y-64600302D01*
X128103325Y-64716163D01*
X128103334Y-64742357D01*
X128103256Y-64860161D01*
X128102831Y-64951604D01*
X128101766Y-65020386D01*
X128099769Y-65070204D01*
X128096550Y-65104760D01*
X128091816Y-65127750D01*
X128085277Y-65142874D01*
X128076641Y-65153831D01*
X128070440Y-65159842D01*
X128059457Y-65168890D01*
X128045852Y-65175958D01*
X128026056Y-65181291D01*
X127996502Y-65185132D01*
X127953621Y-65187725D01*
X127893845Y-65189313D01*
X127813607Y-65190139D01*
X127709339Y-65190448D01*
X127621580Y-65190486D01*
X127498608Y-65190392D01*
X127402069Y-65189943D01*
X127328339Y-65188892D01*
X127273790Y-65186990D01*
X127234799Y-65183991D01*
X127207739Y-65179645D01*
X127188984Y-65173706D01*
X127174910Y-65165925D01*
X127166011Y-65159336D01*
X127126410Y-65128186D01*
X127126410Y-64741852D01*
X127126667Y-64613284D01*
X127127884Y-64511623D01*
X127130730Y-64433718D01*
X127135874Y-64376419D01*
X127143984Y-64336573D01*
X127155731Y-64311032D01*
X127171782Y-64296643D01*
X127192808Y-64290255D01*
X127219476Y-64288719D01*
X127222626Y-64288711D01*
X127252790Y-64290045D01*
G36*
X127252790Y-64290045D02*
G01*
X127276103Y-64296349D01*
X127293506Y-64311078D01*
X127305940Y-64337685D01*
X127314345Y-64379626D01*
X127319665Y-64440354D01*
X127322839Y-64523324D01*
X127324809Y-64631989D01*
X127325245Y-64665295D01*
X127329310Y-64987587D01*
X127415730Y-64992094D01*
X127502150Y-64996602D01*
X127502150Y-64772737D01*
X127502473Y-64685279D01*
X127503837Y-64622831D01*
X127506839Y-64580346D01*
X127512073Y-64552777D01*
X127520135Y-64535078D01*
X127531620Y-64522203D01*
X127531711Y-64522120D01*
X127576471Y-64498770D01*
X127624847Y-64499614D01*
X127666086Y-64524121D01*
X127670325Y-64528971D01*
X127681249Y-64546185D01*
X127688849Y-64569774D01*
X127693697Y-64604993D01*
X127696366Y-64657100D01*
X127697428Y-64731350D01*
X127697535Y-64778838D01*
X127697535Y-64995102D01*
X127907949Y-64995102D01*
X127907949Y-64666780D01*
X127908139Y-64558382D01*
X127908914Y-64476065D01*
X127910584Y-64415851D01*
X127913458Y-64373765D01*
X127917847Y-64345829D01*
X127924059Y-64328066D01*
X127932404Y-64316500D01*
X127935434Y-64313585D01*
X127977434Y-64292064D01*
X128025214Y-64290490D01*
X128066642Y-64308145D01*
X128079937Y-64322115D01*
X128087256Y-64336646D01*
X128092919Y-64359162D01*
X128097123Y-64393224D01*
X128100068Y-64442393D01*
X128101951Y-64510232D01*
X128102970Y-64600302D01*
X128103325Y-64716163D01*
X128103334Y-64742357D01*
X128103256Y-64860161D01*
X128102831Y-64951604D01*
X128101766Y-65020386D01*
X128099769Y-65070204D01*
X128096550Y-65104760D01*
X128091816Y-65127750D01*
X128085277Y-65142874D01*
X128076641Y-65153831D01*
X128070440Y-65159842D01*
X128059457Y-65168890D01*
X128045852Y-65175958D01*
X128026056Y-65181291D01*
X127996502Y-65185132D01*
X127953621Y-65187725D01*
X127893845Y-65189313D01*
X127813607Y-65190139D01*
X127709339Y-65190448D01*
X127621580Y-65190486D01*
X127498608Y-65190392D01*
X127402069Y-65189943D01*
X127328339Y-65188892D01*
X127273790Y-65186990D01*
X127234799Y-65183991D01*
X127207739Y-65179645D01*
X127188984Y-65173706D01*
X127174910Y-65165925D01*
X127166011Y-65159336D01*
X127126410Y-65128186D01*
X127126410Y-64741852D01*
X127126667Y-64613284D01*
X127127884Y-64511623D01*
X127130730Y-64433718D01*
X127135874Y-64376419D01*
X127143984Y-64336573D01*
X127155731Y-64311032D01*
X127171782Y-64296643D01*
X127192808Y-64290255D01*
X127219476Y-64288719D01*
X127222626Y-64288711D01*
X127252790Y-64290045D01*
G37*
X128044518Y-70867093D02*
X128073274Y-70886699D01*
X128082327Y-70897159D01*
X128089357Y-70910662D01*
X128094618Y-70930840D01*
X128098365Y-70961325D01*
X128100854Y-71005749D01*
X128102339Y-71067745D01*
X128103075Y-71150945D01*
X128103318Y-71258981D01*
X128103334Y-71315043D01*
X128103227Y-71435098D01*
X128102739Y-71528728D01*
X128101613Y-71599563D01*
X128099595Y-71651235D01*
X128096430Y-71687377D01*
X128091863Y-71711622D01*
X128085640Y-71727601D01*
X128077504Y-71738947D01*
X128073274Y-71743386D01*
X128063160Y-71752171D01*
X128050112Y-71759058D01*
X128030634Y-71764275D01*
X128001228Y-71768053D01*
X127958398Y-71770624D01*
X127898648Y-71772218D01*
X127818481Y-71773065D01*
X127714401Y-71773396D01*
X127617492Y-71773445D01*
X127493387Y-71773400D01*
X127395830Y-71773088D01*
X127321310Y-71772242D01*
X127266315Y-71770596D01*
X127227334Y-71767883D01*
X127200857Y-71763837D01*
X127183370Y-71758191D01*
X127171364Y-71750680D01*
X127161327Y-71741036D01*
X127159090Y-71738660D01*
X127149183Y-71727129D01*
X127141512Y-71713732D01*
X127135790Y-71694750D01*
X127131732Y-71666469D01*
X127129052Y-71625172D01*
X127127466Y-71567142D01*
X127126688Y-71488663D01*
X127126432Y-71386020D01*
X127126410Y-71313150D01*
X127126516Y-71194384D01*
X127127012Y-71101976D01*
X127128165Y-71032227D01*
X127130244Y-70981437D01*
X127133515Y-70945905D01*
X127138247Y-70921932D01*
X127144707Y-70905818D01*
X127153163Y-70893863D01*
X127157055Y-70889533D01*
X127198404Y-70863205D01*
X127245916Y-70858465D01*
X127288095Y-70875784D01*
X127296620Y-70883793D01*
X127304885Y-70896746D01*
X127311261Y-70917602D01*
X127316059Y-70950230D01*
X127319588Y-70998496D01*
X127322158Y-71066268D01*
X127324081Y-71157414D01*
X127325251Y-71240745D01*
X127329310Y-71570546D01*
X127502150Y-71579560D01*
X127502150Y-71355696D01*
X127502989Y-71258508D01*
X127506496Y-71187357D01*
X127514159Y-71138245D01*
X127527467Y-71107171D01*
X127547905Y-71090138D01*
X127576963Y-71083146D01*
X127603931Y-71082084D01*
X127637021Y-71085384D01*
X127661404Y-71097837D01*
X127678353Y-71123274D01*
X127689143Y-71165525D01*
X127695048Y-71228420D01*
X127697341Y-71315789D01*
X127697535Y-71363475D01*
X127697535Y-71578060D01*
X127907949Y-71578060D01*
X127907949Y-71247409D01*
X127908100Y-71139024D01*
X127908778Y-71056651D01*
X127910320Y-70996243D01*
X127913063Y-70953753D01*
X127917345Y-70925135D01*
X127923503Y-70906342D01*
X127931873Y-70893328D01*
X127938008Y-70886699D01*
X127973813Y-70863961D01*
X128005641Y-70856640D01*
X128044518Y-70867093D01*
G36*
X128044518Y-70867093D02*
G01*
X128073274Y-70886699D01*
X128082327Y-70897159D01*
X128089357Y-70910662D01*
X128094618Y-70930840D01*
X128098365Y-70961325D01*
X128100854Y-71005749D01*
X128102339Y-71067745D01*
X128103075Y-71150945D01*
X128103318Y-71258981D01*
X128103334Y-71315043D01*
X128103227Y-71435098D01*
X128102739Y-71528728D01*
X128101613Y-71599563D01*
X128099595Y-71651235D01*
X128096430Y-71687377D01*
X128091863Y-71711622D01*
X128085640Y-71727601D01*
X128077504Y-71738947D01*
X128073274Y-71743386D01*
X128063160Y-71752171D01*
X128050112Y-71759058D01*
X128030634Y-71764275D01*
X128001228Y-71768053D01*
X127958398Y-71770624D01*
X127898648Y-71772218D01*
X127818481Y-71773065D01*
X127714401Y-71773396D01*
X127617492Y-71773445D01*
X127493387Y-71773400D01*
X127395830Y-71773088D01*
X127321310Y-71772242D01*
X127266315Y-71770596D01*
X127227334Y-71767883D01*
X127200857Y-71763837D01*
X127183370Y-71758191D01*
X127171364Y-71750680D01*
X127161327Y-71741036D01*
X127159090Y-71738660D01*
X127149183Y-71727129D01*
X127141512Y-71713732D01*
X127135790Y-71694750D01*
X127131732Y-71666469D01*
X127129052Y-71625172D01*
X127127466Y-71567142D01*
X127126688Y-71488663D01*
X127126432Y-71386020D01*
X127126410Y-71313150D01*
X127126516Y-71194384D01*
X127127012Y-71101976D01*
X127128165Y-71032227D01*
X127130244Y-70981437D01*
X127133515Y-70945905D01*
X127138247Y-70921932D01*
X127144707Y-70905818D01*
X127153163Y-70893863D01*
X127157055Y-70889533D01*
X127198404Y-70863205D01*
X127245916Y-70858465D01*
X127288095Y-70875784D01*
X127296620Y-70883793D01*
X127304885Y-70896746D01*
X127311261Y-70917602D01*
X127316059Y-70950230D01*
X127319588Y-70998496D01*
X127322158Y-71066268D01*
X127324081Y-71157414D01*
X127325251Y-71240745D01*
X127329310Y-71570546D01*
X127502150Y-71579560D01*
X127502150Y-71355696D01*
X127502989Y-71258508D01*
X127506496Y-71187357D01*
X127514159Y-71138245D01*
X127527467Y-71107171D01*
X127547905Y-71090138D01*
X127576963Y-71083146D01*
X127603931Y-71082084D01*
X127637021Y-71085384D01*
X127661404Y-71097837D01*
X127678353Y-71123274D01*
X127689143Y-71165525D01*
X127695048Y-71228420D01*
X127697341Y-71315789D01*
X127697535Y-71363475D01*
X127697535Y-71578060D01*
X127907949Y-71578060D01*
X127907949Y-71247409D01*
X127908100Y-71139024D01*
X127908778Y-71056651D01*
X127910320Y-70996243D01*
X127913063Y-70953753D01*
X127917345Y-70925135D01*
X127923503Y-70906342D01*
X127931873Y-70893328D01*
X127938008Y-70886699D01*
X127973813Y-70863961D01*
X128005641Y-70856640D01*
X128044518Y-70867093D01*
G37*
X127223992Y-59848805D02*
X127248667Y-59854178D01*
X127283764Y-59865912D01*
X127332353Y-59885187D01*
X127397502Y-59913178D01*
X127482281Y-59951064D01*
X127589759Y-60000022D01*
X127648503Y-60026969D01*
X127753373Y-60075630D01*
X127849814Y-60121310D01*
X127934298Y-60162266D01*
X128003300Y-60196754D01*
X128053294Y-60223031D01*
X128080754Y-60239354D01*
X128084547Y-60242584D01*
X128101280Y-60283911D01*
X128099039Y-60330591D01*
X128078687Y-60368030D01*
X128077032Y-60369556D01*
X128054486Y-60384449D01*
X128010571Y-60409431D01*
X127950940Y-60441421D01*
X127881246Y-60477340D01*
X127855563Y-60490248D01*
X127660397Y-60587686D01*
X127872407Y-60693894D01*
X127945661Y-60731803D01*
X128009190Y-60766973D01*
X128058131Y-60796532D01*
X128087622Y-60817606D01*
X128093876Y-60824748D01*
X128102345Y-60880262D01*
X128084547Y-60926071D01*
X128065525Y-60939546D01*
X128023249Y-60962864D01*
X127961880Y-60994123D01*
X127885576Y-61031420D01*
X127798499Y-61072854D01*
X127704807Y-61116522D01*
X127608661Y-61160522D01*
X127514221Y-61202952D01*
X127425645Y-61241910D01*
X127347096Y-61275493D01*
X127282731Y-61301799D01*
X127236711Y-61318926D01*
X127213197Y-61324971D01*
X127212345Y-61324909D01*
X127182756Y-61310200D01*
X127152620Y-61280798D01*
X127151308Y-61279067D01*
X127130882Y-61242930D01*
X127131080Y-61209506D01*
X127134931Y-61196978D01*
X127143253Y-61181713D01*
X127159625Y-61165502D01*
X127187442Y-61146401D01*
X127230100Y-61122465D01*
X127290995Y-61091749D01*
X127373525Y-61052309D01*
X127449707Y-61016742D01*
X127538014Y-60975823D01*
X127617426Y-60939156D01*
X127683796Y-60908646D01*
X127732975Y-60886198D01*
X127760813Y-60873717D01*
X127765168Y-60871897D01*
X127758049Y-60863710D01*
X127728241Y-60844895D01*
X127680096Y-60817954D01*
X127617963Y-60785392D01*
X127592328Y-60772434D01*
X127505765Y-60728540D01*
X127442725Y-60694689D01*
X127399542Y-60668103D01*
X127372552Y-60646005D01*
X127358088Y-60625616D01*
X127352487Y-60604160D01*
X127351854Y-60590177D01*
X127354040Y-60565512D01*
X127363079Y-60543898D01*
X127382697Y-60522422D01*
X127416617Y-60498170D01*
X127468562Y-60468230D01*
X127542258Y-60429687D01*
X127584180Y-60408422D01*
X127650994Y-60373928D01*
X127706401Y-60343844D01*
X127745727Y-60320823D01*
X127764296Y-60307520D01*
X127765069Y-60305711D01*
X127750455Y-60297120D01*
X127712507Y-60277886D01*
X127655196Y-60249935D01*
X127582496Y-60215193D01*
X127498376Y-60175587D01*
X127456594Y-60156104D01*
X127348763Y-60105420D01*
X127265790Y-60064607D01*
X127204966Y-60031546D01*
X127163585Y-60004119D01*
X127138940Y-59980208D01*
X127128324Y-59957692D01*
X127129030Y-59934453D01*
X127138350Y-59908372D01*
X127138806Y-59907366D01*
X127165834Y-59871948D01*
X127193636Y-59852434D01*
X127206672Y-59848616D01*
X127223992Y-59848805D01*
G36*
X127223992Y-59848805D02*
G01*
X127248667Y-59854178D01*
X127283764Y-59865912D01*
X127332353Y-59885187D01*
X127397502Y-59913178D01*
X127482281Y-59951064D01*
X127589759Y-60000022D01*
X127648503Y-60026969D01*
X127753373Y-60075630D01*
X127849814Y-60121310D01*
X127934298Y-60162266D01*
X128003300Y-60196754D01*
X128053294Y-60223031D01*
X128080754Y-60239354D01*
X128084547Y-60242584D01*
X128101280Y-60283911D01*
X128099039Y-60330591D01*
X128078687Y-60368030D01*
X128077032Y-60369556D01*
X128054486Y-60384449D01*
X128010571Y-60409431D01*
X127950940Y-60441421D01*
X127881246Y-60477340D01*
X127855563Y-60490248D01*
X127660397Y-60587686D01*
X127872407Y-60693894D01*
X127945661Y-60731803D01*
X128009190Y-60766973D01*
X128058131Y-60796532D01*
X128087622Y-60817606D01*
X128093876Y-60824748D01*
X128102345Y-60880262D01*
X128084547Y-60926071D01*
X128065525Y-60939546D01*
X128023249Y-60962864D01*
X127961880Y-60994123D01*
X127885576Y-61031420D01*
X127798499Y-61072854D01*
X127704807Y-61116522D01*
X127608661Y-61160522D01*
X127514221Y-61202952D01*
X127425645Y-61241910D01*
X127347096Y-61275493D01*
X127282731Y-61301799D01*
X127236711Y-61318926D01*
X127213197Y-61324971D01*
X127212345Y-61324909D01*
X127182756Y-61310200D01*
X127152620Y-61280798D01*
X127151308Y-61279067D01*
X127130882Y-61242930D01*
X127131080Y-61209506D01*
X127134931Y-61196978D01*
X127143253Y-61181713D01*
X127159625Y-61165502D01*
X127187442Y-61146401D01*
X127230100Y-61122465D01*
X127290995Y-61091749D01*
X127373525Y-61052309D01*
X127449707Y-61016742D01*
X127538014Y-60975823D01*
X127617426Y-60939156D01*
X127683796Y-60908646D01*
X127732975Y-60886198D01*
X127760813Y-60873717D01*
X127765168Y-60871897D01*
X127758049Y-60863710D01*
X127728241Y-60844895D01*
X127680096Y-60817954D01*
X127617963Y-60785392D01*
X127592328Y-60772434D01*
X127505765Y-60728540D01*
X127442725Y-60694689D01*
X127399542Y-60668103D01*
X127372552Y-60646005D01*
X127358088Y-60625616D01*
X127352487Y-60604160D01*
X127351854Y-60590177D01*
X127354040Y-60565512D01*
X127363079Y-60543898D01*
X127382697Y-60522422D01*
X127416617Y-60498170D01*
X127468562Y-60468230D01*
X127542258Y-60429687D01*
X127584180Y-60408422D01*
X127650994Y-60373928D01*
X127706401Y-60343844D01*
X127745727Y-60320823D01*
X127764296Y-60307520D01*
X127765069Y-60305711D01*
X127750455Y-60297120D01*
X127712507Y-60277886D01*
X127655196Y-60249935D01*
X127582496Y-60215193D01*
X127498376Y-60175587D01*
X127456594Y-60156104D01*
X127348763Y-60105420D01*
X127265790Y-60064607D01*
X127204966Y-60031546D01*
X127163585Y-60004119D01*
X127138940Y-59980208D01*
X127128324Y-59957692D01*
X127129030Y-59934453D01*
X127138350Y-59908372D01*
X127138806Y-59907366D01*
X127165834Y-59871948D01*
X127193636Y-59852434D01*
X127206672Y-59848616D01*
X127223992Y-59848805D01*
G37*
X127870169Y-69432702D02*
X127909507Y-69448181D01*
X127944424Y-69474969D01*
X127997798Y-69529413D01*
X128038502Y-69590124D01*
X128067864Y-69661612D01*
X128087211Y-69748390D01*
X128097870Y-69854968D01*
X128101169Y-69985857D01*
X128101113Y-70007469D01*
X128099304Y-70094752D01*
X128095193Y-70181313D01*
X128089370Y-70257716D01*
X128082425Y-70314524D01*
X128081628Y-70319118D01*
X128068248Y-70375599D01*
X128051346Y-70423506D01*
X128035895Y-70450627D01*
X127995130Y-70475865D01*
X127947662Y-70477623D01*
X127905359Y-70455866D01*
X127900576Y-70450998D01*
X127886363Y-70430876D01*
X127880240Y-70405712D01*
X127881282Y-70366767D01*
X127886698Y-70319489D01*
X127891537Y-70266659D01*
X127895619Y-70192602D01*
X127898582Y-70106145D01*
X127900061Y-70016117D01*
X127900158Y-69992439D01*
X127899794Y-69902076D01*
X127898040Y-69835943D01*
X127894287Y-69788221D01*
X127887927Y-69753092D01*
X127878351Y-69724736D01*
X127870375Y-69707695D01*
X127848229Y-69670250D01*
X127828172Y-69646375D01*
X127822487Y-69642886D01*
X127799009Y-69650247D01*
X127776281Y-69685241D01*
X127755334Y-69745442D01*
X127737200Y-69828425D01*
X127733161Y-69852874D01*
X127713103Y-69980576D01*
X127696338Y-70082494D01*
X127681647Y-70162560D01*
X127667812Y-70224708D01*
X127653615Y-70272872D01*
X127637837Y-70310986D01*
X127619260Y-70342984D01*
X127596666Y-70372798D01*
X127568837Y-70404364D01*
X127559080Y-70414986D01*
X127522666Y-70452227D01*
X127493816Y-70471941D01*
X127460802Y-70479653D01*
X127419199Y-70480901D01*
X127337615Y-70467169D01*
X127268298Y-70426132D01*
X127211472Y-70358024D01*
X127167361Y-70263081D01*
X127147576Y-70195338D01*
X127134797Y-70121713D01*
X127127568Y-70033515D01*
X127125479Y-69936130D01*
X127128121Y-69834942D01*
X127135084Y-69735337D01*
X127145959Y-69642698D01*
X127160338Y-69562412D01*
X127177810Y-69499862D01*
X127197966Y-69460435D01*
X127203899Y-69454383D01*
X127249939Y-69433338D01*
X127297204Y-69439720D01*
X127337642Y-69472361D01*
X127338801Y-69473918D01*
X127351261Y-69493117D01*
X127357813Y-69513159D01*
X127358608Y-69541114D01*
X127353800Y-69584053D01*
X127343539Y-69649045D01*
X127342675Y-69654273D01*
X127330778Y-69751115D01*
X127324909Y-69855598D01*
X127324852Y-69960389D01*
X127330391Y-70058156D01*
X127341309Y-70141566D01*
X127357389Y-70203287D01*
X127359005Y-70207342D01*
X127384093Y-70252118D01*
X127409482Y-70267850D01*
X127434451Y-70255534D01*
X127458280Y-70216169D01*
X127480246Y-70150752D01*
X127499630Y-70060280D01*
X127508962Y-69999954D01*
X127526913Y-69874554D01*
X127543323Y-69774819D01*
X127559612Y-69696500D01*
X127577202Y-69635347D01*
X127597513Y-69587113D01*
X127621967Y-69547549D01*
X127651984Y-69512406D01*
X127681460Y-69484165D01*
X127722531Y-69450662D01*
X127757846Y-69434173D01*
X127801357Y-69429017D01*
X127817292Y-69428830D01*
X127870169Y-69432702D01*
G36*
X127870169Y-69432702D02*
G01*
X127909507Y-69448181D01*
X127944424Y-69474969D01*
X127997798Y-69529413D01*
X128038502Y-69590124D01*
X128067864Y-69661612D01*
X128087211Y-69748390D01*
X128097870Y-69854968D01*
X128101169Y-69985857D01*
X128101113Y-70007469D01*
X128099304Y-70094752D01*
X128095193Y-70181313D01*
X128089370Y-70257716D01*
X128082425Y-70314524D01*
X128081628Y-70319118D01*
X128068248Y-70375599D01*
X128051346Y-70423506D01*
X128035895Y-70450627D01*
X127995130Y-70475865D01*
X127947662Y-70477623D01*
X127905359Y-70455866D01*
X127900576Y-70450998D01*
X127886363Y-70430876D01*
X127880240Y-70405712D01*
X127881282Y-70366767D01*
X127886698Y-70319489D01*
X127891537Y-70266659D01*
X127895619Y-70192602D01*
X127898582Y-70106145D01*
X127900061Y-70016117D01*
X127900158Y-69992439D01*
X127899794Y-69902076D01*
X127898040Y-69835943D01*
X127894287Y-69788221D01*
X127887927Y-69753092D01*
X127878351Y-69724736D01*
X127870375Y-69707695D01*
X127848229Y-69670250D01*
X127828172Y-69646375D01*
X127822487Y-69642886D01*
X127799009Y-69650247D01*
X127776281Y-69685241D01*
X127755334Y-69745442D01*
X127737200Y-69828425D01*
X127733161Y-69852874D01*
X127713103Y-69980576D01*
X127696338Y-70082494D01*
X127681647Y-70162560D01*
X127667812Y-70224708D01*
X127653615Y-70272872D01*
X127637837Y-70310986D01*
X127619260Y-70342984D01*
X127596666Y-70372798D01*
X127568837Y-70404364D01*
X127559080Y-70414986D01*
X127522666Y-70452227D01*
X127493816Y-70471941D01*
X127460802Y-70479653D01*
X127419199Y-70480901D01*
X127337615Y-70467169D01*
X127268298Y-70426132D01*
X127211472Y-70358024D01*
X127167361Y-70263081D01*
X127147576Y-70195338D01*
X127134797Y-70121713D01*
X127127568Y-70033515D01*
X127125479Y-69936130D01*
X127128121Y-69834942D01*
X127135084Y-69735337D01*
X127145959Y-69642698D01*
X127160338Y-69562412D01*
X127177810Y-69499862D01*
X127197966Y-69460435D01*
X127203899Y-69454383D01*
X127249939Y-69433338D01*
X127297204Y-69439720D01*
X127337642Y-69472361D01*
X127338801Y-69473918D01*
X127351261Y-69493117D01*
X127357813Y-69513159D01*
X127358608Y-69541114D01*
X127353800Y-69584053D01*
X127343539Y-69649045D01*
X127342675Y-69654273D01*
X127330778Y-69751115D01*
X127324909Y-69855598D01*
X127324852Y-69960389D01*
X127330391Y-70058156D01*
X127341309Y-70141566D01*
X127357389Y-70203287D01*
X127359005Y-70207342D01*
X127384093Y-70252118D01*
X127409482Y-70267850D01*
X127434451Y-70255534D01*
X127458280Y-70216169D01*
X127480246Y-70150752D01*
X127499630Y-70060280D01*
X127508962Y-69999954D01*
X127526913Y-69874554D01*
X127543323Y-69774819D01*
X127559612Y-69696500D01*
X127577202Y-69635347D01*
X127597513Y-69587113D01*
X127621967Y-69547549D01*
X127651984Y-69512406D01*
X127681460Y-69484165D01*
X127722531Y-69450662D01*
X127757846Y-69434173D01*
X127801357Y-69429017D01*
X127817292Y-69428830D01*
X127870169Y-69432702D01*
G37*
X125435915Y-63406839D02*
X125502093Y-63541631D01*
X125554278Y-63650825D01*
X125595060Y-63741093D01*
X125627033Y-63819112D01*
X125652787Y-63891556D01*
X125674914Y-63965099D01*
X125696007Y-64046416D01*
X125714530Y-64124357D01*
X125728863Y-64193634D01*
X125739694Y-64266083D01*
X125747626Y-64348958D01*
X125753258Y-64449512D01*
X125757192Y-64574997D01*
X125758891Y-64659572D01*
X125760050Y-64780246D01*
X125759465Y-64895958D01*
X125757304Y-64999049D01*
X125753732Y-65081862D01*
X125748917Y-65136740D01*
X125748437Y-65139992D01*
X125686786Y-65424957D01*
X125593285Y-65692558D01*
X125467993Y-65942703D01*
X125310974Y-66175296D01*
X125122289Y-66390243D01*
X124902000Y-66587450D01*
X124706214Y-66730273D01*
X124449949Y-66882320D01*
X124179317Y-67005227D01*
X123892149Y-67099590D01*
X123586276Y-67166001D01*
X123259528Y-67205056D01*
X122927739Y-67217360D01*
X122606779Y-67207241D01*
X122310646Y-67175439D01*
X122034345Y-67120946D01*
X121772881Y-67042750D01*
X121521258Y-66939841D01*
X121495190Y-66927553D01*
X121251507Y-66792180D01*
X121019618Y-66625911D01*
X120804323Y-66433459D01*
X120610422Y-66219534D01*
X120442715Y-65988845D01*
X120319696Y-65773891D01*
X120223345Y-65556742D01*
X120153551Y-65339132D01*
X120108413Y-65112638D01*
X120086031Y-64868834D01*
X120082731Y-64723072D01*
X120089231Y-64513622D01*
X120110649Y-64317981D01*
X120148985Y-64128438D01*
X120206238Y-63937283D01*
X120284409Y-63736804D01*
X120385496Y-63519292D01*
X120405076Y-63480120D01*
X120449362Y-63390228D01*
X120489239Y-63305447D01*
X120520898Y-63234145D01*
X120540532Y-63184690D01*
X120543004Y-63177092D01*
X120564817Y-63104286D01*
X121038944Y-63430197D01*
X121154823Y-63509877D01*
X121260694Y-63582728D01*
X121352962Y-63646270D01*
X121428033Y-63698028D01*
X121482313Y-63735523D01*
X121512207Y-63756277D01*
X121516941Y-63759649D01*
X121507042Y-63773345D01*
X121477285Y-63807057D01*
X121433073Y-63854756D01*
X121408084Y-63881080D01*
X121289456Y-64030228D01*
X121199313Y-64197732D01*
X121149936Y-64342072D01*
X121134429Y-64428717D01*
X121124979Y-64537204D01*
X121121761Y-64654773D01*
X121124951Y-64768666D01*
X121134724Y-64866121D01*
X121142209Y-64905010D01*
X121202512Y-65080288D01*
X121294590Y-65238235D01*
X121418273Y-65378732D01*
X121573393Y-65501665D01*
X121759781Y-65606915D01*
X121977270Y-65694365D01*
X122225692Y-65763900D01*
X122438357Y-65805225D01*
X122532241Y-65816006D01*
X122653524Y-65823352D01*
X122793493Y-65827333D01*
X122943431Y-65828021D01*
X123094622Y-65825486D01*
X123238351Y-65819800D01*
X123365903Y-65811033D01*
X123468562Y-65799256D01*
X123484401Y-65796707D01*
X123739536Y-65740519D01*
X123965342Y-65663964D01*
X124162831Y-65566574D01*
X124333014Y-65447886D01*
X124425022Y-65363637D01*
X124549943Y-65212230D01*
X124642540Y-65046183D01*
X124702309Y-64868299D01*
X124728746Y-64681378D01*
X124721348Y-64488222D01*
X124679611Y-64291631D01*
X124638771Y-64175403D01*
X124556990Y-64014562D01*
X124439678Y-63848787D01*
X124360345Y-63755927D01*
X124314429Y-63703786D01*
X124280742Y-63662820D01*
X124264510Y-63639502D01*
X124264015Y-63636607D01*
X124280601Y-63626200D01*
X124324432Y-63599233D01*
X124391748Y-63558004D01*
X124478794Y-63504811D01*
X124581810Y-63441950D01*
X124697041Y-63371719D01*
X124761231Y-63332628D01*
X125251677Y-63034036D01*
X125435915Y-63406839D01*
G36*
X125435915Y-63406839D02*
G01*
X125502093Y-63541631D01*
X125554278Y-63650825D01*
X125595060Y-63741093D01*
X125627033Y-63819112D01*
X125652787Y-63891556D01*
X125674914Y-63965099D01*
X125696007Y-64046416D01*
X125714530Y-64124357D01*
X125728863Y-64193634D01*
X125739694Y-64266083D01*
X125747626Y-64348958D01*
X125753258Y-64449512D01*
X125757192Y-64574997D01*
X125758891Y-64659572D01*
X125760050Y-64780246D01*
X125759465Y-64895958D01*
X125757304Y-64999049D01*
X125753732Y-65081862D01*
X125748917Y-65136740D01*
X125748437Y-65139992D01*
X125686786Y-65424957D01*
X125593285Y-65692558D01*
X125467993Y-65942703D01*
X125310974Y-66175296D01*
X125122289Y-66390243D01*
X124902000Y-66587450D01*
X124706214Y-66730273D01*
X124449949Y-66882320D01*
X124179317Y-67005227D01*
X123892149Y-67099590D01*
X123586276Y-67166001D01*
X123259528Y-67205056D01*
X122927739Y-67217360D01*
X122606779Y-67207241D01*
X122310646Y-67175439D01*
X122034345Y-67120946D01*
X121772881Y-67042750D01*
X121521258Y-66939841D01*
X121495190Y-66927553D01*
X121251507Y-66792180D01*
X121019618Y-66625911D01*
X120804323Y-66433459D01*
X120610422Y-66219534D01*
X120442715Y-65988845D01*
X120319696Y-65773891D01*
X120223345Y-65556742D01*
X120153551Y-65339132D01*
X120108413Y-65112638D01*
X120086031Y-64868834D01*
X120082731Y-64723072D01*
X120089231Y-64513622D01*
X120110649Y-64317981D01*
X120148985Y-64128438D01*
X120206238Y-63937283D01*
X120284409Y-63736804D01*
X120385496Y-63519292D01*
X120405076Y-63480120D01*
X120449362Y-63390228D01*
X120489239Y-63305447D01*
X120520898Y-63234145D01*
X120540532Y-63184690D01*
X120543004Y-63177092D01*
X120564817Y-63104286D01*
X121038944Y-63430197D01*
X121154823Y-63509877D01*
X121260694Y-63582728D01*
X121352962Y-63646270D01*
X121428033Y-63698028D01*
X121482313Y-63735523D01*
X121512207Y-63756277D01*
X121516941Y-63759649D01*
X121507042Y-63773345D01*
X121477285Y-63807057D01*
X121433073Y-63854756D01*
X121408084Y-63881080D01*
X121289456Y-64030228D01*
X121199313Y-64197732D01*
X121149936Y-64342072D01*
X121134429Y-64428717D01*
X121124979Y-64537204D01*
X121121761Y-64654773D01*
X121124951Y-64768666D01*
X121134724Y-64866121D01*
X121142209Y-64905010D01*
X121202512Y-65080288D01*
X121294590Y-65238235D01*
X121418273Y-65378732D01*
X121573393Y-65501665D01*
X121759781Y-65606915D01*
X121977270Y-65694365D01*
X122225692Y-65763900D01*
X122438357Y-65805225D01*
X122532241Y-65816006D01*
X122653524Y-65823352D01*
X122793493Y-65827333D01*
X122943431Y-65828021D01*
X123094622Y-65825486D01*
X123238351Y-65819800D01*
X123365903Y-65811033D01*
X123468562Y-65799256D01*
X123484401Y-65796707D01*
X123739536Y-65740519D01*
X123965342Y-65663964D01*
X124162831Y-65566574D01*
X124333014Y-65447886D01*
X124425022Y-65363637D01*
X124549943Y-65212230D01*
X124642540Y-65046183D01*
X124702309Y-64868299D01*
X124728746Y-64681378D01*
X124721348Y-64488222D01*
X124679611Y-64291631D01*
X124638771Y-64175403D01*
X124556990Y-64014562D01*
X124439678Y-63848787D01*
X124360345Y-63755927D01*
X124314429Y-63703786D01*
X124280742Y-63662820D01*
X124264510Y-63639502D01*
X124264015Y-63636607D01*
X124280601Y-63626200D01*
X124324432Y-63599233D01*
X124391748Y-63558004D01*
X124478794Y-63504811D01*
X124581810Y-63441950D01*
X124697041Y-63371719D01*
X124761231Y-63332628D01*
X125251677Y-63034036D01*
X125435915Y-63406839D01*
G37*
X125685929Y-56341072D02*
X125533295Y-56350143D01*
X125460045Y-56355082D01*
X125417696Y-56360229D01*
X125400892Y-56367214D01*
X125404277Y-56377663D01*
X125413960Y-56386429D01*
X125449229Y-56424612D01*
X125494563Y-56486845D01*
X125544546Y-56564359D01*
X125593761Y-56648387D01*
X125636791Y-56730161D01*
X125665101Y-56792948D01*
X125711624Y-56940046D01*
X125744579Y-57108820D01*
X125762707Y-57286809D01*
X125764750Y-57461553D01*
X125749447Y-57620593D01*
X125749009Y-57623212D01*
X125694402Y-57840832D01*
X125607401Y-58044545D01*
X125489876Y-58232387D01*
X125343697Y-58402393D01*
X125170734Y-58552598D01*
X124972857Y-58681036D01*
X124751936Y-58785743D01*
X124588286Y-58842754D01*
X124451375Y-58880349D01*
X124318798Y-58908229D01*
X124182502Y-58927247D01*
X124034433Y-58938255D01*
X123866537Y-58942105D01*
X123729440Y-58940400D01*
X123672374Y-58939690D01*
X123373713Y-58924395D01*
X123104325Y-58893642D01*
X122860285Y-58846619D01*
X122637670Y-58782518D01*
X122432556Y-58700528D01*
X122371746Y-58671270D01*
X122173440Y-58553419D01*
X121997212Y-58411004D01*
X121845908Y-58247371D01*
X121722371Y-58065869D01*
X121629447Y-57869847D01*
X121591115Y-57752345D01*
X121568359Y-57636946D01*
X121554820Y-57498093D01*
X121550492Y-57347426D01*
X121555368Y-57196587D01*
X121569444Y-57057215D01*
X121590025Y-56952910D01*
X122494622Y-56952910D01*
X122509173Y-57085526D01*
X122550632Y-57205560D01*
X122618763Y-57307812D01*
X122651466Y-57340805D01*
X122758619Y-57420333D01*
X122888327Y-57484701D01*
X123042814Y-57534447D01*
X123224302Y-57570109D01*
X123435015Y-57592225D01*
X123677175Y-57601333D01*
X123729440Y-57601641D01*
X123959329Y-57595306D01*
X124157111Y-57575321D01*
X124324539Y-57541073D01*
X124463369Y-57491945D01*
X124575358Y-57427324D01*
X124662259Y-57346595D01*
X124723692Y-57253409D01*
X124746626Y-57204920D01*
X124760375Y-57162866D01*
X124766666Y-57115980D01*
X124767222Y-57052996D01*
X124764773Y-56985143D01*
X124753004Y-56851705D01*
X124729955Y-56746168D01*
X124718410Y-56713000D01*
X124684311Y-56637265D01*
X124641491Y-56557386D01*
X124620057Y-56522500D01*
X124560556Y-56431786D01*
X122674584Y-56431786D01*
X122614771Y-56531572D01*
X122547185Y-56670733D01*
X122507214Y-56812913D01*
X122494622Y-56952910D01*
X121590025Y-56952910D01*
X121591525Y-56945309D01*
X121634828Y-56812116D01*
X121690511Y-56683021D01*
X121752936Y-56570072D01*
X121795303Y-56509957D01*
X121826807Y-56468490D01*
X121845990Y-56439455D01*
X121848714Y-56432850D01*
X121831163Y-56430802D01*
X121780875Y-56428893D01*
X121701400Y-56427164D01*
X121596286Y-56425659D01*
X121469083Y-56424419D01*
X121323339Y-56423487D01*
X121162603Y-56422905D01*
X120998884Y-56422714D01*
X120789188Y-56422821D01*
X120612396Y-56423342D01*
X120465126Y-56424584D01*
X120343997Y-56426852D01*
X120245627Y-56430450D01*
X120166634Y-56435683D01*
X120103638Y-56442856D01*
X120053255Y-56452274D01*
X120012105Y-56464242D01*
X119976806Y-56479065D01*
X119943977Y-56497048D01*
X119910235Y-56518495D01*
X119906057Y-56521255D01*
X119862356Y-56548917D01*
X119832305Y-56565618D01*
X119825967Y-56567857D01*
X119823967Y-56550357D01*
X119822340Y-56500426D01*
X119821112Y-56421915D01*
X119820311Y-56318677D01*
X119819961Y-56194564D01*
X119820089Y-56053429D01*
X119820723Y-55899124D01*
X119821042Y-55846679D01*
X119825786Y-55125500D01*
X122592572Y-55116429D01*
X122967756Y-55115231D01*
X123308417Y-55114168D01*
X123616318Y-55113173D01*
X123893221Y-55112177D01*
X124140888Y-55111112D01*
X124361081Y-55109909D01*
X124555562Y-55108501D01*
X124726094Y-55106818D01*
X124874440Y-55104794D01*
X125002361Y-55102359D01*
X125111620Y-55099446D01*
X125203979Y-55095985D01*
X125281200Y-55091910D01*
X125345046Y-55087151D01*
X125397278Y-55081640D01*
X125439660Y-55075309D01*
X125473953Y-55068090D01*
X125501920Y-55059915D01*
X125525324Y-55050715D01*
X125545925Y-55040423D01*
X125565487Y-55028969D01*
X125585772Y-55016285D01*
X125608543Y-55002305D01*
X125613393Y-54999439D01*
X125695433Y-54951360D01*
X125685929Y-56341072D01*
G36*
X125685929Y-56341072D02*
G01*
X125533295Y-56350143D01*
X125460045Y-56355082D01*
X125417696Y-56360229D01*
X125400892Y-56367214D01*
X125404277Y-56377663D01*
X125413960Y-56386429D01*
X125449229Y-56424612D01*
X125494563Y-56486845D01*
X125544546Y-56564359D01*
X125593761Y-56648387D01*
X125636791Y-56730161D01*
X125665101Y-56792948D01*
X125711624Y-56940046D01*
X125744579Y-57108820D01*
X125762707Y-57286809D01*
X125764750Y-57461553D01*
X125749447Y-57620593D01*
X125749009Y-57623212D01*
X125694402Y-57840832D01*
X125607401Y-58044545D01*
X125489876Y-58232387D01*
X125343697Y-58402393D01*
X125170734Y-58552598D01*
X124972857Y-58681036D01*
X124751936Y-58785743D01*
X124588286Y-58842754D01*
X124451375Y-58880349D01*
X124318798Y-58908229D01*
X124182502Y-58927247D01*
X124034433Y-58938255D01*
X123866537Y-58942105D01*
X123729440Y-58940400D01*
X123672374Y-58939690D01*
X123373713Y-58924395D01*
X123104325Y-58893642D01*
X122860285Y-58846619D01*
X122637670Y-58782518D01*
X122432556Y-58700528D01*
X122371746Y-58671270D01*
X122173440Y-58553419D01*
X121997212Y-58411004D01*
X121845908Y-58247371D01*
X121722371Y-58065869D01*
X121629447Y-57869847D01*
X121591115Y-57752345D01*
X121568359Y-57636946D01*
X121554820Y-57498093D01*
X121550492Y-57347426D01*
X121555368Y-57196587D01*
X121569444Y-57057215D01*
X121590025Y-56952910D01*
X122494622Y-56952910D01*
X122509173Y-57085526D01*
X122550632Y-57205560D01*
X122618763Y-57307812D01*
X122651466Y-57340805D01*
X122758619Y-57420333D01*
X122888327Y-57484701D01*
X123042814Y-57534447D01*
X123224302Y-57570109D01*
X123435015Y-57592225D01*
X123677175Y-57601333D01*
X123729440Y-57601641D01*
X123959329Y-57595306D01*
X124157111Y-57575321D01*
X124324539Y-57541073D01*
X124463369Y-57491945D01*
X124575358Y-57427324D01*
X124662259Y-57346595D01*
X124723692Y-57253409D01*
X124746626Y-57204920D01*
X124760375Y-57162866D01*
X124766666Y-57115980D01*
X124767222Y-57052996D01*
X124764773Y-56985143D01*
X124753004Y-56851705D01*
X124729955Y-56746168D01*
X124718410Y-56713000D01*
X124684311Y-56637265D01*
X124641491Y-56557386D01*
X124620057Y-56522500D01*
X124560556Y-56431786D01*
X122674584Y-56431786D01*
X122614771Y-56531572D01*
X122547185Y-56670733D01*
X122507214Y-56812913D01*
X122494622Y-56952910D01*
X121590025Y-56952910D01*
X121591525Y-56945309D01*
X121634828Y-56812116D01*
X121690511Y-56683021D01*
X121752936Y-56570072D01*
X121795303Y-56509957D01*
X121826807Y-56468490D01*
X121845990Y-56439455D01*
X121848714Y-56432850D01*
X121831163Y-56430802D01*
X121780875Y-56428893D01*
X121701400Y-56427164D01*
X121596286Y-56425659D01*
X121469083Y-56424419D01*
X121323339Y-56423487D01*
X121162603Y-56422905D01*
X120998884Y-56422714D01*
X120789188Y-56422821D01*
X120612396Y-56423342D01*
X120465126Y-56424584D01*
X120343997Y-56426852D01*
X120245627Y-56430450D01*
X120166634Y-56435683D01*
X120103638Y-56442856D01*
X120053255Y-56452274D01*
X120012105Y-56464242D01*
X119976806Y-56479065D01*
X119943977Y-56497048D01*
X119910235Y-56518495D01*
X119906057Y-56521255D01*
X119862356Y-56548917D01*
X119832305Y-56565618D01*
X119825967Y-56567857D01*
X119823967Y-56550357D01*
X119822340Y-56500426D01*
X119821112Y-56421915D01*
X119820311Y-56318677D01*
X119819961Y-56194564D01*
X119820089Y-56053429D01*
X119820723Y-55899124D01*
X119821042Y-55846679D01*
X119825786Y-55125500D01*
X122592572Y-55116429D01*
X122967756Y-55115231D01*
X123308417Y-55114168D01*
X123616318Y-55113173D01*
X123893221Y-55112177D01*
X124140888Y-55111112D01*
X124361081Y-55109909D01*
X124555562Y-55108501D01*
X124726094Y-55106818D01*
X124874440Y-55104794D01*
X125002361Y-55102359D01*
X125111620Y-55099446D01*
X125203979Y-55095985D01*
X125281200Y-55091910D01*
X125345046Y-55087151D01*
X125397278Y-55081640D01*
X125439660Y-55075309D01*
X125473953Y-55068090D01*
X125501920Y-55059915D01*
X125525324Y-55050715D01*
X125545925Y-55040423D01*
X125565487Y-55028969D01*
X125585772Y-55016285D01*
X125608543Y-55002305D01*
X125613393Y-54999439D01*
X125695433Y-54951360D01*
X125685929Y-56341072D01*
G37*
X125688454Y-59288625D02*
X125690205Y-59338426D01*
X125691758Y-59416579D01*
X125693062Y-59519118D01*
X125694070Y-59642078D01*
X125694731Y-59781490D01*
X125694997Y-59933389D01*
X125695000Y-59951500D01*
X125695000Y-60631857D01*
X125540786Y-60631857D01*
X125471094Y-60633018D01*
X125417794Y-60636113D01*
X125389217Y-60640568D01*
X125386572Y-60642537D01*
X125397653Y-60660545D01*
X125426736Y-60697607D01*
X125467579Y-60745778D01*
X125468524Y-60746859D01*
X125533971Y-60834765D01*
X125599688Y-60945783D01*
X125659219Y-61067369D01*
X125706109Y-61186979D01*
X125722133Y-61239643D01*
X125742485Y-61344449D01*
X125755472Y-61473050D01*
X125760909Y-61613675D01*
X125758611Y-61754552D01*
X125748392Y-61883907D01*
X125733689Y-61974429D01*
X125668499Y-62196420D01*
X125575594Y-62396271D01*
X125456126Y-62572681D01*
X125311247Y-62724350D01*
X125142110Y-62849976D01*
X124949867Y-62948259D01*
X124833214Y-62990659D01*
X124719833Y-63017232D01*
X124583722Y-63034842D01*
X124437437Y-63042990D01*
X124416151Y-63042722D01*
X124293533Y-63041177D01*
X124164565Y-63028904D01*
X124112460Y-63019330D01*
X123918997Y-62958199D01*
X123740993Y-62865243D01*
X123580155Y-62742217D01*
X123438190Y-62590876D01*
X123316806Y-62412975D01*
X123217709Y-62210268D01*
X123157533Y-62037929D01*
X123125919Y-61922747D01*
X123101354Y-61812577D01*
X123083039Y-61700281D01*
X123070178Y-61578725D01*
X123061972Y-61440771D01*
X123057624Y-61279285D01*
X123056400Y-61133285D01*
X123056070Y-61012857D01*
X123890298Y-61012857D01*
X123892246Y-61134937D01*
X123898041Y-61229251D01*
X123908475Y-61304193D01*
X123923714Y-61366097D01*
X123981784Y-61519651D01*
X124053179Y-61640068D01*
X124139039Y-61728390D01*
X124240507Y-61785661D01*
X124358725Y-61812922D01*
X124416151Y-61815679D01*
X124524850Y-61805504D01*
X124615185Y-61771622D01*
X124698995Y-61709000D01*
X124723571Y-61684948D01*
X124790011Y-61599449D01*
X124832574Y-61500627D01*
X124853177Y-61382232D01*
X124854694Y-61257555D01*
X124844677Y-61139302D01*
X124825085Y-61048761D01*
X124810370Y-61009440D01*
X124770265Y-60938568D01*
X124713863Y-60863475D01*
X124650561Y-60794962D01*
X124589755Y-60743828D01*
X124567449Y-60730250D01*
X124536212Y-60719695D01*
X124486507Y-60712190D01*
X124413587Y-60707387D01*
X124312703Y-60704935D01*
X124216689Y-60704429D01*
X124104750Y-60704772D01*
X124023809Y-60706157D01*
X123968585Y-60709119D01*
X123933794Y-60714192D01*
X123914154Y-60721910D01*
X123904380Y-60732808D01*
X123902824Y-60736179D01*
X123898029Y-60765471D01*
X123894108Y-60823244D01*
X123891414Y-60901696D01*
X123890299Y-60993026D01*
X123890298Y-61012857D01*
X123056070Y-61012857D01*
X123055215Y-60700355D01*
X122925080Y-60708649D01*
X122783883Y-60732199D01*
X122662518Y-60782297D01*
X122564017Y-60856809D01*
X122491409Y-60953601D01*
X122455979Y-61038829D01*
X122433650Y-61160944D01*
X122430443Y-61306317D01*
X122445177Y-61468133D01*
X122476670Y-61639578D01*
X122523740Y-61813837D01*
X122585203Y-61984096D01*
X122641417Y-62107824D01*
X122670283Y-62167353D01*
X122690443Y-62212758D01*
X122698310Y-62235850D01*
X122698058Y-62237103D01*
X122680437Y-62245071D01*
X122633733Y-62264969D01*
X122562418Y-62294923D01*
X122470969Y-62333061D01*
X122363859Y-62377512D01*
X122254549Y-62422695D01*
X121816740Y-62603333D01*
X121795636Y-62474845D01*
X121785047Y-62419154D01*
X121767263Y-62335436D01*
X121743898Y-62230861D01*
X121716565Y-62112601D01*
X121686881Y-61987828D01*
X121674818Y-61938143D01*
X121624962Y-61723193D01*
X121587584Y-61535005D01*
X121561927Y-61366554D01*
X121547235Y-61210814D01*
X121542755Y-61060760D01*
X121547730Y-60909368D01*
X121554535Y-60819477D01*
X121588753Y-60562285D01*
X121643331Y-60334515D01*
X121719020Y-60135057D01*
X121816570Y-59962803D01*
X121936732Y-59816641D01*
X122080258Y-59695464D01*
X122247898Y-59598161D01*
X122429286Y-59527109D01*
X122487146Y-59509073D01*
X122541329Y-59493368D01*
X122594752Y-59479808D01*
X122650333Y-59468208D01*
X122710988Y-59458383D01*
X122779635Y-59450147D01*
X122859190Y-59443316D01*
X122952572Y-59437705D01*
X123062696Y-59433128D01*
X123192481Y-59429400D01*
X123344842Y-59426335D01*
X123522698Y-59423750D01*
X123728965Y-59421458D01*
X123966561Y-59419275D01*
X124152857Y-59417714D01*
X125431929Y-59407215D01*
X125555018Y-59339179D01*
X125614317Y-59306962D01*
X125660377Y-59282988D01*
X125684893Y-59271550D01*
X125686553Y-59271143D01*
X125688454Y-59288625D01*
G36*
X125688454Y-59288625D02*
G01*
X125690205Y-59338426D01*
X125691758Y-59416579D01*
X125693062Y-59519118D01*
X125694070Y-59642078D01*
X125694731Y-59781490D01*
X125694997Y-59933389D01*
X125695000Y-59951500D01*
X125695000Y-60631857D01*
X125540786Y-60631857D01*
X125471094Y-60633018D01*
X125417794Y-60636113D01*
X125389217Y-60640568D01*
X125386572Y-60642537D01*
X125397653Y-60660545D01*
X125426736Y-60697607D01*
X125467579Y-60745778D01*
X125468524Y-60746859D01*
X125533971Y-60834765D01*
X125599688Y-60945783D01*
X125659219Y-61067369D01*
X125706109Y-61186979D01*
X125722133Y-61239643D01*
X125742485Y-61344449D01*
X125755472Y-61473050D01*
X125760909Y-61613675D01*
X125758611Y-61754552D01*
X125748392Y-61883907D01*
X125733689Y-61974429D01*
X125668499Y-62196420D01*
X125575594Y-62396271D01*
X125456126Y-62572681D01*
X125311247Y-62724350D01*
X125142110Y-62849976D01*
X124949867Y-62948259D01*
X124833214Y-62990659D01*
X124719833Y-63017232D01*
X124583722Y-63034842D01*
X124437437Y-63042990D01*
X124416151Y-63042722D01*
X124293533Y-63041177D01*
X124164565Y-63028904D01*
X124112460Y-63019330D01*
X123918997Y-62958199D01*
X123740993Y-62865243D01*
X123580155Y-62742217D01*
X123438190Y-62590876D01*
X123316806Y-62412975D01*
X123217709Y-62210268D01*
X123157533Y-62037929D01*
X123125919Y-61922747D01*
X123101354Y-61812577D01*
X123083039Y-61700281D01*
X123070178Y-61578725D01*
X123061972Y-61440771D01*
X123057624Y-61279285D01*
X123056400Y-61133285D01*
X123056070Y-61012857D01*
X123890298Y-61012857D01*
X123892246Y-61134937D01*
X123898041Y-61229251D01*
X123908475Y-61304193D01*
X123923714Y-61366097D01*
X123981784Y-61519651D01*
X124053179Y-61640068D01*
X124139039Y-61728390D01*
X124240507Y-61785661D01*
X124358725Y-61812922D01*
X124416151Y-61815679D01*
X124524850Y-61805504D01*
X124615185Y-61771622D01*
X124698995Y-61709000D01*
X124723571Y-61684948D01*
X124790011Y-61599449D01*
X124832574Y-61500627D01*
X124853177Y-61382232D01*
X124854694Y-61257555D01*
X124844677Y-61139302D01*
X124825085Y-61048761D01*
X124810370Y-61009440D01*
X124770265Y-60938568D01*
X124713863Y-60863475D01*
X124650561Y-60794962D01*
X124589755Y-60743828D01*
X124567449Y-60730250D01*
X124536212Y-60719695D01*
X124486507Y-60712190D01*
X124413587Y-60707387D01*
X124312703Y-60704935D01*
X124216689Y-60704429D01*
X124104750Y-60704772D01*
X124023809Y-60706157D01*
X123968585Y-60709119D01*
X123933794Y-60714192D01*
X123914154Y-60721910D01*
X123904380Y-60732808D01*
X123902824Y-60736179D01*
X123898029Y-60765471D01*
X123894108Y-60823244D01*
X123891414Y-60901696D01*
X123890299Y-60993026D01*
X123890298Y-61012857D01*
X123056070Y-61012857D01*
X123055215Y-60700355D01*
X122925080Y-60708649D01*
X122783883Y-60732199D01*
X122662518Y-60782297D01*
X122564017Y-60856809D01*
X122491409Y-60953601D01*
X122455979Y-61038829D01*
X122433650Y-61160944D01*
X122430443Y-61306317D01*
X122445177Y-61468133D01*
X122476670Y-61639578D01*
X122523740Y-61813837D01*
X122585203Y-61984096D01*
X122641417Y-62107824D01*
X122670283Y-62167353D01*
X122690443Y-62212758D01*
X122698310Y-62235850D01*
X122698058Y-62237103D01*
X122680437Y-62245071D01*
X122633733Y-62264969D01*
X122562418Y-62294923D01*
X122470969Y-62333061D01*
X122363859Y-62377512D01*
X122254549Y-62422695D01*
X121816740Y-62603333D01*
X121795636Y-62474845D01*
X121785047Y-62419154D01*
X121767263Y-62335436D01*
X121743898Y-62230861D01*
X121716565Y-62112601D01*
X121686881Y-61987828D01*
X121674818Y-61938143D01*
X121624962Y-61723193D01*
X121587584Y-61535005D01*
X121561927Y-61366554D01*
X121547235Y-61210814D01*
X121542755Y-61060760D01*
X121547730Y-60909368D01*
X121554535Y-60819477D01*
X121588753Y-60562285D01*
X121643331Y-60334515D01*
X121719020Y-60135057D01*
X121816570Y-59962803D01*
X121936732Y-59816641D01*
X122080258Y-59695464D01*
X122247898Y-59598161D01*
X122429286Y-59527109D01*
X122487146Y-59509073D01*
X122541329Y-59493368D01*
X122594752Y-59479808D01*
X122650333Y-59468208D01*
X122710988Y-59458383D01*
X122779635Y-59450147D01*
X122859190Y-59443316D01*
X122952572Y-59437705D01*
X123062696Y-59433128D01*
X123192481Y-59429400D01*
X123344842Y-59426335D01*
X123522698Y-59423750D01*
X123728965Y-59421458D01*
X123966561Y-59419275D01*
X124152857Y-59417714D01*
X125431929Y-59407215D01*
X125555018Y-59339179D01*
X125614317Y-59306962D01*
X125660377Y-59282988D01*
X125684893Y-59271550D01*
X125686553Y-59271143D01*
X125688454Y-59288625D01*
G37*
X121043094Y-67600690D02*
X121334584Y-67600930D01*
X121656172Y-67601323D01*
X122009362Y-67601827D01*
X122395657Y-67602400D01*
X122816560Y-67602999D01*
X122867840Y-67603068D01*
X123291426Y-67603605D01*
X123680230Y-67604061D01*
X124035753Y-67604484D01*
X124359498Y-67604921D01*
X124652966Y-67605422D01*
X124917661Y-67606035D01*
X125155085Y-67606808D01*
X125366740Y-67607789D01*
X125554129Y-67609026D01*
X125718754Y-67610568D01*
X125862117Y-67612463D01*
X125985720Y-67614759D01*
X126091067Y-67617504D01*
X126179659Y-67620747D01*
X126253000Y-67624536D01*
X126312590Y-67628919D01*
X126359933Y-67633945D01*
X126396531Y-67639661D01*
X126423886Y-67646116D01*
X126443502Y-67653359D01*
X126456879Y-67661437D01*
X126465521Y-67670398D01*
X126470930Y-67680292D01*
X126474608Y-67691165D01*
X126478058Y-67703067D01*
X126482782Y-67716046D01*
X126484220Y-67719217D01*
X126487451Y-67729181D01*
X126490420Y-67745859D01*
X126493137Y-67770707D01*
X126495613Y-67805180D01*
X126497858Y-67850736D01*
X126499883Y-67908830D01*
X126501698Y-67980919D01*
X126503315Y-68068458D01*
X126504743Y-68172905D01*
X126505993Y-68295715D01*
X126507076Y-68438345D01*
X126508002Y-68602251D01*
X126508782Y-68788890D01*
X126509426Y-68999716D01*
X126509946Y-69236188D01*
X126510351Y-69499761D01*
X126510652Y-69791890D01*
X126510860Y-70114034D01*
X126510985Y-70467647D01*
X126511038Y-70854186D01*
X126511029Y-71275108D01*
X126511016Y-71411456D01*
X126510947Y-71841716D01*
X126510834Y-72237164D01*
X126510665Y-72599273D01*
X126510430Y-72929517D01*
X126510116Y-73229371D01*
X126509713Y-73500308D01*
X126509207Y-73743800D01*
X126508589Y-73961323D01*
X126507846Y-74154350D01*
X126506968Y-74324354D01*
X126505941Y-74472810D01*
X126504756Y-74601190D01*
X126503400Y-74710969D01*
X126501862Y-74803620D01*
X126500130Y-74880617D01*
X126498194Y-74943434D01*
X126496040Y-74993544D01*
X126493659Y-75032421D01*
X126491037Y-75061538D01*
X126488165Y-75082371D01*
X126485030Y-75096391D01*
X126482159Y-75104034D01*
X126476430Y-75117618D01*
X126472206Y-75130090D01*
X126467985Y-75141498D01*
X126462268Y-75151889D01*
X126453555Y-75161309D01*
X126440345Y-75169808D01*
X126421137Y-75177430D01*
X126394433Y-75184225D01*
X126358730Y-75190238D01*
X126312530Y-75195517D01*
X126254332Y-75200110D01*
X126182635Y-75204064D01*
X126095940Y-75207425D01*
X125992746Y-75210241D01*
X125871553Y-75212560D01*
X125730860Y-75214428D01*
X125676857Y-75214916D01*
X125569168Y-75215892D01*
X125384976Y-75217001D01*
X125176784Y-75217801D01*
X124943091Y-75218339D01*
X124682398Y-75218662D01*
X124393204Y-75218817D01*
X124074009Y-75218854D01*
X123723313Y-75218817D01*
X123339614Y-75218755D01*
X122921414Y-75218715D01*
X122838393Y-75218714D01*
X122415789Y-75218691D01*
X122027981Y-75218612D01*
X121673480Y-75218467D01*
X121350797Y-75218244D01*
X121058442Y-75217931D01*
X120794927Y-75217517D01*
X120558762Y-75216991D01*
X120348458Y-75216340D01*
X120162526Y-75215553D01*
X119999475Y-75214619D01*
X119857818Y-75213526D01*
X119736064Y-75212263D01*
X119632725Y-75210817D01*
X119546311Y-75209179D01*
X119475333Y-75207334D01*
X119418301Y-75205274D01*
X119373727Y-75202985D01*
X119340121Y-75200456D01*
X119315993Y-75197676D01*
X119299856Y-75194633D01*
X119290218Y-75191316D01*
X119289978Y-75191193D01*
X119275255Y-75184360D01*
X119261926Y-75178670D01*
X119249922Y-75172374D01*
X119239173Y-75163728D01*
X119229611Y-75150986D01*
X119221167Y-75132400D01*
X119213771Y-75106226D01*
X119207354Y-75070716D01*
X119201848Y-75024125D01*
X119197183Y-74964707D01*
X119193291Y-74890715D01*
X119190102Y-74800403D01*
X119187547Y-74692025D01*
X119185558Y-74563835D01*
X119184065Y-74414087D01*
X119182998Y-74241034D01*
X119182291Y-74042931D01*
X119181872Y-73818031D01*
X119181673Y-73564588D01*
X119181626Y-73280856D01*
X119181660Y-72965089D01*
X119181707Y-72615540D01*
X119181714Y-72452830D01*
X119181715Y-69988127D01*
X120161429Y-69988127D01*
X120161429Y-71824108D01*
X120269165Y-71823592D01*
X120348372Y-71828724D01*
X120421805Y-71848015D01*
X120491415Y-71877877D01*
X120530741Y-71897288D01*
X120569707Y-71918159D01*
X120610901Y-71942396D01*
X120656908Y-71971906D01*
X120710317Y-72008594D01*
X120773714Y-72054368D01*
X120849685Y-72111135D01*
X120940817Y-72180800D01*
X121049698Y-72265270D01*
X121178914Y-72366453D01*
X121331052Y-72486253D01*
X121508698Y-72626579D01*
X121528742Y-72642429D01*
X122228508Y-73195786D01*
X121453504Y-73201143D01*
X121221368Y-73202221D01*
X121024846Y-73201992D01*
X120863292Y-73200443D01*
X120736056Y-73197563D01*
X120642492Y-73193341D01*
X120581952Y-73187766D01*
X120570468Y-73185893D01*
X120449499Y-73156495D01*
X120340446Y-73117978D01*
X120252763Y-73074026D01*
X120215574Y-73047621D01*
X120161429Y-73002060D01*
X120161429Y-73866530D01*
X120161605Y-74072745D01*
X120162179Y-74245188D01*
X120163217Y-74386373D01*
X120164787Y-74498812D01*
X120166954Y-74585017D01*
X120169788Y-74647502D01*
X120173353Y-74688779D01*
X120177718Y-74711360D01*
X120182949Y-74717759D01*
X120184107Y-74717317D01*
X120211769Y-74698991D01*
X120255615Y-74668396D01*
X120277791Y-74652567D01*
X120299920Y-74636202D01*
X120319709Y-74621492D01*
X120339106Y-74608344D01*
X120360058Y-74596667D01*
X120384512Y-74586368D01*
X120414416Y-74577354D01*
X120451717Y-74569532D01*
X120498363Y-74562809D01*
X120556301Y-74557094D01*
X120627479Y-74552293D01*
X120713844Y-74548315D01*
X120817344Y-74545065D01*
X120939925Y-74542452D01*
X121083537Y-74540383D01*
X121250125Y-74538766D01*
X121441637Y-74537507D01*
X121660022Y-74536515D01*
X121907226Y-74535696D01*
X122185196Y-74534958D01*
X122495881Y-74534209D01*
X122781300Y-74533508D01*
X123099492Y-74532847D01*
X123403077Y-74532503D01*
X123690115Y-74532468D01*
X123958669Y-74532732D01*
X124206798Y-74533285D01*
X124432563Y-74534120D01*
X124634026Y-74535227D01*
X124809246Y-74536596D01*
X124956286Y-74538219D01*
X125073206Y-74540087D01*
X125158067Y-74542189D01*
X125208929Y-74544518D01*
X125214304Y-74544959D01*
X125337613Y-74561008D01*
X125436644Y-74586064D01*
X125523070Y-74624221D01*
X125608565Y-74679572D01*
X125617893Y-74686496D01*
X125676857Y-74730704D01*
X125676857Y-73019256D01*
X125626964Y-73052187D01*
X125575693Y-73084947D01*
X125526869Y-73112689D01*
X125477076Y-73135807D01*
X125422898Y-73154697D01*
X125360916Y-73169751D01*
X125287715Y-73181367D01*
X125199878Y-73189936D01*
X125093988Y-73195856D01*
X124966628Y-73199519D01*
X124814381Y-73201321D01*
X124633832Y-73201656D01*
X124421562Y-73200919D01*
X124342755Y-73200501D01*
X123497911Y-73195786D01*
X124226557Y-72660572D01*
X124433265Y-72508946D01*
X124613260Y-72377581D01*
X124768925Y-72265057D01*
X124902647Y-72169957D01*
X125016809Y-72090862D01*
X125113797Y-72026353D01*
X125195994Y-71975012D01*
X125265786Y-71935420D01*
X125325558Y-71906160D01*
X125377693Y-71885812D01*
X125424576Y-71872958D01*
X125468593Y-71866181D01*
X125512127Y-71864060D01*
X125557564Y-71865179D01*
X125563275Y-71865464D01*
X125676933Y-71871357D01*
X125676857Y-69995771D01*
X125536189Y-70135278D01*
X125497715Y-70173135D01*
X125460279Y-70209047D01*
X125421814Y-70244593D01*
X125380258Y-70281347D01*
X125333545Y-70320886D01*
X125279610Y-70364786D01*
X125216390Y-70414623D01*
X125141818Y-70471972D01*
X125053832Y-70538411D01*
X124950365Y-70615515D01*
X124829354Y-70704861D01*
X124688734Y-70808024D01*
X124526440Y-70926580D01*
X124340407Y-71062105D01*
X124128571Y-71216177D01*
X123954804Y-71342462D01*
X123736501Y-71500954D01*
X123545629Y-71639216D01*
X123380374Y-71758499D01*
X123238926Y-71860057D01*
X123119471Y-71945141D01*
X123020198Y-72015005D01*
X122939295Y-72070900D01*
X122874949Y-72114080D01*
X122825347Y-72145797D01*
X122788679Y-72167302D01*
X122763132Y-72179850D01*
X122746893Y-72184692D01*
X122738355Y-72183237D01*
X122715635Y-72165599D01*
X122667543Y-72127466D01*
X122596938Y-72071138D01*
X122506678Y-71998916D01*
X122399621Y-71913101D01*
X122278627Y-71815994D01*
X122146554Y-71709896D01*
X122006260Y-71597109D01*
X121860603Y-71479932D01*
X121712444Y-71360667D01*
X121631000Y-71295067D01*
X121564639Y-71241615D01*
X121420047Y-71125077D01*
X121281528Y-71013354D01*
X121151939Y-70908746D01*
X121034140Y-70813556D01*
X120930988Y-70730083D01*
X120845343Y-70660629D01*
X120780062Y-70607494D01*
X120742000Y-70576285D01*
X120599670Y-70455097D01*
X120471230Y-70338507D01*
X120360886Y-70230603D01*
X120272841Y-70135470D01*
X120218862Y-70067957D01*
X120161429Y-69988127D01*
X119181715Y-69988127D01*
X119181715Y-69848429D01*
X119335238Y-69848429D01*
X119522063Y-69832043D01*
X119694367Y-69782588D01*
X119853175Y-69699620D01*
X119894858Y-69666314D01*
X121631000Y-69666314D01*
X121753465Y-69598621D01*
X121875929Y-69530929D01*
X125431929Y-69530929D01*
X125554393Y-69598621D01*
X125676857Y-69666314D01*
X125676857Y-68865559D01*
X125676802Y-68674398D01*
X125676551Y-68516501D01*
X125675979Y-68388848D01*
X125674959Y-68288419D01*
X125673365Y-68212193D01*
X125671070Y-68157148D01*
X125667950Y-68120264D01*
X125663877Y-68098521D01*
X125658725Y-68088898D01*
X125652367Y-68088373D01*
X125644679Y-68093926D01*
X125644615Y-68093984D01*
X125611524Y-68116860D01*
X125557719Y-68147151D01*
X125504008Y-68173903D01*
X125395643Y-68224643D01*
X123513322Y-68229818D01*
X121631000Y-68234993D01*
X121631000Y-69666314D01*
X119894858Y-69666314D01*
X119999510Y-69582695D01*
X120039032Y-69543136D01*
X120151138Y-69400830D01*
X120232899Y-69243922D01*
X120284353Y-69077072D01*
X120305537Y-68904939D01*
X120296487Y-68732185D01*
X120257242Y-68563470D01*
X120187838Y-68403454D01*
X120088311Y-68256798D01*
X120028265Y-68190932D01*
X119881043Y-68068192D01*
X119719147Y-67978188D01*
X119544427Y-67921706D01*
X119358735Y-67899529D01*
X119340467Y-67899234D01*
X119181720Y-67898072D01*
X119181717Y-67828300D01*
X119190118Y-67766405D01*
X119210556Y-67709865D01*
X119212667Y-67706128D01*
X119219293Y-67693358D01*
X119224454Y-67681632D01*
X119229651Y-67670906D01*
X119236390Y-67661139D01*
X119246171Y-67652288D01*
X119260500Y-67644311D01*
X119280878Y-67637165D01*
X119308808Y-67630808D01*
X119345795Y-67625198D01*
X119393340Y-67620293D01*
X119452947Y-67616049D01*
X119526119Y-67612424D01*
X119614359Y-67609377D01*
X119719170Y-67606864D01*
X119842055Y-67604844D01*
X119984517Y-67603274D01*
X120148060Y-67602112D01*
X120334186Y-67601314D01*
X120544398Y-67600840D01*
X120780200Y-67600646D01*
X121043094Y-67600690D01*
G36*
X121043094Y-67600690D02*
G01*
X121334584Y-67600930D01*
X121656172Y-67601323D01*
X122009362Y-67601827D01*
X122395657Y-67602400D01*
X122816560Y-67602999D01*
X122867840Y-67603068D01*
X123291426Y-67603605D01*
X123680230Y-67604061D01*
X124035753Y-67604484D01*
X124359498Y-67604921D01*
X124652966Y-67605422D01*
X124917661Y-67606035D01*
X125155085Y-67606808D01*
X125366740Y-67607789D01*
X125554129Y-67609026D01*
X125718754Y-67610568D01*
X125862117Y-67612463D01*
X125985720Y-67614759D01*
X126091067Y-67617504D01*
X126179659Y-67620747D01*
X126253000Y-67624536D01*
X126312590Y-67628919D01*
X126359933Y-67633945D01*
X126396531Y-67639661D01*
X126423886Y-67646116D01*
X126443502Y-67653359D01*
X126456879Y-67661437D01*
X126465521Y-67670398D01*
X126470930Y-67680292D01*
X126474608Y-67691165D01*
X126478058Y-67703067D01*
X126482782Y-67716046D01*
X126484220Y-67719217D01*
X126487451Y-67729181D01*
X126490420Y-67745859D01*
X126493137Y-67770707D01*
X126495613Y-67805180D01*
X126497858Y-67850736D01*
X126499883Y-67908830D01*
X126501698Y-67980919D01*
X126503315Y-68068458D01*
X126504743Y-68172905D01*
X126505993Y-68295715D01*
X126507076Y-68438345D01*
X126508002Y-68602251D01*
X126508782Y-68788890D01*
X126509426Y-68999716D01*
X126509946Y-69236188D01*
X126510351Y-69499761D01*
X126510652Y-69791890D01*
X126510860Y-70114034D01*
X126510985Y-70467647D01*
X126511038Y-70854186D01*
X126511029Y-71275108D01*
X126511016Y-71411456D01*
X126510947Y-71841716D01*
X126510834Y-72237164D01*
X126510665Y-72599273D01*
X126510430Y-72929517D01*
X126510116Y-73229371D01*
X126509713Y-73500308D01*
X126509207Y-73743800D01*
X126508589Y-73961323D01*
X126507846Y-74154350D01*
X126506968Y-74324354D01*
X126505941Y-74472810D01*
X126504756Y-74601190D01*
X126503400Y-74710969D01*
X126501862Y-74803620D01*
X126500130Y-74880617D01*
X126498194Y-74943434D01*
X126496040Y-74993544D01*
X126493659Y-75032421D01*
X126491037Y-75061538D01*
X126488165Y-75082371D01*
X126485030Y-75096391D01*
X126482159Y-75104034D01*
X126476430Y-75117618D01*
X126472206Y-75130090D01*
X126467985Y-75141498D01*
X126462268Y-75151889D01*
X126453555Y-75161309D01*
X126440345Y-75169808D01*
X126421137Y-75177430D01*
X126394433Y-75184225D01*
X126358730Y-75190238D01*
X126312530Y-75195517D01*
X126254332Y-75200110D01*
X126182635Y-75204064D01*
X126095940Y-75207425D01*
X125992746Y-75210241D01*
X125871553Y-75212560D01*
X125730860Y-75214428D01*
X125676857Y-75214916D01*
X125569168Y-75215892D01*
X125384976Y-75217001D01*
X125176784Y-75217801D01*
X124943091Y-75218339D01*
X124682398Y-75218662D01*
X124393204Y-75218817D01*
X124074009Y-75218854D01*
X123723313Y-75218817D01*
X123339614Y-75218755D01*
X122921414Y-75218715D01*
X122838393Y-75218714D01*
X122415789Y-75218691D01*
X122027981Y-75218612D01*
X121673480Y-75218467D01*
X121350797Y-75218244D01*
X121058442Y-75217931D01*
X120794927Y-75217517D01*
X120558762Y-75216991D01*
X120348458Y-75216340D01*
X120162526Y-75215553D01*
X119999475Y-75214619D01*
X119857818Y-75213526D01*
X119736064Y-75212263D01*
X119632725Y-75210817D01*
X119546311Y-75209179D01*
X119475333Y-75207334D01*
X119418301Y-75205274D01*
X119373727Y-75202985D01*
X119340121Y-75200456D01*
X119315993Y-75197676D01*
X119299856Y-75194633D01*
X119290218Y-75191316D01*
X119289978Y-75191193D01*
X119275255Y-75184360D01*
X119261926Y-75178670D01*
X119249922Y-75172374D01*
X119239173Y-75163728D01*
X119229611Y-75150986D01*
X119221167Y-75132400D01*
X119213771Y-75106226D01*
X119207354Y-75070716D01*
X119201848Y-75024125D01*
X119197183Y-74964707D01*
X119193291Y-74890715D01*
X119190102Y-74800403D01*
X119187547Y-74692025D01*
X119185558Y-74563835D01*
X119184065Y-74414087D01*
X119182998Y-74241034D01*
X119182291Y-74042931D01*
X119181872Y-73818031D01*
X119181673Y-73564588D01*
X119181626Y-73280856D01*
X119181660Y-72965089D01*
X119181707Y-72615540D01*
X119181714Y-72452830D01*
X119181715Y-69988127D01*
X120161429Y-69988127D01*
X120161429Y-71824108D01*
X120269165Y-71823592D01*
X120348372Y-71828724D01*
X120421805Y-71848015D01*
X120491415Y-71877877D01*
X120530741Y-71897288D01*
X120569707Y-71918159D01*
X120610901Y-71942396D01*
X120656908Y-71971906D01*
X120710317Y-72008594D01*
X120773714Y-72054368D01*
X120849685Y-72111135D01*
X120940817Y-72180800D01*
X121049698Y-72265270D01*
X121178914Y-72366453D01*
X121331052Y-72486253D01*
X121508698Y-72626579D01*
X121528742Y-72642429D01*
X122228508Y-73195786D01*
X121453504Y-73201143D01*
X121221368Y-73202221D01*
X121024846Y-73201992D01*
X120863292Y-73200443D01*
X120736056Y-73197563D01*
X120642492Y-73193341D01*
X120581952Y-73187766D01*
X120570468Y-73185893D01*
X120449499Y-73156495D01*
X120340446Y-73117978D01*
X120252763Y-73074026D01*
X120215574Y-73047621D01*
X120161429Y-73002060D01*
X120161429Y-73866530D01*
X120161605Y-74072745D01*
X120162179Y-74245188D01*
X120163217Y-74386373D01*
X120164787Y-74498812D01*
X120166954Y-74585017D01*
X120169788Y-74647502D01*
X120173353Y-74688779D01*
X120177718Y-74711360D01*
X120182949Y-74717759D01*
X120184107Y-74717317D01*
X120211769Y-74698991D01*
X120255615Y-74668396D01*
X120277791Y-74652567D01*
X120299920Y-74636202D01*
X120319709Y-74621492D01*
X120339106Y-74608344D01*
X120360058Y-74596667D01*
X120384512Y-74586368D01*
X120414416Y-74577354D01*
X120451717Y-74569532D01*
X120498363Y-74562809D01*
X120556301Y-74557094D01*
X120627479Y-74552293D01*
X120713844Y-74548315D01*
X120817344Y-74545065D01*
X120939925Y-74542452D01*
X121083537Y-74540383D01*
X121250125Y-74538766D01*
X121441637Y-74537507D01*
X121660022Y-74536515D01*
X121907226Y-74535696D01*
X122185196Y-74534958D01*
X122495881Y-74534209D01*
X122781300Y-74533508D01*
X123099492Y-74532847D01*
X123403077Y-74532503D01*
X123690115Y-74532468D01*
X123958669Y-74532732D01*
X124206798Y-74533285D01*
X124432563Y-74534120D01*
X124634026Y-74535227D01*
X124809246Y-74536596D01*
X124956286Y-74538219D01*
X125073206Y-74540087D01*
X125158067Y-74542189D01*
X125208929Y-74544518D01*
X125214304Y-74544959D01*
X125337613Y-74561008D01*
X125436644Y-74586064D01*
X125523070Y-74624221D01*
X125608565Y-74679572D01*
X125617893Y-74686496D01*
X125676857Y-74730704D01*
X125676857Y-73019256D01*
X125626964Y-73052187D01*
X125575693Y-73084947D01*
X125526869Y-73112689D01*
X125477076Y-73135807D01*
X125422898Y-73154697D01*
X125360916Y-73169751D01*
X125287715Y-73181367D01*
X125199878Y-73189936D01*
X125093988Y-73195856D01*
X124966628Y-73199519D01*
X124814381Y-73201321D01*
X124633832Y-73201656D01*
X124421562Y-73200919D01*
X124342755Y-73200501D01*
X123497911Y-73195786D01*
X124226557Y-72660572D01*
X124433265Y-72508946D01*
X124613260Y-72377581D01*
X124768925Y-72265057D01*
X124902647Y-72169957D01*
X125016809Y-72090862D01*
X125113797Y-72026353D01*
X125195994Y-71975012D01*
X125265786Y-71935420D01*
X125325558Y-71906160D01*
X125377693Y-71885812D01*
X125424576Y-71872958D01*
X125468593Y-71866181D01*
X125512127Y-71864060D01*
X125557564Y-71865179D01*
X125563275Y-71865464D01*
X125676933Y-71871357D01*
X125676857Y-69995771D01*
X125536189Y-70135278D01*
X125497715Y-70173135D01*
X125460279Y-70209047D01*
X125421814Y-70244593D01*
X125380258Y-70281347D01*
X125333545Y-70320886D01*
X125279610Y-70364786D01*
X125216390Y-70414623D01*
X125141818Y-70471972D01*
X125053832Y-70538411D01*
X124950365Y-70615515D01*
X124829354Y-70704861D01*
X124688734Y-70808024D01*
X124526440Y-70926580D01*
X124340407Y-71062105D01*
X124128571Y-71216177D01*
X123954804Y-71342462D01*
X123736501Y-71500954D01*
X123545629Y-71639216D01*
X123380374Y-71758499D01*
X123238926Y-71860057D01*
X123119471Y-71945141D01*
X123020198Y-72015005D01*
X122939295Y-72070900D01*
X122874949Y-72114080D01*
X122825347Y-72145797D01*
X122788679Y-72167302D01*
X122763132Y-72179850D01*
X122746893Y-72184692D01*
X122738355Y-72183237D01*
X122715635Y-72165599D01*
X122667543Y-72127466D01*
X122596938Y-72071138D01*
X122506678Y-71998916D01*
X122399621Y-71913101D01*
X122278627Y-71815994D01*
X122146554Y-71709896D01*
X122006260Y-71597109D01*
X121860603Y-71479932D01*
X121712444Y-71360667D01*
X121631000Y-71295067D01*
X121564639Y-71241615D01*
X121420047Y-71125077D01*
X121281528Y-71013354D01*
X121151939Y-70908746D01*
X121034140Y-70813556D01*
X120930988Y-70730083D01*
X120845343Y-70660629D01*
X120780062Y-70607494D01*
X120742000Y-70576285D01*
X120599670Y-70455097D01*
X120471230Y-70338507D01*
X120360886Y-70230603D01*
X120272841Y-70135470D01*
X120218862Y-70067957D01*
X120161429Y-69988127D01*
X119181715Y-69988127D01*
X119181715Y-69848429D01*
X119335238Y-69848429D01*
X119522063Y-69832043D01*
X119694367Y-69782588D01*
X119853175Y-69699620D01*
X119894858Y-69666314D01*
X121631000Y-69666314D01*
X121753465Y-69598621D01*
X121875929Y-69530929D01*
X125431929Y-69530929D01*
X125554393Y-69598621D01*
X125676857Y-69666314D01*
X125676857Y-68865559D01*
X125676802Y-68674398D01*
X125676551Y-68516501D01*
X125675979Y-68388848D01*
X125674959Y-68288419D01*
X125673365Y-68212193D01*
X125671070Y-68157148D01*
X125667950Y-68120264D01*
X125663877Y-68098521D01*
X125658725Y-68088898D01*
X125652367Y-68088373D01*
X125644679Y-68093926D01*
X125644615Y-68093984D01*
X125611524Y-68116860D01*
X125557719Y-68147151D01*
X125504008Y-68173903D01*
X125395643Y-68224643D01*
X123513322Y-68229818D01*
X121631000Y-68234993D01*
X121631000Y-69666314D01*
X119894858Y-69666314D01*
X119999510Y-69582695D01*
X120039032Y-69543136D01*
X120151138Y-69400830D01*
X120232899Y-69243922D01*
X120284353Y-69077072D01*
X120305537Y-68904939D01*
X120296487Y-68732185D01*
X120257242Y-68563470D01*
X120187838Y-68403454D01*
X120088311Y-68256798D01*
X120028265Y-68190932D01*
X119881043Y-68068192D01*
X119719147Y-67978188D01*
X119544427Y-67921706D01*
X119358735Y-67899529D01*
X119340467Y-67899234D01*
X119181720Y-67898072D01*
X119181717Y-67828300D01*
X119190118Y-67766405D01*
X119210556Y-67709865D01*
X119212667Y-67706128D01*
X119219293Y-67693358D01*
X119224454Y-67681632D01*
X119229651Y-67670906D01*
X119236390Y-67661139D01*
X119246171Y-67652288D01*
X119260500Y-67644311D01*
X119280878Y-67637165D01*
X119308808Y-67630808D01*
X119345795Y-67625198D01*
X119393340Y-67620293D01*
X119452947Y-67616049D01*
X119526119Y-67612424D01*
X119614359Y-67609377D01*
X119719170Y-67606864D01*
X119842055Y-67604844D01*
X119984517Y-67603274D01*
X120148060Y-67602112D01*
X120334186Y-67601314D01*
X120544398Y-67600840D01*
X120780200Y-67600646D01*
X121043094Y-67600690D01*
G37*
D12*
%TO.C,Tierra*%
X187350000Y-67000000D02*
X187350000Y-89920000D01*
X184690000Y-89920000D02*
X187350000Y-89920000D01*
X184690000Y-67000000D02*
X187350000Y-67000000D01*
X184690000Y-67000000D02*
X184690000Y-89920000D01*
X184690000Y-65730000D02*
X184690000Y-64400000D01*
X184690000Y-64400000D02*
X186020000Y-64400000D01*
%TD*%
M02*
