M48
; DRILL file {KiCad 7.0.8} date Thu Nov  9 16:50:53 2023
; FORMAT={-:-/ absolute / inch / decimal}
; #@! TF.CreationDate,2023-11-09T16:50:53-05:00
; #@! TF.GenerationSoftware,Kicad,Pcbnew,7.0.8
; #@! TF.FileFunction,Plated,1,2,PTH
FMAT,2
INCH
; #@! TA.AperFunction,Plated,PTH,ComponentDrill
T1C0.0315
; #@! TA.AperFunction,Plated,PTH,ComponentDrill
T2C0.0394
; #@! TA.AperFunction,Plated,PTH,ComponentDrill
T3C0.0402
; #@! TA.AperFunction,Plated,PTH,ComponentDrill
T4C0.1181
%
G90
G05
T1
X6.4986Y-2.0128
X6.597Y-2.0128
T2
X7.1236Y-2.5878
X7.1236Y-2.6878
X7.1236Y-2.7878
X7.1236Y-2.8878
X7.1236Y-2.9878
X7.1236Y-3.0878
X7.1236Y-3.1878
X7.1236Y-3.2878
X7.1236Y-3.3878
X7.1236Y-3.4878
X7.2236Y-2.5878
X7.2236Y-2.6878
X7.2236Y-2.7878
X7.2236Y-2.8878
X7.2236Y-2.9878
X7.2236Y-3.0878
X7.2236Y-3.1878
X7.2236Y-3.2878
X7.2236Y-3.3878
X7.2236Y-3.4878
X7.3236Y-2.5878
X7.3236Y-2.6878
X7.3236Y-2.7878
X7.3236Y-2.8878
X7.3236Y-2.9878
X7.3236Y-3.0878
X7.3236Y-3.1878
X7.3236Y-3.2878
X7.3236Y-3.3878
X7.3236Y-3.4878
T3
X5.226Y-1.725
X5.226Y-1.825
X5.226Y-1.925
X5.226Y-2.025
X5.226Y-2.125
X5.226Y-2.225
X5.226Y-2.325
X5.226Y-2.425
X5.226Y-2.525
X5.226Y-2.625
X5.226Y-2.725
X5.226Y-2.825
X5.226Y-2.925
X5.226Y-3.025
X5.226Y-3.125
X6.226Y-1.725
X6.226Y-1.825
X6.226Y-1.925
X6.226Y-2.025
X6.226Y-2.125
X6.226Y-2.225
X6.226Y-2.325
X6.226Y-2.425
X6.226Y-2.525
X6.226Y-2.625
X6.226Y-2.725
X6.226Y-2.825
X6.226Y-2.925
X6.226Y-3.025
X6.226Y-3.125
T4
X4.4606Y-1.2677
X4.4665Y-3.9272
X8.0059Y-3.9409
X8.0138Y-1.2598
T2
G00X7.5874Y-1.8272
M15
G01X7.5874Y-1.7484
M16
G05
G00X7.7449Y-1.6028
M15
G01X7.6661Y-1.6028
M16
G05
G00X7.8236Y-1.8272
M15
G01X7.8236Y-1.7484
M16
G05
T0
M30
