%TF.GenerationSoftware,KiCad,Pcbnew,7.0.8*%
%TF.CreationDate,2023-11-09T16:50:50-05:00*%
%TF.ProjectId,proyecto final,70726f79-6563-4746-9f20-66696e616c2e,1.0*%
%TF.SameCoordinates,Original*%
%TF.FileFunction,Copper,L1,Top*%
%TF.FilePolarity,Positive*%
%FSLAX46Y46*%
G04 Gerber Fmt 4.6, Leading zero omitted, Abs format (unit mm)*
G04 Created by KiCad (PCBNEW 7.0.8) date 2023-11-09 16:50:50*
%MOMM*%
%LPD*%
G01*
G04 APERTURE LIST*
G04 Aperture macros list*
%AMRoundRect*
0 Rectangle with rounded corners*
0 $1 Rounding radius*
0 $2 $3 $4 $5 $6 $7 $8 $9 X,Y pos of 4 corners*
0 Add a 4 corners polygon primitive as box body*
4,1,4,$2,$3,$4,$5,$6,$7,$8,$9,$2,$3,0*
0 Add four circle primitives for the rounded corners*
1,1,$1+$1,$2,$3*
1,1,$1+$1,$4,$5*
1,1,$1+$1,$6,$7*
1,1,$1+$1,$8,$9*
0 Add four rect primitives between the rounded corners*
20,1,$1+$1,$2,$3,$4,$5,0*
20,1,$1+$1,$4,$5,$6,$7,0*
20,1,$1+$1,$6,$7,$8,$9,0*
20,1,$1+$1,$8,$9,$2,$3,0*%
G04 Aperture macros list end*
%TA.AperFunction,ComponentPad*%
%ADD10R,1.600000X1.600000*%
%TD*%
%TA.AperFunction,ComponentPad*%
%ADD11C,1.600000*%
%TD*%
%TA.AperFunction,ComponentPad*%
%ADD12C,5.600000*%
%TD*%
%TA.AperFunction,ComponentPad*%
%ADD13O,1.700000X1.700000*%
%TD*%
%TA.AperFunction,ComponentPad*%
%ADD14R,1.700000X1.700000*%
%TD*%
%TA.AperFunction,ComponentPad*%
%ADD15R,2.000000X2.000000*%
%TD*%
%TA.AperFunction,ComponentPad*%
%ADD16C,2.000000*%
%TD*%
%TA.AperFunction,ComponentPad*%
%ADD17R,3.500000X3.500000*%
%TD*%
%TA.AperFunction,ComponentPad*%
%ADD18RoundRect,0.750000X0.750000X1.000000X-0.750000X1.000000X-0.750000X-1.000000X0.750000X-1.000000X0*%
%TD*%
%TA.AperFunction,ComponentPad*%
%ADD19RoundRect,0.875000X0.875000X0.875000X-0.875000X0.875000X-0.875000X-0.875000X0.875000X-0.875000X0*%
%TD*%
G04 APERTURE END LIST*
D10*
%TO.P,C1,1*%
%TO.N,+5V*%
X165065000Y-51125000D03*
D11*
%TO.P,C1,2*%
%TO.N,GND*%
X167565000Y-51125000D03*
%TD*%
D12*
%TO.P,REF\u002A\u002A,1*%
%TO.N,N/C*%
X113300000Y-32200000D03*
%TD*%
D13*
%TO.P,Servos,10,Pin_10*%
%TO.N,D2*%
X180940000Y-88590000D03*
%TO.P,Servos,9,Pin_9*%
%TO.N,D4*%
X180940000Y-86050000D03*
%TO.P,Servos,8,Pin_8*%
%TO.N,D5*%
X180940000Y-83510000D03*
%TO.P,Servos,7,Pin_7*%
%TO.N,D18*%
X180940000Y-80970000D03*
%TO.P,Servos,6,Pin_6*%
%TO.N,D19*%
X180940000Y-78430000D03*
%TO.P,Servos,5,Pin_5*%
%TO.N,D21*%
X180940000Y-75890000D03*
%TO.P,Servos,4,Pin_4*%
%TO.N,D22*%
X180940000Y-73350000D03*
%TO.P,Servos,3,Pin_3*%
%TO.N,D23*%
X180940000Y-70810000D03*
%TO.P,Servos,2,Pin_2*%
%TO.N,D25*%
X180940000Y-68270000D03*
D14*
%TO.P,Servos,1,Pin_1*%
%TO.N,D26*%
X180940000Y-65730000D03*
%TD*%
D13*
%TO.P,Energ\u00EDa,10,Pin_10*%
%TO.N,+5V*%
X183480000Y-88590000D03*
%TO.P,Energ\u00EDa,9,Pin_9*%
X183480000Y-86050000D03*
%TO.P,Energ\u00EDa,8,Pin_8*%
X183480000Y-83510000D03*
%TO.P,Energ\u00EDa,7,Pin_7*%
X183480000Y-80970000D03*
%TO.P,Energ\u00EDa,6,Pin_6*%
X183480000Y-78430000D03*
%TO.P,Energ\u00EDa,5,Pin_5*%
X183480000Y-75890000D03*
%TO.P,Energ\u00EDa,4,Pin_4*%
X183480000Y-73350000D03*
%TO.P,Energ\u00EDa,3,Pin_3*%
X183480000Y-70810000D03*
%TO.P,Energ\u00EDa,2,Pin_2*%
X183480000Y-68270000D03*
D14*
%TO.P,Energ\u00EDa,1,Pin_1*%
X183480000Y-65730000D03*
%TD*%
D12*
%TO.P,,1*%
%TO.N,N/C*%
X113450000Y-99750000D03*
%TD*%
D15*
%TO.P,ESP32 WROOM 32,1,3V3*%
%TO.N,unconnected-(U1-3V3-Pad1)*%
X132740000Y-43815000D03*
D16*
%TO.P,ESP32 WROOM 32,2,GND*%
%TO.N,GND*%
X132740000Y-46355000D03*
%TO.P,ESP32 WROOM 32,3,D15*%
%TO.N,unconnected-(U1-D15-Pad3)*%
X132740000Y-48895000D03*
%TO.P,ESP32 WROOM 32,4,D2*%
%TO.N,D2*%
X132740000Y-51435000D03*
%TO.P,ESP32 WROOM 32,5,D4*%
%TO.N,D4*%
X132740000Y-53975000D03*
%TO.P,ESP32 WROOM 32,6,RX2*%
%TO.N,unconnected-(U1-RX2-Pad6)*%
X132740000Y-56515000D03*
%TO.P,ESP32 WROOM 32,7,TX2*%
%TO.N,unconnected-(U1-TX2-Pad7)*%
X132740000Y-59055000D03*
%TO.P,ESP32 WROOM 32,8,D5*%
%TO.N,D5*%
X132740000Y-61595000D03*
%TO.P,ESP32 WROOM 32,9,D18*%
%TO.N,D18*%
X132740000Y-64135000D03*
%TO.P,ESP32 WROOM 32,10,D19*%
%TO.N,D19*%
X132740000Y-66675000D03*
%TO.P,ESP32 WROOM 32,11,D21*%
%TO.N,D21*%
X132740000Y-69215000D03*
%TO.P,ESP32 WROOM 32,12,RX0*%
%TO.N,unconnected-(U1-RX0-Pad12)*%
X132740000Y-71755000D03*
%TO.P,ESP32 WROOM 32,13,TX0*%
%TO.N,unconnected-(U1-TX0-Pad13)*%
X132740000Y-74295000D03*
%TO.P,ESP32 WROOM 32,14,D22*%
%TO.N,D22*%
X132740000Y-76835000D03*
%TO.P,ESP32 WROOM 32,15,D23*%
%TO.N,D23*%
X132740000Y-79375000D03*
%TO.P,ESP32 WROOM 32,16,EN*%
%TO.N,unconnected-(U1-EN-Pad16)*%
X158140000Y-79375000D03*
%TO.P,ESP32 WROOM 32,17,VP*%
%TO.N,unconnected-(U1-VP-Pad17)*%
X158140000Y-76835000D03*
%TO.P,ESP32 WROOM 32,18,VN*%
%TO.N,unconnected-(U1-VN-Pad18)*%
X158140000Y-74295000D03*
%TO.P,ESP32 WROOM 32,19,D34*%
%TO.N,unconnected-(U1-D34-Pad19)*%
X158140000Y-71755000D03*
%TO.P,ESP32 WROOM 32,20,D35*%
%TO.N,unconnected-(U1-D35-Pad20)*%
X158140000Y-69215000D03*
%TO.P,ESP32 WROOM 32,21,D32*%
%TO.N,unconnected-(U1-D32-Pad21)*%
X158140000Y-66675000D03*
%TO.P,ESP32 WROOM 32,22,D33*%
%TO.N,unconnected-(U1-D33-Pad22)*%
X158140000Y-64135000D03*
%TO.P,ESP32 WROOM 32,23,D25*%
%TO.N,D25*%
X158140000Y-61595000D03*
%TO.P,ESP32 WROOM 32,24,D26*%
%TO.N,D26*%
X158140000Y-59055000D03*
%TO.P,ESP32 WROOM 32,25,D27*%
%TO.N,unconnected-(U1-D27-Pad25)*%
X158140000Y-56515000D03*
%TO.P,ESP32 WROOM 32,26,D14*%
%TO.N,unconnected-(U1-D14-Pad26)*%
X158140000Y-53975000D03*
%TO.P,ESP32 WROOM 32,27,D12*%
%TO.N,unconnected-(U1-D12-Pad27)*%
X158140000Y-51435000D03*
%TO.P,ESP32 WROOM 32,28,D13*%
%TO.N,unconnected-(U1-D13-Pad28)*%
X158140000Y-48895000D03*
%TO.P,ESP32 WROOM 32,29,GND*%
%TO.N,GND*%
X158140000Y-46355000D03*
%TO.P,ESP32 WROOM 32,30,VIN*%
%TO.N,+5V*%
X158140000Y-43815000D03*
%TD*%
D17*
%TO.P,jack1,1*%
%TO.N,+5V*%
X192720000Y-45410000D03*
D18*
%TO.P,jack1,2*%
%TO.N,GND*%
X198720000Y-45410000D03*
D19*
%TO.P,jack1,3*%
X195720000Y-40710000D03*
%TD*%
D13*
%TO.P,Tierra,10,Pin_10*%
%TO.N,GND*%
X186020000Y-88590000D03*
%TO.P,Tierra,9,Pin_9*%
X186020000Y-86050000D03*
%TO.P,Tierra,8,Pin_8*%
X186020000Y-83510000D03*
%TO.P,Tierra,7,Pin_7*%
X186020000Y-80970000D03*
%TO.P,Tierra,6,Pin_6*%
X186020000Y-78430000D03*
%TO.P,Tierra,5,Pin_5*%
X186020000Y-75890000D03*
%TO.P,Tierra,4,Pin_4*%
X186020000Y-73350000D03*
%TO.P,Tierra,3,Pin_3*%
X186020000Y-70810000D03*
%TO.P,Tierra,2,Pin_2*%
X186020000Y-68270000D03*
D14*
%TO.P,Tierra,1,Pin_1*%
X186020000Y-65730000D03*
%TD*%
D12*
%TO.P,,1*%
%TO.N,N/C*%
X203350000Y-100100000D03*
%TD*%
%TO.P,,1*%
%TO.N,N/C*%
X203550000Y-32000000D03*
%TD*%
M02*
