%TF.GenerationSoftware,KiCad,Pcbnew,7.0.8*%
%TF.CreationDate,2023-11-09T16:50:50-05:00*%
%TF.ProjectId,proyecto final,70726f79-6563-4746-9f20-66696e616c2e,1.0*%
%TF.SameCoordinates,Original*%
%TF.FileFunction,Copper,L2,Bot*%
%TF.FilePolarity,Positive*%
%FSLAX46Y46*%
G04 Gerber Fmt 4.6, Leading zero omitted, Abs format (unit mm)*
G04 Created by KiCad (PCBNEW 7.0.8) date 2023-11-09 16:50:50*
%MOMM*%
%LPD*%
G01*
G04 APERTURE LIST*
G04 Aperture macros list*
%AMRoundRect*
0 Rectangle with rounded corners*
0 $1 Rounding radius*
0 $2 $3 $4 $5 $6 $7 $8 $9 X,Y pos of 4 corners*
0 Add a 4 corners polygon primitive as box body*
4,1,4,$2,$3,$4,$5,$6,$7,$8,$9,$2,$3,0*
0 Add four circle primitives for the rounded corners*
1,1,$1+$1,$2,$3*
1,1,$1+$1,$4,$5*
1,1,$1+$1,$6,$7*
1,1,$1+$1,$8,$9*
0 Add four rect primitives between the rounded corners*
20,1,$1+$1,$2,$3,$4,$5,0*
20,1,$1+$1,$4,$5,$6,$7,0*
20,1,$1+$1,$6,$7,$8,$9,0*
20,1,$1+$1,$8,$9,$2,$3,0*%
G04 Aperture macros list end*
%TA.AperFunction,ComponentPad*%
%ADD10R,1.600000X1.600000*%
%TD*%
%TA.AperFunction,ComponentPad*%
%ADD11C,1.600000*%
%TD*%
%TA.AperFunction,ComponentPad*%
%ADD12C,5.600000*%
%TD*%
%TA.AperFunction,ComponentPad*%
%ADD13O,1.700000X1.700000*%
%TD*%
%TA.AperFunction,ComponentPad*%
%ADD14R,1.700000X1.700000*%
%TD*%
%TA.AperFunction,ComponentPad*%
%ADD15R,2.000000X2.000000*%
%TD*%
%TA.AperFunction,ComponentPad*%
%ADD16C,2.000000*%
%TD*%
%TA.AperFunction,ComponentPad*%
%ADD17R,3.500000X3.500000*%
%TD*%
%TA.AperFunction,ComponentPad*%
%ADD18RoundRect,0.750000X0.750000X1.000000X-0.750000X1.000000X-0.750000X-1.000000X0.750000X-1.000000X0*%
%TD*%
%TA.AperFunction,ComponentPad*%
%ADD19RoundRect,0.875000X0.875000X0.875000X-0.875000X0.875000X-0.875000X-0.875000X0.875000X-0.875000X0*%
%TD*%
%TA.AperFunction,Conductor*%
%ADD20C,1.300000*%
%TD*%
%TA.AperFunction,Conductor*%
%ADD21C,0.900000*%
%TD*%
G04 APERTURE END LIST*
D10*
%TO.P,C1,1*%
%TO.N,+5V*%
X165065000Y-51125000D03*
D11*
%TO.P,C1,2*%
%TO.N,GND*%
X167565000Y-51125000D03*
%TD*%
D12*
%TO.P,REF\u002A\u002A,1*%
%TO.N,N/C*%
X113300000Y-32200000D03*
%TD*%
D13*
%TO.P,Servos,10,Pin_10*%
%TO.N,D2*%
X180940000Y-88590000D03*
%TO.P,Servos,9,Pin_9*%
%TO.N,D4*%
X180940000Y-86050000D03*
%TO.P,Servos,8,Pin_8*%
%TO.N,D5*%
X180940000Y-83510000D03*
%TO.P,Servos,7,Pin_7*%
%TO.N,D18*%
X180940000Y-80970000D03*
%TO.P,Servos,6,Pin_6*%
%TO.N,D19*%
X180940000Y-78430000D03*
%TO.P,Servos,5,Pin_5*%
%TO.N,D21*%
X180940000Y-75890000D03*
%TO.P,Servos,4,Pin_4*%
%TO.N,D22*%
X180940000Y-73350000D03*
%TO.P,Servos,3,Pin_3*%
%TO.N,D23*%
X180940000Y-70810000D03*
%TO.P,Servos,2,Pin_2*%
%TO.N,D25*%
X180940000Y-68270000D03*
D14*
%TO.P,Servos,1,Pin_1*%
%TO.N,D26*%
X180940000Y-65730000D03*
%TD*%
D13*
%TO.P,Energ\u00EDa,10,Pin_10*%
%TO.N,+5V*%
X183480000Y-88590000D03*
%TO.P,Energ\u00EDa,9,Pin_9*%
X183480000Y-86050000D03*
%TO.P,Energ\u00EDa,8,Pin_8*%
X183480000Y-83510000D03*
%TO.P,Energ\u00EDa,7,Pin_7*%
X183480000Y-80970000D03*
%TO.P,Energ\u00EDa,6,Pin_6*%
X183480000Y-78430000D03*
%TO.P,Energ\u00EDa,5,Pin_5*%
X183480000Y-75890000D03*
%TO.P,Energ\u00EDa,4,Pin_4*%
X183480000Y-73350000D03*
%TO.P,Energ\u00EDa,3,Pin_3*%
X183480000Y-70810000D03*
%TO.P,Energ\u00EDa,2,Pin_2*%
X183480000Y-68270000D03*
D14*
%TO.P,Energ\u00EDa,1,Pin_1*%
X183480000Y-65730000D03*
%TD*%
D12*
%TO.P,,1*%
%TO.N,N/C*%
X113450000Y-99750000D03*
%TD*%
D15*
%TO.P,ESP32 WROOM 32,1,3V3*%
%TO.N,unconnected-(U1-3V3-Pad1)*%
X132740000Y-43815000D03*
D16*
%TO.P,ESP32 WROOM 32,2,GND*%
%TO.N,GND*%
X132740000Y-46355000D03*
%TO.P,ESP32 WROOM 32,3,D15*%
%TO.N,unconnected-(U1-D15-Pad3)*%
X132740000Y-48895000D03*
%TO.P,ESP32 WROOM 32,4,D2*%
%TO.N,D2*%
X132740000Y-51435000D03*
%TO.P,ESP32 WROOM 32,5,D4*%
%TO.N,D4*%
X132740000Y-53975000D03*
%TO.P,ESP32 WROOM 32,6,RX2*%
%TO.N,unconnected-(U1-RX2-Pad6)*%
X132740000Y-56515000D03*
%TO.P,ESP32 WROOM 32,7,TX2*%
%TO.N,unconnected-(U1-TX2-Pad7)*%
X132740000Y-59055000D03*
%TO.P,ESP32 WROOM 32,8,D5*%
%TO.N,D5*%
X132740000Y-61595000D03*
%TO.P,ESP32 WROOM 32,9,D18*%
%TO.N,D18*%
X132740000Y-64135000D03*
%TO.P,ESP32 WROOM 32,10,D19*%
%TO.N,D19*%
X132740000Y-66675000D03*
%TO.P,ESP32 WROOM 32,11,D21*%
%TO.N,D21*%
X132740000Y-69215000D03*
%TO.P,ESP32 WROOM 32,12,RX0*%
%TO.N,unconnected-(U1-RX0-Pad12)*%
X132740000Y-71755000D03*
%TO.P,ESP32 WROOM 32,13,TX0*%
%TO.N,unconnected-(U1-TX0-Pad13)*%
X132740000Y-74295000D03*
%TO.P,ESP32 WROOM 32,14,D22*%
%TO.N,D22*%
X132740000Y-76835000D03*
%TO.P,ESP32 WROOM 32,15,D23*%
%TO.N,D23*%
X132740000Y-79375000D03*
%TO.P,ESP32 WROOM 32,16,EN*%
%TO.N,unconnected-(U1-EN-Pad16)*%
X158140000Y-79375000D03*
%TO.P,ESP32 WROOM 32,17,VP*%
%TO.N,unconnected-(U1-VP-Pad17)*%
X158140000Y-76835000D03*
%TO.P,ESP32 WROOM 32,18,VN*%
%TO.N,unconnected-(U1-VN-Pad18)*%
X158140000Y-74295000D03*
%TO.P,ESP32 WROOM 32,19,D34*%
%TO.N,unconnected-(U1-D34-Pad19)*%
X158140000Y-71755000D03*
%TO.P,ESP32 WROOM 32,20,D35*%
%TO.N,unconnected-(U1-D35-Pad20)*%
X158140000Y-69215000D03*
%TO.P,ESP32 WROOM 32,21,D32*%
%TO.N,unconnected-(U1-D32-Pad21)*%
X158140000Y-66675000D03*
%TO.P,ESP32 WROOM 32,22,D33*%
%TO.N,unconnected-(U1-D33-Pad22)*%
X158140000Y-64135000D03*
%TO.P,ESP32 WROOM 32,23,D25*%
%TO.N,D25*%
X158140000Y-61595000D03*
%TO.P,ESP32 WROOM 32,24,D26*%
%TO.N,D26*%
X158140000Y-59055000D03*
%TO.P,ESP32 WROOM 32,25,D27*%
%TO.N,unconnected-(U1-D27-Pad25)*%
X158140000Y-56515000D03*
%TO.P,ESP32 WROOM 32,26,D14*%
%TO.N,unconnected-(U1-D14-Pad26)*%
X158140000Y-53975000D03*
%TO.P,ESP32 WROOM 32,27,D12*%
%TO.N,unconnected-(U1-D12-Pad27)*%
X158140000Y-51435000D03*
%TO.P,ESP32 WROOM 32,28,D13*%
%TO.N,unconnected-(U1-D13-Pad28)*%
X158140000Y-48895000D03*
%TO.P,ESP32 WROOM 32,29,GND*%
%TO.N,GND*%
X158140000Y-46355000D03*
%TO.P,ESP32 WROOM 32,30,VIN*%
%TO.N,+5V*%
X158140000Y-43815000D03*
%TD*%
D17*
%TO.P,jack1,1*%
%TO.N,+5V*%
X192720000Y-45410000D03*
D18*
%TO.P,jack1,2*%
%TO.N,GND*%
X198720000Y-45410000D03*
D19*
%TO.P,jack1,3*%
X195720000Y-40710000D03*
%TD*%
D13*
%TO.P,Tierra,10,Pin_10*%
%TO.N,GND*%
X186020000Y-88590000D03*
%TO.P,Tierra,9,Pin_9*%
X186020000Y-86050000D03*
%TO.P,Tierra,8,Pin_8*%
X186020000Y-83510000D03*
%TO.P,Tierra,7,Pin_7*%
X186020000Y-80970000D03*
%TO.P,Tierra,6,Pin_6*%
X186020000Y-78430000D03*
%TO.P,Tierra,5,Pin_5*%
X186020000Y-75890000D03*
%TO.P,Tierra,4,Pin_4*%
X186020000Y-73350000D03*
%TO.P,Tierra,3,Pin_3*%
X186020000Y-70810000D03*
%TO.P,Tierra,2,Pin_2*%
X186020000Y-68270000D03*
D14*
%TO.P,Tierra,1,Pin_1*%
X186020000Y-65730000D03*
%TD*%
D12*
%TO.P,,1*%
%TO.N,N/C*%
X203350000Y-100100000D03*
%TD*%
%TO.P,,1*%
%TO.N,N/C*%
X203550000Y-32000000D03*
%TD*%
D20*
%TO.N,+5V*%
X161565000Y-43815000D02*
X158140000Y-43815000D01*
X161850000Y-44100000D02*
X161565000Y-43815000D01*
X161850000Y-51150000D02*
X161850000Y-44100000D01*
X161875000Y-51125000D02*
X161850000Y-51150000D01*
X165065000Y-51125000D02*
X161875000Y-51125000D01*
X165480000Y-42950000D02*
X165065000Y-43365000D01*
X165065000Y-43365000D02*
X165065000Y-51125000D01*
X171700000Y-42950000D02*
X165480000Y-42950000D01*
X183400000Y-54650000D02*
X171700000Y-42950000D01*
X183480000Y-54650000D02*
X183400000Y-54650000D01*
X183480000Y-54650000D02*
X183480000Y-88590000D01*
D21*
%TO.N,D26*%
X158285000Y-59200000D02*
X158140000Y-59055000D01*
X170700000Y-59200000D02*
X158285000Y-59200000D01*
X177230000Y-65730000D02*
X170700000Y-59200000D01*
X180940000Y-65730000D02*
X177230000Y-65730000D01*
%TO.N,D4*%
X119980000Y-54300000D02*
X120305000Y-53975000D01*
X120305000Y-53975000D02*
X132740000Y-53975000D01*
X119980000Y-96845000D02*
X119980000Y-54300000D01*
X120935062Y-97800062D02*
X119980000Y-96845000D01*
X173320000Y-96845000D02*
X172364938Y-97800062D01*
X172364938Y-97800062D02*
X120935062Y-97800062D01*
X173320000Y-86050000D02*
X173320000Y-96845000D01*
X180940000Y-86050000D02*
X173320000Y-86050000D01*
%TO.N,D2*%
X118050000Y-99600000D02*
X118050000Y-51550000D01*
X118100000Y-99650000D02*
X118050000Y-99600000D01*
X175700000Y-99650000D02*
X118100000Y-99650000D01*
X175700000Y-88550000D02*
X175700000Y-99650000D01*
X175740000Y-88590000D02*
X175700000Y-88550000D01*
X118050000Y-51550000D02*
X118165000Y-51435000D01*
X118165000Y-51435000D02*
X132740000Y-51435000D01*
X180940000Y-88590000D02*
X175740000Y-88590000D01*
D20*
%TO.N,+5V*%
X192720000Y-45410000D02*
X183480000Y-54650000D01*
D21*
%TO.N,D5*%
X121885000Y-95575000D02*
X121885000Y-61920000D01*
X171415000Y-95575000D02*
X121885000Y-95575000D01*
X122210000Y-61595000D02*
X132740000Y-61595000D01*
X171415000Y-83510000D02*
X171415000Y-95575000D01*
X180940000Y-83510000D02*
X171415000Y-83510000D01*
X121885000Y-61920000D02*
X122210000Y-61595000D01*
%TO.N,D18*%
X123790000Y-65730000D02*
X125385000Y-64135000D01*
X125385000Y-64135000D02*
X132740000Y-64135000D01*
X169510000Y-93670000D02*
X123790000Y-93670000D01*
X169510000Y-80970000D02*
X169510000Y-93670000D01*
X123790000Y-93670000D02*
X123790000Y-65730000D01*
X180940000Y-80970000D02*
X169510000Y-80970000D01*
%TO.N,D19*%
X125695000Y-67000000D02*
X126020000Y-66675000D01*
X125695000Y-91765000D02*
X125695000Y-67000000D01*
X126020000Y-66675000D02*
X132740000Y-66675000D01*
X167605000Y-78430000D02*
X167605000Y-91765000D01*
X180940000Y-78430000D02*
X167605000Y-78430000D01*
X167605000Y-91765000D02*
X125695000Y-91765000D01*
%TO.N,D21*%
X127600000Y-69540000D02*
X127925000Y-69215000D01*
X127600000Y-89860000D02*
X127600000Y-69540000D01*
X165700000Y-89860000D02*
X127600000Y-89860000D01*
X165700000Y-75890000D02*
X165700000Y-89860000D01*
X127925000Y-69215000D02*
X132740000Y-69215000D01*
X180940000Y-75890000D02*
X165700000Y-75890000D01*
%TO.N,D23*%
X135855000Y-80335000D02*
X134895000Y-79375000D01*
X161890000Y-86050000D02*
X137138604Y-86050000D01*
X135855000Y-84766396D02*
X135855000Y-80335000D01*
X134895000Y-79375000D02*
X132740000Y-79375000D01*
X162525000Y-70810000D02*
X161890000Y-71445000D01*
X161890000Y-71445000D02*
X161890000Y-86050000D01*
X137138604Y-86050000D02*
X135855000Y-84766396D01*
X180940000Y-70810000D02*
X162525000Y-70810000D01*
%TO.N,D22*%
X130465000Y-76835000D02*
X132740000Y-76835000D01*
X129505000Y-77795000D02*
X130465000Y-76835000D01*
X129505000Y-87955000D02*
X129505000Y-77795000D01*
X163795000Y-87955000D02*
X129505000Y-87955000D01*
X180940000Y-73350000D02*
X163795000Y-73350000D01*
X163795000Y-73350000D02*
X163795000Y-87955000D01*
%TO.N,D25*%
X176495000Y-68270000D02*
X169820000Y-61595000D01*
X169820000Y-61595000D02*
X158140000Y-61595000D01*
X180940000Y-68270000D02*
X176495000Y-68270000D01*
%TD*%
%TA.AperFunction,Conductor*%
%TO.N,GND*%
G36*
X186270000Y-88154498D02*
G01*
X186162315Y-88105320D01*
X186055763Y-88090000D01*
X185984237Y-88090000D01*
X185877685Y-88105320D01*
X185770000Y-88154498D01*
X185770000Y-86485501D01*
X185877685Y-86534680D01*
X185984237Y-86550000D01*
X186055763Y-86550000D01*
X186162315Y-86534680D01*
X186270000Y-86485501D01*
X186270000Y-88154498D01*
G37*
%TD.AperFunction*%
%TA.AperFunction,Conductor*%
G36*
X186270000Y-85614498D02*
G01*
X186162315Y-85565320D01*
X186055763Y-85550000D01*
X185984237Y-85550000D01*
X185877685Y-85565320D01*
X185770000Y-85614498D01*
X185770000Y-83945501D01*
X185877685Y-83994680D01*
X185984237Y-84010000D01*
X186055763Y-84010000D01*
X186162315Y-83994680D01*
X186270000Y-83945501D01*
X186270000Y-85614498D01*
G37*
%TD.AperFunction*%
%TA.AperFunction,Conductor*%
G36*
X186270000Y-83074498D02*
G01*
X186162315Y-83025320D01*
X186055763Y-83010000D01*
X185984237Y-83010000D01*
X185877685Y-83025320D01*
X185770000Y-83074498D01*
X185770000Y-81405501D01*
X185877685Y-81454680D01*
X185984237Y-81470000D01*
X186055763Y-81470000D01*
X186162315Y-81454680D01*
X186270000Y-81405501D01*
X186270000Y-83074498D01*
G37*
%TD.AperFunction*%
%TA.AperFunction,Conductor*%
G36*
X186270000Y-80534498D02*
G01*
X186162315Y-80485320D01*
X186055763Y-80470000D01*
X185984237Y-80470000D01*
X185877685Y-80485320D01*
X185770000Y-80534498D01*
X185770000Y-78865501D01*
X185877685Y-78914680D01*
X185984237Y-78930000D01*
X186055763Y-78930000D01*
X186162315Y-78914680D01*
X186270000Y-78865501D01*
X186270000Y-80534498D01*
G37*
%TD.AperFunction*%
%TA.AperFunction,Conductor*%
G36*
X186270000Y-77994498D02*
G01*
X186162315Y-77945320D01*
X186055763Y-77930000D01*
X185984237Y-77930000D01*
X185877685Y-77945320D01*
X185770000Y-77994498D01*
X185770000Y-76325501D01*
X185877685Y-76374680D01*
X185984237Y-76390000D01*
X186055763Y-76390000D01*
X186162315Y-76374680D01*
X186270000Y-76325501D01*
X186270000Y-77994498D01*
G37*
%TD.AperFunction*%
%TA.AperFunction,Conductor*%
G36*
X186270000Y-75454498D02*
G01*
X186162315Y-75405320D01*
X186055763Y-75390000D01*
X185984237Y-75390000D01*
X185877685Y-75405320D01*
X185770000Y-75454498D01*
X185770000Y-73785501D01*
X185877685Y-73834680D01*
X185984237Y-73850000D01*
X186055763Y-73850000D01*
X186162315Y-73834680D01*
X186270000Y-73785501D01*
X186270000Y-75454498D01*
G37*
%TD.AperFunction*%
%TA.AperFunction,Conductor*%
G36*
X186270000Y-72914498D02*
G01*
X186162315Y-72865320D01*
X186055763Y-72850000D01*
X185984237Y-72850000D01*
X185877685Y-72865320D01*
X185770000Y-72914498D01*
X185770000Y-71245501D01*
X185877685Y-71294680D01*
X185984237Y-71310000D01*
X186055763Y-71310000D01*
X186162315Y-71294680D01*
X186270000Y-71245501D01*
X186270000Y-72914498D01*
G37*
%TD.AperFunction*%
%TA.AperFunction,Conductor*%
G36*
X186270000Y-70374498D02*
G01*
X186162315Y-70325320D01*
X186055763Y-70310000D01*
X185984237Y-70310000D01*
X185877685Y-70325320D01*
X185770000Y-70374498D01*
X185770000Y-68705501D01*
X185877685Y-68754680D01*
X185984237Y-68770000D01*
X186055763Y-68770000D01*
X186162315Y-68754680D01*
X186270000Y-68705501D01*
X186270000Y-70374498D01*
G37*
%TD.AperFunction*%
%TA.AperFunction,Conductor*%
G36*
X186270000Y-67834498D02*
G01*
X186162315Y-67785320D01*
X186055763Y-67770000D01*
X185984237Y-67770000D01*
X185877685Y-67785320D01*
X185770000Y-67834498D01*
X185770000Y-66165501D01*
X185877685Y-66214680D01*
X185984237Y-66230000D01*
X186055763Y-66230000D01*
X186162315Y-66214680D01*
X186270000Y-66165501D01*
X186270000Y-67834498D01*
G37*
%TD.AperFunction*%
%TA.AperFunction,Conductor*%
G36*
X171239124Y-44120185D02*
G01*
X171259766Y-44136819D01*
X182293181Y-55170233D01*
X182326666Y-55231556D01*
X182329500Y-55257914D01*
X182329500Y-64410942D01*
X182309815Y-64477981D01*
X182257011Y-64523736D01*
X182187853Y-64533680D01*
X182131189Y-64510209D01*
X182115374Y-64498370D01*
X182032331Y-64436204D01*
X182032329Y-64436203D01*
X182032328Y-64436202D01*
X181897482Y-64385908D01*
X181897483Y-64385908D01*
X181837883Y-64379501D01*
X181837881Y-64379500D01*
X181837873Y-64379500D01*
X181837864Y-64379500D01*
X180042129Y-64379500D01*
X180042123Y-64379501D01*
X179982516Y-64385908D01*
X179847671Y-64436202D01*
X179847664Y-64436206D01*
X179732455Y-64522452D01*
X179732452Y-64522455D01*
X179646206Y-64637664D01*
X179646202Y-64637671D01*
X179623391Y-64698833D01*
X179581520Y-64754767D01*
X179516056Y-64779184D01*
X179507209Y-64779500D01*
X177675072Y-64779500D01*
X177608033Y-64759815D01*
X177587391Y-64743181D01*
X171380627Y-58536417D01*
X171322324Y-58475082D01*
X171322320Y-58475079D01*
X171274567Y-58441841D01*
X171270833Y-58439025D01*
X171225751Y-58402266D01*
X171225747Y-58402264D01*
X171225746Y-58402263D01*
X171225745Y-58402262D01*
X171196997Y-58387246D01*
X171190277Y-58383174D01*
X171163659Y-58364647D01*
X171110209Y-58341710D01*
X171105952Y-58339688D01*
X171054409Y-58312764D01*
X171054407Y-58312763D01*
X171054406Y-58312763D01*
X171037689Y-58307979D01*
X171023221Y-58303839D01*
X171015822Y-58301205D01*
X170986011Y-58288412D01*
X170986012Y-58288412D01*
X170929038Y-58276703D01*
X170924463Y-58275580D01*
X170868556Y-58259583D01*
X170868545Y-58259582D01*
X170836208Y-58257120D01*
X170828428Y-58256029D01*
X170796657Y-58249500D01*
X170796656Y-58249500D01*
X170738497Y-58249500D01*
X170733790Y-58249321D01*
X170728850Y-58248944D01*
X170675798Y-58244904D01*
X170658176Y-58247149D01*
X170643614Y-58249003D01*
X170635785Y-58249500D01*
X159473202Y-58249500D01*
X159406163Y-58229815D01*
X159369394Y-58193322D01*
X159328165Y-58130217D01*
X159328164Y-58130215D01*
X159159744Y-57947262D01*
X159076991Y-57882852D01*
X159036179Y-57826143D01*
X159032504Y-57756370D01*
X159067136Y-57695687D01*
X159076985Y-57687151D01*
X159159744Y-57622738D01*
X159328164Y-57439785D01*
X159464173Y-57231607D01*
X159564063Y-57003881D01*
X159625108Y-56762821D01*
X159645643Y-56515000D01*
X159625108Y-56267179D01*
X159564063Y-56026119D01*
X159464173Y-55798393D01*
X159328166Y-55590217D01*
X159306557Y-55566744D01*
X159159744Y-55407262D01*
X159076991Y-55342852D01*
X159036179Y-55286143D01*
X159032504Y-55216370D01*
X159067136Y-55155687D01*
X159076985Y-55147151D01*
X159159744Y-55082738D01*
X159328164Y-54899785D01*
X159464173Y-54691607D01*
X159564063Y-54463881D01*
X159625108Y-54222821D01*
X159629674Y-54167718D01*
X159645643Y-53975005D01*
X159645643Y-53974994D01*
X159625109Y-53727187D01*
X159625107Y-53727175D01*
X159564063Y-53486118D01*
X159464173Y-53258393D01*
X159328166Y-53050217D01*
X159267653Y-52984483D01*
X159159744Y-52867262D01*
X159076991Y-52802852D01*
X159036179Y-52746143D01*
X159032504Y-52676370D01*
X159067136Y-52615687D01*
X159076985Y-52607151D01*
X159159744Y-52542738D01*
X159328164Y-52359785D01*
X159464173Y-52151607D01*
X159564063Y-51923881D01*
X159625108Y-51682821D01*
X159631443Y-51606372D01*
X159645643Y-51435005D01*
X159645643Y-51434994D01*
X159625109Y-51187187D01*
X159625107Y-51187175D01*
X159564063Y-50946118D01*
X159464173Y-50718393D01*
X159328166Y-50510217D01*
X159267653Y-50444483D01*
X159159744Y-50327262D01*
X159076991Y-50262852D01*
X159036179Y-50206143D01*
X159032504Y-50136370D01*
X159067136Y-50075687D01*
X159076985Y-50067151D01*
X159159744Y-50002738D01*
X159328164Y-49819785D01*
X159464173Y-49611607D01*
X159564063Y-49383881D01*
X159625108Y-49142821D01*
X159645643Y-48895000D01*
X159625108Y-48647179D01*
X159564063Y-48406119D01*
X159464173Y-48178393D01*
X159328166Y-47970217D01*
X159306557Y-47946744D01*
X159159744Y-47787262D01*
X159056253Y-47706712D01*
X159015442Y-47650003D01*
X159008655Y-47601176D01*
X159010056Y-47578609D01*
X158281365Y-46849918D01*
X158285161Y-46849373D01*
X158418562Y-46788451D01*
X158529395Y-46692413D01*
X158608682Y-46569040D01*
X158631132Y-46492580D01*
X159363434Y-47224882D01*
X159463731Y-47071369D01*
X159563587Y-46843717D01*
X159624612Y-46602738D01*
X159624614Y-46602729D01*
X159645141Y-46355005D01*
X159645141Y-46354994D01*
X159624614Y-46107270D01*
X159624612Y-46107261D01*
X159563587Y-45866282D01*
X159463731Y-45638630D01*
X159363434Y-45485116D01*
X158631132Y-46217418D01*
X158608682Y-46140960D01*
X158529395Y-46017587D01*
X158418562Y-45921549D01*
X158285161Y-45860627D01*
X158281366Y-45860081D01*
X159010056Y-45131390D01*
X159008655Y-45108825D01*
X159024147Y-45040694D01*
X159056254Y-45003286D01*
X159071213Y-44991643D01*
X159136209Y-44966004D01*
X159147372Y-44965500D01*
X160575500Y-44965500D01*
X160642539Y-44985185D01*
X160688294Y-45037989D01*
X160699500Y-45089500D01*
X160699500Y-51065832D01*
X160698905Y-51074408D01*
X160695804Y-51096634D01*
X160699434Y-51175158D01*
X160699500Y-51178021D01*
X160699500Y-51203194D01*
X160700343Y-51212292D01*
X160701821Y-51228257D01*
X160702020Y-51231111D01*
X160705651Y-51309629D01*
X160705651Y-51309632D01*
X160710789Y-51331476D01*
X160712172Y-51339958D01*
X160714243Y-51362310D01*
X160714244Y-51362313D01*
X160735752Y-51437905D01*
X160736472Y-51440677D01*
X160754464Y-51517178D01*
X160754466Y-51517184D01*
X160763535Y-51537723D01*
X160766454Y-51545807D01*
X160772593Y-51567384D01*
X160772594Y-51567386D01*
X160772595Y-51567389D01*
X160795911Y-51614214D01*
X160807631Y-51637752D01*
X160808838Y-51640322D01*
X160840592Y-51712237D01*
X160853268Y-51730741D01*
X160857623Y-51738152D01*
X160867633Y-51758254D01*
X160915004Y-51820983D01*
X160916677Y-51823308D01*
X160961089Y-51888142D01*
X160961093Y-51888146D01*
X160976959Y-51904012D01*
X160982602Y-51910496D01*
X160996126Y-51928405D01*
X161054216Y-51981362D01*
X161056265Y-51983318D01*
X161111858Y-52038911D01*
X161111861Y-52038913D01*
X161130372Y-52051593D01*
X161137108Y-52056928D01*
X161151416Y-52069971D01*
X161153699Y-52072053D01*
X161171630Y-52083155D01*
X161220549Y-52113444D01*
X161222919Y-52114989D01*
X161287763Y-52159408D01*
X161308305Y-52168478D01*
X161315888Y-52172476D01*
X161334981Y-52184298D01*
X161334985Y-52184299D01*
X161334988Y-52184301D01*
X161376912Y-52200541D01*
X161408274Y-52212691D01*
X161410870Y-52213765D01*
X161482814Y-52245533D01*
X161504680Y-52250675D01*
X161512873Y-52253212D01*
X161533802Y-52261321D01*
X161582423Y-52270409D01*
X161611058Y-52275763D01*
X161613861Y-52276354D01*
X161690371Y-52294349D01*
X161712791Y-52295385D01*
X161721324Y-52296374D01*
X161743390Y-52300500D01*
X161821978Y-52300500D01*
X161824841Y-52300566D01*
X161834828Y-52301027D01*
X161903362Y-52304196D01*
X161925594Y-52301094D01*
X161934167Y-52300500D01*
X161956609Y-52300500D01*
X161956610Y-52300500D01*
X162033889Y-52286053D01*
X162036674Y-52285599D01*
X162102958Y-52276354D01*
X162104815Y-52276095D01*
X162113389Y-52275500D01*
X163856769Y-52275500D01*
X163923808Y-52295185D01*
X163931080Y-52300233D01*
X164022668Y-52368795D01*
X164022671Y-52368797D01*
X164157517Y-52419091D01*
X164157516Y-52419091D01*
X164164444Y-52419835D01*
X164217127Y-52425500D01*
X165912872Y-52425499D01*
X165972483Y-52419091D01*
X166107331Y-52368796D01*
X166222546Y-52282546D01*
X166308796Y-52167331D01*
X166359091Y-52032483D01*
X166365500Y-51972873D01*
X166365499Y-51972845D01*
X166365678Y-51969547D01*
X166367183Y-51969627D01*
X166385112Y-51908326D01*
X166437868Y-51862514D01*
X166481464Y-51854981D01*
X167167046Y-51169399D01*
X167179835Y-51250148D01*
X167237359Y-51363045D01*
X167326955Y-51452641D01*
X167439852Y-51510165D01*
X167520599Y-51522953D01*
X166839526Y-52204025D01*
X166839526Y-52204026D01*
X166912512Y-52255131D01*
X166912516Y-52255133D01*
X167118673Y-52351265D01*
X167118682Y-52351269D01*
X167338389Y-52410139D01*
X167338400Y-52410141D01*
X167564998Y-52429966D01*
X167565002Y-52429966D01*
X167791599Y-52410141D01*
X167791610Y-52410139D01*
X168011317Y-52351269D01*
X168011331Y-52351264D01*
X168217478Y-52255136D01*
X168290472Y-52204025D01*
X167609401Y-51522953D01*
X167690148Y-51510165D01*
X167803045Y-51452641D01*
X167892641Y-51363045D01*
X167950165Y-51250148D01*
X167962953Y-51169400D01*
X168644025Y-51850472D01*
X168695136Y-51777478D01*
X168791264Y-51571331D01*
X168791269Y-51571317D01*
X168850139Y-51351610D01*
X168850141Y-51351599D01*
X168869966Y-51125002D01*
X168869966Y-51124997D01*
X168850141Y-50898400D01*
X168850139Y-50898389D01*
X168791269Y-50678682D01*
X168791265Y-50678673D01*
X168695133Y-50472516D01*
X168695131Y-50472512D01*
X168644026Y-50399526D01*
X168644025Y-50399526D01*
X167962953Y-51080598D01*
X167950165Y-50999852D01*
X167892641Y-50886955D01*
X167803045Y-50797359D01*
X167690148Y-50739835D01*
X167609400Y-50727046D01*
X168290472Y-50045974D01*
X168290471Y-50045973D01*
X168217483Y-49994866D01*
X168217481Y-49994865D01*
X168011326Y-49898734D01*
X168011317Y-49898730D01*
X167791610Y-49839860D01*
X167791599Y-49839858D01*
X167565002Y-49820034D01*
X167564998Y-49820034D01*
X167338400Y-49839858D01*
X167338389Y-49839860D01*
X167118682Y-49898730D01*
X167118673Y-49898734D01*
X166912513Y-49994868D01*
X166839527Y-50045972D01*
X166839526Y-50045973D01*
X167520600Y-50727046D01*
X167439852Y-50739835D01*
X167326955Y-50797359D01*
X167237359Y-50886955D01*
X167179835Y-50999852D01*
X167167046Y-51080599D01*
X166480798Y-50394351D01*
X166431805Y-50384505D01*
X166381623Y-50335889D01*
X166366981Y-50280366D01*
X166365900Y-50280423D01*
X166365854Y-50280429D01*
X166365853Y-50280426D01*
X166365676Y-50280436D01*
X166365499Y-50277141D01*
X166365499Y-50277128D01*
X166359091Y-50217517D01*
X166343056Y-50174526D01*
X166308797Y-50082671D01*
X166308795Y-50082668D01*
X166240233Y-49991080D01*
X166215816Y-49925615D01*
X166215500Y-49916769D01*
X166215500Y-44224500D01*
X166235185Y-44157461D01*
X166287989Y-44111706D01*
X166339500Y-44100500D01*
X171172085Y-44100500D01*
X171239124Y-44120185D01*
G37*
%TD.AperFunction*%
%TA.AperFunction,Conductor*%
G36*
X207742539Y-27920185D02*
G01*
X207788294Y-27972989D01*
X207799500Y-28024500D01*
X207799500Y-47115750D01*
X207650323Y-104026763D01*
X207630462Y-104093751D01*
X207577539Y-104139367D01*
X207526763Y-104150437D01*
X137326643Y-104399500D01*
X109124500Y-104399500D01*
X109057461Y-104379815D01*
X109011706Y-104327011D01*
X109000500Y-104275500D01*
X109000500Y-99750002D01*
X110144652Y-99750002D01*
X110148828Y-99827027D01*
X110163628Y-100100002D01*
X110164028Y-100107368D01*
X110164029Y-100107385D01*
X110221926Y-100460539D01*
X110221932Y-100460565D01*
X110317672Y-100805392D01*
X110317674Y-100805399D01*
X110450142Y-101137870D01*
X110450151Y-101137888D01*
X110617784Y-101454077D01*
X110617790Y-101454086D01*
X110818634Y-101750309D01*
X110818641Y-101750319D01*
X111050331Y-102023085D01*
X111050332Y-102023086D01*
X111310163Y-102269211D01*
X111595081Y-102485800D01*
X111901747Y-102670315D01*
X111901749Y-102670316D01*
X111901751Y-102670317D01*
X111901755Y-102670319D01*
X112226552Y-102820585D01*
X112226565Y-102820591D01*
X112565726Y-102934868D01*
X112915254Y-103011805D01*
X113271052Y-103050500D01*
X113271058Y-103050500D01*
X113628942Y-103050500D01*
X113628948Y-103050500D01*
X113984746Y-103011805D01*
X114334274Y-102934868D01*
X114673435Y-102820591D01*
X114998253Y-102670315D01*
X115304919Y-102485800D01*
X115589837Y-102269211D01*
X115849668Y-102023086D01*
X116081365Y-101750311D01*
X116282211Y-101454085D01*
X116449853Y-101137880D01*
X116582324Y-100805403D01*
X116678071Y-100460552D01*
X116703041Y-100308240D01*
X116735970Y-100107385D01*
X116735970Y-100107382D01*
X116735972Y-100107371D01*
X116755348Y-99750000D01*
X116754948Y-99742631D01*
X116751318Y-99675668D01*
X116735972Y-99392629D01*
X116735452Y-99389460D01*
X116678073Y-99039460D01*
X116678072Y-99039459D01*
X116678071Y-99039448D01*
X116587187Y-98712111D01*
X116582327Y-98694607D01*
X116582325Y-98694600D01*
X116579812Y-98688294D01*
X116490304Y-98463644D01*
X116449857Y-98362129D01*
X116449848Y-98362111D01*
X116282215Y-98045922D01*
X116282213Y-98045919D01*
X116282211Y-98045915D01*
X116081365Y-97749689D01*
X116081361Y-97749684D01*
X116081358Y-97749680D01*
X115849668Y-97476914D01*
X115787107Y-97417653D01*
X115589837Y-97230789D01*
X115589830Y-97230783D01*
X115589827Y-97230781D01*
X115497794Y-97160820D01*
X115304919Y-97014200D01*
X114998253Y-96829685D01*
X114998252Y-96829684D01*
X114998248Y-96829682D01*
X114998244Y-96829680D01*
X114673447Y-96679414D01*
X114673441Y-96679411D01*
X114673435Y-96679409D01*
X114503854Y-96622270D01*
X114334273Y-96565131D01*
X113984744Y-96488194D01*
X113628949Y-96449500D01*
X113628948Y-96449500D01*
X113271052Y-96449500D01*
X113271050Y-96449500D01*
X112915255Y-96488194D01*
X112565726Y-96565131D01*
X112309970Y-96651306D01*
X112226565Y-96679409D01*
X112226563Y-96679410D01*
X112226552Y-96679414D01*
X111901755Y-96829680D01*
X111901751Y-96829682D01*
X111715650Y-96941656D01*
X111595081Y-97014200D01*
X111519398Y-97071733D01*
X111310172Y-97230781D01*
X111310163Y-97230789D01*
X111050331Y-97476914D01*
X110818641Y-97749680D01*
X110818634Y-97749690D01*
X110617790Y-98045913D01*
X110617784Y-98045922D01*
X110450151Y-98362111D01*
X110450142Y-98362129D01*
X110317674Y-98694600D01*
X110317672Y-98694607D01*
X110221932Y-99039434D01*
X110221926Y-99039460D01*
X110164029Y-99392614D01*
X110164028Y-99392631D01*
X110144652Y-99749997D01*
X110144652Y-99750002D01*
X109000500Y-99750002D01*
X109000500Y-51574201D01*
X117094904Y-51574201D01*
X117096804Y-51589120D01*
X117099003Y-51606385D01*
X117099500Y-51614214D01*
X117099500Y-99587937D01*
X117097355Y-99672545D01*
X117097355Y-99672546D01*
X117107615Y-99729787D01*
X117108269Y-99734452D01*
X117114154Y-99792318D01*
X117114156Y-99792326D01*
X117123865Y-99823269D01*
X117125737Y-99830898D01*
X117131460Y-99862828D01*
X117131461Y-99862830D01*
X117153032Y-99916833D01*
X117154613Y-99921272D01*
X117172025Y-99976768D01*
X117187765Y-100005125D01*
X117191135Y-100012221D01*
X117203168Y-100042343D01*
X117203170Y-100042348D01*
X117203172Y-100042351D01*
X117203173Y-100042353D01*
X117235174Y-100090908D01*
X117237605Y-100094920D01*
X117254760Y-100125826D01*
X117265841Y-100145791D01*
X117286972Y-100170406D01*
X117291703Y-100176680D01*
X117309547Y-100203757D01*
X117350666Y-100244876D01*
X117353870Y-100248332D01*
X117391757Y-100292466D01*
X117391759Y-100292468D01*
X117412838Y-100308784D01*
X117426812Y-100321409D01*
X117477674Y-100374917D01*
X117477677Y-100374919D01*
X117521626Y-100405509D01*
X117525414Y-100408145D01*
X117529161Y-100410970D01*
X117550531Y-100428395D01*
X117574244Y-100447731D01*
X117574247Y-100447733D01*
X117602995Y-100462749D01*
X117609716Y-100466821D01*
X117628046Y-100479578D01*
X117636342Y-100485353D01*
X117689800Y-100508293D01*
X117694047Y-100510311D01*
X117745594Y-100537237D01*
X117776781Y-100546160D01*
X117784169Y-100548790D01*
X117813988Y-100561587D01*
X117870970Y-100573296D01*
X117875516Y-100574411D01*
X117931449Y-100590417D01*
X117963803Y-100592879D01*
X117971562Y-100593968D01*
X118003344Y-100600500D01*
X118061504Y-100600500D01*
X118066210Y-100600678D01*
X118089623Y-100602461D01*
X118124201Y-100605095D01*
X118124201Y-100605094D01*
X118124203Y-100605095D01*
X118156385Y-100600996D01*
X118164215Y-100600500D01*
X175674332Y-100600500D01*
X175677472Y-100600580D01*
X175702918Y-100601869D01*
X175748390Y-100604176D01*
X175818583Y-100593422D01*
X175821680Y-100593027D01*
X175892321Y-100585845D01*
X175906473Y-100581404D01*
X175924808Y-100577149D01*
X175939474Y-100574903D01*
X176006075Y-100550235D01*
X176009022Y-100549229D01*
X176015355Y-100547242D01*
X176076768Y-100527974D01*
X176089734Y-100520776D01*
X176106843Y-100512914D01*
X176120753Y-100507764D01*
X176181053Y-100470178D01*
X176183677Y-100468634D01*
X176245791Y-100434159D01*
X176257048Y-100424494D01*
X176272214Y-100413357D01*
X176284807Y-100405509D01*
X176336298Y-100356561D01*
X176338569Y-100354509D01*
X176392468Y-100308240D01*
X176401542Y-100296516D01*
X176414166Y-100282543D01*
X176424919Y-100272323D01*
X176465507Y-100214006D01*
X176467327Y-100211529D01*
X176510796Y-100155373D01*
X176517323Y-100142064D01*
X176526883Y-100125826D01*
X176535353Y-100113658D01*
X176541213Y-100100002D01*
X200044652Y-100100002D01*
X200050278Y-100203759D01*
X200063505Y-100447734D01*
X200064028Y-100457368D01*
X200064029Y-100457385D01*
X200121926Y-100810539D01*
X200121932Y-100810565D01*
X200217672Y-101155392D01*
X200217674Y-101155399D01*
X200350142Y-101487870D01*
X200350151Y-101487888D01*
X200517784Y-101804077D01*
X200517787Y-101804082D01*
X200517789Y-101804085D01*
X200666275Y-102023086D01*
X200718634Y-102100309D01*
X200718641Y-102100319D01*
X200950331Y-102373085D01*
X200950332Y-102373086D01*
X201210163Y-102619211D01*
X201495081Y-102835800D01*
X201801747Y-103020315D01*
X201801749Y-103020316D01*
X201801751Y-103020317D01*
X201801755Y-103020319D01*
X201866991Y-103050500D01*
X202126565Y-103170591D01*
X202465726Y-103284868D01*
X202815254Y-103361805D01*
X203171052Y-103400500D01*
X203171058Y-103400500D01*
X203528942Y-103400500D01*
X203528948Y-103400500D01*
X203884746Y-103361805D01*
X204234274Y-103284868D01*
X204573435Y-103170591D01*
X204898253Y-103020315D01*
X205204919Y-102835800D01*
X205489837Y-102619211D01*
X205749668Y-102373086D01*
X205981365Y-102100311D01*
X206182211Y-101804085D01*
X206349853Y-101487880D01*
X206482324Y-101155403D01*
X206578071Y-100810552D01*
X206614160Y-100590417D01*
X206635970Y-100457385D01*
X206635970Y-100457382D01*
X206635972Y-100457371D01*
X206654607Y-100113659D01*
X206655348Y-100100002D01*
X206655348Y-100099997D01*
X206648940Y-99981814D01*
X206635972Y-99742629D01*
X206634631Y-99734452D01*
X206578073Y-99389460D01*
X206578072Y-99389459D01*
X206578071Y-99389448D01*
X206482324Y-99044597D01*
X206349853Y-98712120D01*
X206232128Y-98490068D01*
X206182215Y-98395922D01*
X206182213Y-98395919D01*
X206182211Y-98395915D01*
X205981365Y-98099689D01*
X205981361Y-98099684D01*
X205981358Y-98099680D01*
X205749668Y-97826914D01*
X205489837Y-97580789D01*
X205489830Y-97580783D01*
X205489827Y-97580781D01*
X205382937Y-97499526D01*
X205204919Y-97364200D01*
X204898253Y-97179685D01*
X204898252Y-97179684D01*
X204898248Y-97179682D01*
X204898244Y-97179680D01*
X204573447Y-97029414D01*
X204573441Y-97029411D01*
X204573435Y-97029409D01*
X204403854Y-96972270D01*
X204234273Y-96915131D01*
X203884744Y-96838194D01*
X203528949Y-96799500D01*
X203528948Y-96799500D01*
X203171052Y-96799500D01*
X203171050Y-96799500D01*
X202815255Y-96838194D01*
X202465726Y-96915131D01*
X202209970Y-97001306D01*
X202126565Y-97029409D01*
X202126563Y-97029410D01*
X202126552Y-97029414D01*
X201801755Y-97179680D01*
X201801751Y-97179682D01*
X201622810Y-97287348D01*
X201495081Y-97364200D01*
X201440340Y-97405813D01*
X201210172Y-97580781D01*
X201210163Y-97580789D01*
X200950331Y-97826914D01*
X200718641Y-98099680D01*
X200718634Y-98099690D01*
X200517790Y-98395913D01*
X200517784Y-98395922D01*
X200350151Y-98712111D01*
X200350142Y-98712129D01*
X200217674Y-99044600D01*
X200217672Y-99044607D01*
X200121932Y-99389434D01*
X200121926Y-99389460D01*
X200064029Y-99742614D01*
X200064028Y-99742627D01*
X200064028Y-99742629D01*
X200061206Y-99794671D01*
X200044652Y-100099997D01*
X200044652Y-100100002D01*
X176541213Y-100100002D01*
X176563368Y-100048371D01*
X176564658Y-100045565D01*
X176595930Y-99981816D01*
X176599646Y-99967462D01*
X176605735Y-99949645D01*
X176611587Y-99936012D01*
X176625887Y-99866421D01*
X176626579Y-99863438D01*
X176644385Y-99794674D01*
X176645136Y-99779862D01*
X176647516Y-99761175D01*
X176650500Y-99746655D01*
X176650500Y-99675668D01*
X176650580Y-99672528D01*
X176651827Y-99647923D01*
X176654176Y-99601610D01*
X176651930Y-99586948D01*
X176650500Y-99568172D01*
X176650500Y-89664500D01*
X176670185Y-89597461D01*
X176722989Y-89551706D01*
X176774500Y-89540500D01*
X179929242Y-89540500D01*
X179996281Y-89560185D01*
X180016923Y-89576819D01*
X180068599Y-89628495D01*
X180165384Y-89696265D01*
X180262165Y-89764032D01*
X180262167Y-89764033D01*
X180262170Y-89764035D01*
X180476337Y-89863903D01*
X180704592Y-89925063D01*
X180892918Y-89941539D01*
X180939999Y-89945659D01*
X180940000Y-89945659D01*
X180940001Y-89945659D01*
X180979234Y-89942226D01*
X181175408Y-89925063D01*
X181403663Y-89863903D01*
X181617830Y-89764035D01*
X181811401Y-89628495D01*
X181978495Y-89461401D01*
X182108425Y-89275842D01*
X182163002Y-89232217D01*
X182232500Y-89225023D01*
X182294855Y-89256546D01*
X182311575Y-89275842D01*
X182441281Y-89461082D01*
X182441505Y-89461401D01*
X182608599Y-89628495D01*
X182705384Y-89696265D01*
X182802165Y-89764032D01*
X182802167Y-89764033D01*
X182802170Y-89764035D01*
X183016337Y-89863903D01*
X183244592Y-89925063D01*
X183432918Y-89941539D01*
X183479999Y-89945659D01*
X183480000Y-89945659D01*
X183480001Y-89945659D01*
X183519234Y-89942226D01*
X183715408Y-89925063D01*
X183943663Y-89863903D01*
X184157830Y-89764035D01*
X184351401Y-89628495D01*
X184518495Y-89461401D01*
X184648730Y-89275405D01*
X184703307Y-89231781D01*
X184772805Y-89224587D01*
X184835160Y-89256110D01*
X184851879Y-89275405D01*
X184981890Y-89461078D01*
X185148917Y-89628105D01*
X185342421Y-89763600D01*
X185556507Y-89863429D01*
X185556516Y-89863433D01*
X185770000Y-89920634D01*
X185770000Y-89025501D01*
X185877685Y-89074680D01*
X185984237Y-89090000D01*
X186055763Y-89090000D01*
X186162315Y-89074680D01*
X186270000Y-89025501D01*
X186270000Y-89920633D01*
X186483483Y-89863433D01*
X186483492Y-89863429D01*
X186697578Y-89763600D01*
X186891082Y-89628105D01*
X187058105Y-89461082D01*
X187193600Y-89267578D01*
X187293429Y-89053492D01*
X187293432Y-89053486D01*
X187350636Y-88840000D01*
X186453686Y-88840000D01*
X186479493Y-88799844D01*
X186520000Y-88661889D01*
X186520000Y-88518111D01*
X186479493Y-88380156D01*
X186453686Y-88340000D01*
X187350636Y-88340000D01*
X187350635Y-88339999D01*
X187293432Y-88126513D01*
X187293429Y-88126507D01*
X187193600Y-87912422D01*
X187193599Y-87912420D01*
X187058113Y-87718926D01*
X187058108Y-87718920D01*
X186891082Y-87551894D01*
X186704968Y-87421575D01*
X186661344Y-87366998D01*
X186654151Y-87297499D01*
X186685673Y-87235145D01*
X186704968Y-87218425D01*
X186891082Y-87088105D01*
X187058105Y-86921082D01*
X187193600Y-86727578D01*
X187293429Y-86513492D01*
X187293432Y-86513486D01*
X187350636Y-86300000D01*
X186453686Y-86300000D01*
X186479493Y-86259844D01*
X186520000Y-86121889D01*
X186520000Y-85978111D01*
X186479493Y-85840156D01*
X186453686Y-85800000D01*
X187350636Y-85800000D01*
X187350635Y-85799999D01*
X187293432Y-85586513D01*
X187293429Y-85586507D01*
X187193600Y-85372422D01*
X187193599Y-85372420D01*
X187058113Y-85178926D01*
X187058108Y-85178920D01*
X186891082Y-85011894D01*
X186704968Y-84881575D01*
X186661344Y-84826998D01*
X186654151Y-84757499D01*
X186685673Y-84695145D01*
X186704968Y-84678425D01*
X186891082Y-84548105D01*
X187058105Y-84381082D01*
X187193600Y-84187578D01*
X187293429Y-83973492D01*
X187293432Y-83973486D01*
X187350636Y-83760000D01*
X186453686Y-83760000D01*
X186479493Y-83719844D01*
X186520000Y-83581889D01*
X186520000Y-83438111D01*
X186479493Y-83300156D01*
X186453686Y-83260000D01*
X187350636Y-83260000D01*
X187350635Y-83259999D01*
X187293432Y-83046513D01*
X187293429Y-83046507D01*
X187193600Y-82832422D01*
X187193599Y-82832420D01*
X187058113Y-82638926D01*
X187058108Y-82638920D01*
X186891082Y-82471894D01*
X186704968Y-82341575D01*
X186661344Y-82286998D01*
X186654151Y-82217499D01*
X186685673Y-82155145D01*
X186704968Y-82138425D01*
X186891082Y-82008105D01*
X187058105Y-81841082D01*
X187193600Y-81647578D01*
X187293429Y-81433492D01*
X187293432Y-81433486D01*
X187350636Y-81220000D01*
X186453686Y-81220000D01*
X186479493Y-81179844D01*
X186520000Y-81041889D01*
X186520000Y-80898111D01*
X186479493Y-80760156D01*
X186453686Y-80720000D01*
X187350636Y-80720000D01*
X187350635Y-80719999D01*
X187293432Y-80506513D01*
X187293429Y-80506507D01*
X187193600Y-80292422D01*
X187193599Y-80292420D01*
X187058113Y-80098926D01*
X187058108Y-80098920D01*
X186891082Y-79931894D01*
X186704968Y-79801575D01*
X186661344Y-79746998D01*
X186654151Y-79677499D01*
X186685673Y-79615145D01*
X186704968Y-79598425D01*
X186891082Y-79468105D01*
X187058105Y-79301082D01*
X187193600Y-79107578D01*
X187293429Y-78893492D01*
X187293432Y-78893486D01*
X187350636Y-78680000D01*
X186453686Y-78680000D01*
X186479493Y-78639844D01*
X186520000Y-78501889D01*
X186520000Y-78358111D01*
X186479493Y-78220156D01*
X186453686Y-78180000D01*
X187350636Y-78180000D01*
X187350635Y-78179999D01*
X187293432Y-77966513D01*
X187293429Y-77966507D01*
X187193600Y-77752422D01*
X187193599Y-77752420D01*
X187058113Y-77558926D01*
X187058108Y-77558920D01*
X186891082Y-77391894D01*
X186704968Y-77261575D01*
X186661344Y-77206998D01*
X186654151Y-77137499D01*
X186685673Y-77075145D01*
X186704968Y-77058425D01*
X186891082Y-76928105D01*
X187058105Y-76761082D01*
X187193600Y-76567578D01*
X187293429Y-76353492D01*
X187293432Y-76353486D01*
X187350636Y-76140000D01*
X186453686Y-76140000D01*
X186479493Y-76099844D01*
X186520000Y-75961889D01*
X186520000Y-75818111D01*
X186479493Y-75680156D01*
X186453686Y-75640000D01*
X187350636Y-75640000D01*
X187350635Y-75639999D01*
X187293432Y-75426513D01*
X187293429Y-75426507D01*
X187193600Y-75212422D01*
X187193599Y-75212420D01*
X187058113Y-75018926D01*
X187058108Y-75018920D01*
X186891082Y-74851894D01*
X186704968Y-74721575D01*
X186661344Y-74666998D01*
X186654151Y-74597499D01*
X186685673Y-74535145D01*
X186704968Y-74518425D01*
X186891082Y-74388105D01*
X187058105Y-74221082D01*
X187193600Y-74027578D01*
X187293429Y-73813492D01*
X187293432Y-73813486D01*
X187350636Y-73600000D01*
X186453686Y-73600000D01*
X186479493Y-73559844D01*
X186520000Y-73421889D01*
X186520000Y-73278111D01*
X186479493Y-73140156D01*
X186453686Y-73100000D01*
X187350636Y-73100000D01*
X187350635Y-73099999D01*
X187293432Y-72886513D01*
X187293429Y-72886507D01*
X187193600Y-72672422D01*
X187193599Y-72672420D01*
X187058113Y-72478926D01*
X187058108Y-72478920D01*
X186891082Y-72311894D01*
X186704968Y-72181575D01*
X186661344Y-72126998D01*
X186654151Y-72057499D01*
X186685673Y-71995145D01*
X186704968Y-71978425D01*
X186891082Y-71848105D01*
X187058105Y-71681082D01*
X187193600Y-71487578D01*
X187293429Y-71273492D01*
X187293432Y-71273486D01*
X187350636Y-71060000D01*
X186453686Y-71060000D01*
X186479493Y-71019844D01*
X186520000Y-70881889D01*
X186520000Y-70738111D01*
X186479493Y-70600156D01*
X186453686Y-70560000D01*
X187350636Y-70560000D01*
X187350635Y-70559999D01*
X187293432Y-70346513D01*
X187293429Y-70346507D01*
X187193600Y-70132422D01*
X187193599Y-70132420D01*
X187058113Y-69938926D01*
X187058108Y-69938920D01*
X186891082Y-69771894D01*
X186704968Y-69641575D01*
X186661344Y-69586998D01*
X186654151Y-69517499D01*
X186685673Y-69455145D01*
X186704968Y-69438425D01*
X186891082Y-69308105D01*
X187058105Y-69141082D01*
X187193600Y-68947578D01*
X187293429Y-68733492D01*
X187293432Y-68733486D01*
X187350636Y-68520000D01*
X186453686Y-68520000D01*
X186479493Y-68479844D01*
X186520000Y-68341889D01*
X186520000Y-68198111D01*
X186479493Y-68060156D01*
X186453686Y-68020000D01*
X187350636Y-68020000D01*
X187350635Y-68019999D01*
X187293432Y-67806513D01*
X187293429Y-67806507D01*
X187193600Y-67592422D01*
X187193599Y-67592420D01*
X187058113Y-67398926D01*
X187058108Y-67398920D01*
X186935665Y-67276477D01*
X186902180Y-67215154D01*
X186907164Y-67145462D01*
X186949036Y-67089529D01*
X186980013Y-67072614D01*
X187112086Y-67023354D01*
X187112093Y-67023350D01*
X187227187Y-66937190D01*
X187227190Y-66937187D01*
X187313350Y-66822093D01*
X187313354Y-66822086D01*
X187363596Y-66687379D01*
X187363598Y-66687372D01*
X187369999Y-66627844D01*
X187370000Y-66627827D01*
X187370000Y-65980000D01*
X186453686Y-65980000D01*
X186479493Y-65939844D01*
X186520000Y-65801889D01*
X186520000Y-65658111D01*
X186479493Y-65520156D01*
X186453686Y-65480000D01*
X187370000Y-65480000D01*
X187370000Y-64832172D01*
X187369999Y-64832155D01*
X187363598Y-64772627D01*
X187363596Y-64772620D01*
X187313354Y-64637913D01*
X187313350Y-64637906D01*
X187227190Y-64522812D01*
X187227187Y-64522809D01*
X187112093Y-64436649D01*
X187112086Y-64436645D01*
X186977379Y-64386403D01*
X186977372Y-64386401D01*
X186917844Y-64380000D01*
X186270000Y-64380000D01*
X186270000Y-65294498D01*
X186162315Y-65245320D01*
X186055763Y-65230000D01*
X185984237Y-65230000D01*
X185877685Y-65245320D01*
X185770000Y-65294498D01*
X185770000Y-64380000D01*
X185122155Y-64380000D01*
X185062627Y-64386401D01*
X185062620Y-64386403D01*
X184927913Y-64436645D01*
X184927910Y-64436647D01*
X184828811Y-64510833D01*
X184763347Y-64535250D01*
X184695074Y-64520398D01*
X184645668Y-64470993D01*
X184630500Y-64411566D01*
X184630500Y-55177914D01*
X184650185Y-55110875D01*
X184666814Y-55090238D01*
X192060234Y-47696817D01*
X192121557Y-47663333D01*
X192147915Y-47660499D01*
X194517871Y-47660499D01*
X194517872Y-47660499D01*
X194577483Y-47654091D01*
X194712331Y-47603796D01*
X194827546Y-47517546D01*
X194913796Y-47402331D01*
X194964091Y-47267483D01*
X194970500Y-47207873D01*
X194970499Y-45160000D01*
X196720000Y-45160000D01*
X198220000Y-45160000D01*
X198220000Y-45660000D01*
X196720001Y-45660000D01*
X196720001Y-46474192D01*
X196730400Y-46606332D01*
X196785377Y-46824519D01*
X196878428Y-47029374D01*
X196878431Y-47029380D01*
X197006559Y-47214323D01*
X197006569Y-47214335D01*
X197165664Y-47373430D01*
X197165676Y-47373440D01*
X197350619Y-47501568D01*
X197350625Y-47501571D01*
X197555480Y-47594622D01*
X197773667Y-47649599D01*
X197905807Y-47660000D01*
X198469999Y-47659999D01*
X198470000Y-47659998D01*
X198470000Y-46843686D01*
X198510156Y-46869493D01*
X198648111Y-46910000D01*
X198791889Y-46910000D01*
X198929844Y-46869493D01*
X198970000Y-46843686D01*
X198970000Y-47659999D01*
X199534192Y-47659999D01*
X199666332Y-47649599D01*
X199884519Y-47594622D01*
X200089374Y-47501571D01*
X200089380Y-47501568D01*
X200274323Y-47373440D01*
X200274335Y-47373430D01*
X200433430Y-47214335D01*
X200433440Y-47214323D01*
X200561568Y-47029380D01*
X200561571Y-47029374D01*
X200654622Y-46824519D01*
X200709599Y-46606332D01*
X200720000Y-46474194D01*
X200720000Y-45660000D01*
X199220000Y-45660000D01*
X199220000Y-45160000D01*
X200719999Y-45160000D01*
X200719999Y-44345808D01*
X200709599Y-44213667D01*
X200654622Y-43995480D01*
X200561571Y-43790625D01*
X200561568Y-43790619D01*
X200433440Y-43605676D01*
X200433430Y-43605664D01*
X200274335Y-43446569D01*
X200274323Y-43446559D01*
X200089380Y-43318431D01*
X200089374Y-43318428D01*
X199884519Y-43225377D01*
X199666332Y-43170400D01*
X199534194Y-43160000D01*
X198970000Y-43160000D01*
X198970000Y-43976313D01*
X198929844Y-43950507D01*
X198791889Y-43910000D01*
X198648111Y-43910000D01*
X198510156Y-43950507D01*
X198470000Y-43976313D01*
X198470000Y-43160000D01*
X198469999Y-43160000D01*
X197905808Y-43160001D01*
X197773667Y-43170400D01*
X197555480Y-43225377D01*
X197350625Y-43318428D01*
X197350619Y-43318431D01*
X197165676Y-43446559D01*
X197165664Y-43446569D01*
X197006569Y-43605664D01*
X197006559Y-43605676D01*
X196878431Y-43790619D01*
X196878428Y-43790625D01*
X196785377Y-43995480D01*
X196730400Y-44213667D01*
X196720000Y-44345806D01*
X196720000Y-45160000D01*
X194970499Y-45160000D01*
X194970499Y-43612128D01*
X194964091Y-43552517D01*
X194924571Y-43446559D01*
X194913797Y-43417671D01*
X194913793Y-43417664D01*
X194827547Y-43302455D01*
X194827544Y-43302452D01*
X194712335Y-43216206D01*
X194712328Y-43216202D01*
X194663492Y-43197988D01*
X194607558Y-43156117D01*
X194583141Y-43090653D01*
X194597992Y-43022380D01*
X194647397Y-42972974D01*
X194713404Y-42957981D01*
X194751408Y-42959999D01*
X195469999Y-42959999D01*
X195470000Y-42959998D01*
X195470000Y-41210000D01*
X195970000Y-41210000D01*
X195970000Y-42959999D01*
X196688591Y-42959999D01*
X196741190Y-42957205D01*
X196970987Y-42912762D01*
X197189975Y-42830120D01*
X197391841Y-42711660D01*
X197391848Y-42711655D01*
X197570786Y-42560788D01*
X197570788Y-42560786D01*
X197721655Y-42381848D01*
X197721660Y-42381841D01*
X197840120Y-42179975D01*
X197922762Y-41960987D01*
X197967205Y-41731191D01*
X197967205Y-41731190D01*
X197970000Y-41678591D01*
X197970000Y-40960000D01*
X197153686Y-40960000D01*
X197179493Y-40919844D01*
X197220000Y-40781889D01*
X197220000Y-40638111D01*
X197179493Y-40500156D01*
X197153686Y-40460000D01*
X197969999Y-40460000D01*
X197969999Y-39741409D01*
X197967205Y-39688809D01*
X197922762Y-39459012D01*
X197840120Y-39240024D01*
X197721660Y-39038158D01*
X197721655Y-39038151D01*
X197570788Y-38859213D01*
X197570786Y-38859211D01*
X197391848Y-38708344D01*
X197391841Y-38708339D01*
X197189975Y-38589879D01*
X196970987Y-38507237D01*
X196741191Y-38462794D01*
X196688591Y-38460000D01*
X195970000Y-38460000D01*
X195970000Y-40210000D01*
X195470000Y-40210000D01*
X195470000Y-38460000D01*
X195469999Y-38460000D01*
X194751409Y-38460001D01*
X194698809Y-38462794D01*
X194469012Y-38507237D01*
X194250024Y-38589879D01*
X194048158Y-38708339D01*
X194048151Y-38708344D01*
X193869213Y-38859211D01*
X193869211Y-38859213D01*
X193718344Y-39038151D01*
X193718339Y-39038158D01*
X193599879Y-39240024D01*
X193517237Y-39459012D01*
X193472794Y-39688808D01*
X193472794Y-39688809D01*
X193470000Y-39741409D01*
X193470000Y-40460000D01*
X194286314Y-40460000D01*
X194260507Y-40500156D01*
X194220000Y-40638111D01*
X194220000Y-40781889D01*
X194260507Y-40919844D01*
X194286314Y-40960000D01*
X193470001Y-40960000D01*
X193470001Y-41678591D01*
X193472794Y-41731190D01*
X193517237Y-41960987D01*
X193599879Y-42179975D01*
X193718339Y-42381841D01*
X193718344Y-42381848D01*
X193869211Y-42560786D01*
X193869213Y-42560788D01*
X194048151Y-42711655D01*
X194048158Y-42711660D01*
X194250024Y-42830120D01*
X194469012Y-42912762D01*
X194474150Y-42913756D01*
X194536232Y-42945812D01*
X194571127Y-43006344D01*
X194567758Y-43076132D01*
X194527193Y-43133020D01*
X194462311Y-43158946D01*
X194450604Y-43159500D01*
X190922129Y-43159500D01*
X190922123Y-43159501D01*
X190862516Y-43165908D01*
X190727671Y-43216202D01*
X190727664Y-43216206D01*
X190612455Y-43302452D01*
X190612452Y-43302455D01*
X190526206Y-43417664D01*
X190526202Y-43417671D01*
X190475908Y-43552517D01*
X190469501Y-43612116D01*
X190469501Y-43612123D01*
X190469500Y-43612135D01*
X190469500Y-45982084D01*
X190449815Y-46049123D01*
X190433181Y-46069765D01*
X183527680Y-52975265D01*
X183466357Y-53008750D01*
X183396665Y-53003766D01*
X183352318Y-52975265D01*
X177955662Y-47578609D01*
X172533318Y-42156265D01*
X172531362Y-42154216D01*
X172478405Y-42096126D01*
X172415708Y-42048779D01*
X172413464Y-42047001D01*
X172352975Y-41996773D01*
X172333364Y-41985850D01*
X172326161Y-41981156D01*
X172308258Y-41967636D01*
X172308249Y-41967630D01*
X172237903Y-41932602D01*
X172235370Y-41931267D01*
X172166703Y-41893021D01*
X172166698Y-41893019D01*
X172145420Y-41885887D01*
X172137480Y-41882599D01*
X172117391Y-41872595D01*
X172041801Y-41851088D01*
X172039065Y-41850241D01*
X171964533Y-41825260D01*
X171942303Y-41822159D01*
X171933895Y-41820385D01*
X171912310Y-41814244D01*
X171912299Y-41814243D01*
X171834035Y-41806990D01*
X171831205Y-41806662D01*
X171805373Y-41803058D01*
X171753365Y-41795804D01*
X171753362Y-41795804D01*
X171717614Y-41797456D01*
X171674841Y-41799434D01*
X171671978Y-41799500D01*
X165508022Y-41799500D01*
X165505159Y-41799434D01*
X165472344Y-41797917D01*
X165426638Y-41795804D01*
X165426636Y-41795804D01*
X165426633Y-41795804D01*
X165348801Y-41806661D01*
X165345957Y-41806991D01*
X165267691Y-41814243D01*
X165246099Y-41820386D01*
X165237690Y-41822160D01*
X165215464Y-41825260D01*
X165215463Y-41825261D01*
X165140932Y-41850241D01*
X165138197Y-41851088D01*
X165104757Y-41860602D01*
X165062611Y-41872595D01*
X165062608Y-41872596D01*
X165062601Y-41872599D01*
X165042513Y-41882601D01*
X165034575Y-41885889D01*
X165013297Y-41893021D01*
X164944637Y-41931263D01*
X164942105Y-41932598D01*
X164871743Y-41967634D01*
X164871742Y-41967634D01*
X164853839Y-41981155D01*
X164846639Y-41985847D01*
X164827031Y-41996769D01*
X164827021Y-41996775D01*
X164766553Y-42046987D01*
X164764309Y-42048765D01*
X164701593Y-42096127D01*
X164701590Y-42096130D01*
X164648638Y-42154215D01*
X164646660Y-42156286D01*
X164271277Y-42531669D01*
X164269206Y-42533646D01*
X164211125Y-42586595D01*
X164211123Y-42586597D01*
X164163770Y-42649301D01*
X164161993Y-42651545D01*
X164111773Y-42712024D01*
X164111770Y-42712029D01*
X164100847Y-42731639D01*
X164096155Y-42738839D01*
X164082634Y-42756742D01*
X164082634Y-42756743D01*
X164047598Y-42827105D01*
X164046263Y-42829637D01*
X164008021Y-42898297D01*
X164000889Y-42919575D01*
X163997601Y-42927513D01*
X163987599Y-42947601D01*
X163987596Y-42947608D01*
X163987595Y-42947611D01*
X163984070Y-42959999D01*
X163966088Y-43023197D01*
X163965241Y-43025932D01*
X163940261Y-43100463D01*
X163940260Y-43100464D01*
X163937160Y-43122690D01*
X163935386Y-43131099D01*
X163929243Y-43152691D01*
X163921991Y-43230957D01*
X163921661Y-43233801D01*
X163910804Y-43311633D01*
X163910804Y-43311636D01*
X163910804Y-43311638D01*
X163912921Y-43357439D01*
X163914434Y-43390158D01*
X163914500Y-43393021D01*
X163914500Y-49850500D01*
X163894815Y-49917539D01*
X163842011Y-49963294D01*
X163790500Y-49974500D01*
X163124500Y-49974500D01*
X163057461Y-49954815D01*
X163011706Y-49902011D01*
X163000500Y-49850500D01*
X163000500Y-44128021D01*
X163000566Y-44125158D01*
X163001706Y-44100500D01*
X163004196Y-44046638D01*
X162993336Y-43968789D01*
X162993007Y-43965948D01*
X162985756Y-43887691D01*
X162979613Y-43866104D01*
X162977840Y-43857701D01*
X162974739Y-43835464D01*
X162949736Y-43760869D01*
X162948929Y-43758262D01*
X162927405Y-43682611D01*
X162927311Y-43682423D01*
X162917401Y-43662519D01*
X162914110Y-43654576D01*
X162906979Y-43633299D01*
X162906977Y-43633295D01*
X162895188Y-43612129D01*
X162868727Y-43564622D01*
X162867408Y-43562120D01*
X162832369Y-43491752D01*
X162832366Y-43491745D01*
X162818845Y-43473841D01*
X162814150Y-43466637D01*
X162803227Y-43447025D01*
X162753005Y-43386546D01*
X162751227Y-43384301D01*
X162703871Y-43321592D01*
X162682876Y-43302452D01*
X162645773Y-43268628D01*
X162643735Y-43266682D01*
X162398320Y-43021267D01*
X162396364Y-43019218D01*
X162343408Y-42961129D01*
X162343408Y-42961128D01*
X162280708Y-42913779D01*
X162278464Y-42912001D01*
X162217975Y-42861773D01*
X162198364Y-42850850D01*
X162191161Y-42846156D01*
X162173258Y-42832636D01*
X162173249Y-42832630D01*
X162102903Y-42797602D01*
X162100370Y-42796267D01*
X162031703Y-42758021D01*
X162031698Y-42758019D01*
X162010420Y-42750887D01*
X162002480Y-42747599D01*
X161982391Y-42737595D01*
X161906801Y-42716088D01*
X161904065Y-42715241D01*
X161880259Y-42707262D01*
X161829536Y-42690261D01*
X161829535Y-42690260D01*
X161829533Y-42690260D01*
X161807303Y-42687159D01*
X161798895Y-42685385D01*
X161777310Y-42679244D01*
X161699035Y-42671990D01*
X161696205Y-42671662D01*
X161670373Y-42668058D01*
X161618365Y-42660804D01*
X161618362Y-42660804D01*
X161582614Y-42662456D01*
X161539841Y-42664434D01*
X161536978Y-42664500D01*
X159147372Y-42664500D01*
X159080333Y-42644815D01*
X159071210Y-42638353D01*
X158963512Y-42554528D01*
X158963508Y-42554525D01*
X158744811Y-42436172D01*
X158744802Y-42436169D01*
X158509616Y-42355429D01*
X158264335Y-42314500D01*
X158015665Y-42314500D01*
X157770383Y-42355429D01*
X157535197Y-42436169D01*
X157535188Y-42436172D01*
X157316493Y-42554524D01*
X157120257Y-42707261D01*
X156951833Y-42890217D01*
X156815826Y-43098393D01*
X156715936Y-43326118D01*
X156654892Y-43567175D01*
X156654890Y-43567187D01*
X156634357Y-43814994D01*
X156634357Y-43815005D01*
X156654890Y-44062812D01*
X156654892Y-44062824D01*
X156715936Y-44303881D01*
X156815826Y-44531606D01*
X156951833Y-44739782D01*
X156951836Y-44739785D01*
X157120256Y-44922738D01*
X157120259Y-44922740D01*
X157120262Y-44922743D01*
X157223743Y-45003286D01*
X157264556Y-45059996D01*
X157271343Y-45108823D01*
X157269941Y-45131389D01*
X157998634Y-45860081D01*
X157994839Y-45860627D01*
X157861438Y-45921549D01*
X157750605Y-46017587D01*
X157671318Y-46140960D01*
X157648867Y-46217419D01*
X156916564Y-45485116D01*
X156816267Y-45638632D01*
X156716412Y-45866282D01*
X156655387Y-46107261D01*
X156655385Y-46107270D01*
X156634859Y-46354994D01*
X156634859Y-46355005D01*
X156655385Y-46602729D01*
X156655387Y-46602738D01*
X156716412Y-46843717D01*
X156816266Y-47071364D01*
X156916564Y-47224882D01*
X157648866Y-46492580D01*
X157671318Y-46569040D01*
X157750605Y-46692413D01*
X157861438Y-46788451D01*
X157994839Y-46849373D01*
X157998634Y-46849918D01*
X157269942Y-47578609D01*
X157271343Y-47601177D01*
X157255850Y-47669307D01*
X157223744Y-47706713D01*
X157120258Y-47787260D01*
X156951833Y-47970217D01*
X156815826Y-48178393D01*
X156715936Y-48406118D01*
X156654892Y-48647175D01*
X156654890Y-48647187D01*
X156634357Y-48894994D01*
X156634357Y-48895005D01*
X156654890Y-49142812D01*
X156654892Y-49142824D01*
X156715936Y-49383881D01*
X156815826Y-49611606D01*
X156951833Y-49819782D01*
X156951836Y-49819785D01*
X157120256Y-50002738D01*
X157203008Y-50067147D01*
X157243821Y-50123857D01*
X157247496Y-50193630D01*
X157212864Y-50254313D01*
X157203014Y-50262848D01*
X157180508Y-50280366D01*
X157120257Y-50327261D01*
X156951833Y-50510217D01*
X156815826Y-50718393D01*
X156715936Y-50946118D01*
X156654892Y-51187175D01*
X156654890Y-51187187D01*
X156634357Y-51434994D01*
X156634357Y-51435005D01*
X156654890Y-51682812D01*
X156654892Y-51682824D01*
X156715936Y-51923881D01*
X156815826Y-52151606D01*
X156951833Y-52359782D01*
X156951836Y-52359785D01*
X157120256Y-52542738D01*
X157203008Y-52607147D01*
X157243821Y-52663857D01*
X157247496Y-52733630D01*
X157212864Y-52794313D01*
X157203014Y-52802848D01*
X157144400Y-52848469D01*
X157120257Y-52867261D01*
X156951833Y-53050217D01*
X156815826Y-53258393D01*
X156715936Y-53486118D01*
X156654892Y-53727175D01*
X156654890Y-53727187D01*
X156634357Y-53974994D01*
X156634357Y-53975005D01*
X156654890Y-54222812D01*
X156654892Y-54222824D01*
X156715936Y-54463881D01*
X156815826Y-54691606D01*
X156951833Y-54899782D01*
X156951836Y-54899785D01*
X157120256Y-55082738D01*
X157203008Y-55147147D01*
X157243821Y-55203857D01*
X157247496Y-55273630D01*
X157212864Y-55334313D01*
X157203014Y-55342848D01*
X157144400Y-55388469D01*
X157120257Y-55407261D01*
X156951833Y-55590217D01*
X156815826Y-55798393D01*
X156715936Y-56026118D01*
X156654892Y-56267175D01*
X156654890Y-56267187D01*
X156634357Y-56514994D01*
X156634357Y-56515005D01*
X156654890Y-56762812D01*
X156654892Y-56762824D01*
X156715936Y-57003881D01*
X156815826Y-57231606D01*
X156951833Y-57439782D01*
X156951836Y-57439785D01*
X157120256Y-57622738D01*
X157203008Y-57687147D01*
X157243821Y-57743857D01*
X157247496Y-57813630D01*
X157212864Y-57874313D01*
X157203014Y-57882848D01*
X157144400Y-57928469D01*
X157120257Y-57947261D01*
X156951833Y-58130217D01*
X156815826Y-58338393D01*
X156715936Y-58566118D01*
X156654892Y-58807175D01*
X156654890Y-58807187D01*
X156634357Y-59054994D01*
X156634357Y-59055005D01*
X156654890Y-59302812D01*
X156654892Y-59302824D01*
X156715936Y-59543881D01*
X156815826Y-59771606D01*
X156951833Y-59979782D01*
X156951836Y-59979785D01*
X157120256Y-60162738D01*
X157203008Y-60227147D01*
X157243821Y-60283857D01*
X157247496Y-60353630D01*
X157212864Y-60414313D01*
X157203014Y-60422848D01*
X157144400Y-60468469D01*
X157120257Y-60487261D01*
X156951833Y-60670217D01*
X156815826Y-60878393D01*
X156715936Y-61106118D01*
X156654892Y-61347175D01*
X156654890Y-61347187D01*
X156634357Y-61594994D01*
X156634357Y-61595005D01*
X156654890Y-61842812D01*
X156654892Y-61842824D01*
X156715936Y-62083881D01*
X156815826Y-62311606D01*
X156951833Y-62519782D01*
X156984245Y-62554991D01*
X157120256Y-62702738D01*
X157203008Y-62767147D01*
X157243821Y-62823857D01*
X157247496Y-62893630D01*
X157212864Y-62954313D01*
X157203014Y-62962848D01*
X157144400Y-63008469D01*
X157120257Y-63027261D01*
X156951833Y-63210217D01*
X156815826Y-63418393D01*
X156715936Y-63646118D01*
X156654892Y-63887175D01*
X156654890Y-63887187D01*
X156634357Y-64134994D01*
X156634357Y-64135005D01*
X156654890Y-64382812D01*
X156654892Y-64382824D01*
X156715936Y-64623881D01*
X156815826Y-64851606D01*
X156951833Y-65059782D01*
X156951836Y-65059785D01*
X157120256Y-65242738D01*
X157203008Y-65307147D01*
X157243821Y-65363857D01*
X157247496Y-65433630D01*
X157212864Y-65494313D01*
X157203014Y-65502848D01*
X157202481Y-65503264D01*
X157120257Y-65567261D01*
X156951833Y-65750217D01*
X156815826Y-65958393D01*
X156715936Y-66186118D01*
X156654892Y-66427175D01*
X156654890Y-66427187D01*
X156634357Y-66674994D01*
X156634357Y-66675005D01*
X156654890Y-66922812D01*
X156654892Y-66922824D01*
X156715936Y-67163881D01*
X156815826Y-67391606D01*
X156951833Y-67599782D01*
X156951836Y-67599785D01*
X157120256Y-67782738D01*
X157203008Y-67847147D01*
X157243821Y-67903857D01*
X157247496Y-67973630D01*
X157212864Y-68034313D01*
X157203014Y-68042848D01*
X157180778Y-68060156D01*
X157120257Y-68107261D01*
X156951833Y-68290217D01*
X156815826Y-68498393D01*
X156715936Y-68726118D01*
X156654892Y-68967175D01*
X156654890Y-68967187D01*
X156634357Y-69214994D01*
X156634357Y-69215005D01*
X156654890Y-69462812D01*
X156654892Y-69462824D01*
X156715936Y-69703881D01*
X156815826Y-69931606D01*
X156951833Y-70139782D01*
X156969895Y-70159402D01*
X157120256Y-70322738D01*
X157203008Y-70387147D01*
X157243821Y-70443857D01*
X157247496Y-70513630D01*
X157212864Y-70574313D01*
X157203014Y-70582848D01*
X157180778Y-70600156D01*
X157120257Y-70647261D01*
X156951833Y-70830217D01*
X156815826Y-71038393D01*
X156715936Y-71266118D01*
X156654892Y-71507175D01*
X156654890Y-71507187D01*
X156634357Y-71754994D01*
X156634357Y-71755005D01*
X156654890Y-72002812D01*
X156654892Y-72002824D01*
X156715936Y-72243881D01*
X156815826Y-72471606D01*
X156951833Y-72679782D01*
X156969895Y-72699402D01*
X157120256Y-72862738D01*
X157203008Y-72927147D01*
X157243821Y-72983857D01*
X157247496Y-73053630D01*
X157212864Y-73114313D01*
X157203014Y-73122848D01*
X157180778Y-73140156D01*
X157120257Y-73187261D01*
X156951833Y-73370217D01*
X156815826Y-73578393D01*
X156715936Y-73806118D01*
X156654892Y-74047175D01*
X156654890Y-74047187D01*
X156634357Y-74294994D01*
X156634357Y-74295005D01*
X156654890Y-74542812D01*
X156654892Y-74542824D01*
X156715936Y-74783881D01*
X156815826Y-75011606D01*
X156951833Y-75219782D01*
X156969895Y-75239402D01*
X157120256Y-75402738D01*
X157203008Y-75467147D01*
X157243821Y-75523857D01*
X157247496Y-75593630D01*
X157212864Y-75654313D01*
X157203014Y-75662848D01*
X157180778Y-75680156D01*
X157120257Y-75727261D01*
X156951833Y-75910217D01*
X156815826Y-76118393D01*
X156715936Y-76346118D01*
X156654892Y-76587175D01*
X156654890Y-76587187D01*
X156634357Y-76834994D01*
X156634357Y-76835005D01*
X156654890Y-77082812D01*
X156654892Y-77082824D01*
X156715936Y-77323881D01*
X156815826Y-77551606D01*
X156951833Y-77759782D01*
X156969895Y-77779402D01*
X157120256Y-77942738D01*
X157203008Y-78007147D01*
X157243821Y-78063857D01*
X157247496Y-78133630D01*
X157212864Y-78194313D01*
X157203014Y-78202848D01*
X157180778Y-78220156D01*
X157120257Y-78267261D01*
X156951833Y-78450217D01*
X156815826Y-78658393D01*
X156715936Y-78886118D01*
X156654892Y-79127175D01*
X156654890Y-79127187D01*
X156634357Y-79374994D01*
X156634357Y-79375005D01*
X156654890Y-79622812D01*
X156654892Y-79622824D01*
X156715936Y-79863881D01*
X156815826Y-80091606D01*
X156951833Y-80299782D01*
X156980525Y-80330950D01*
X157120256Y-80482738D01*
X157316491Y-80635474D01*
X157535190Y-80753828D01*
X157602710Y-80777007D01*
X157708188Y-80813219D01*
X157765203Y-80853605D01*
X157791334Y-80918404D01*
X157778282Y-80987044D01*
X157730194Y-81037732D01*
X157667925Y-81054500D01*
X157604500Y-81054500D01*
X157408379Y-81069196D01*
X157408374Y-81069197D01*
X157152597Y-81127576D01*
X157152578Y-81127582D01*
X156908356Y-81223432D01*
X156681143Y-81354614D01*
X156476014Y-81518198D01*
X156297567Y-81710520D01*
X156199577Y-81854245D01*
X156154406Y-81920500D01*
X156149768Y-81927302D01*
X156149767Y-81927303D01*
X156035938Y-82163673D01*
X155958606Y-82414376D01*
X155958605Y-82414381D01*
X155958604Y-82414385D01*
X155949936Y-82471891D01*
X155919500Y-82673812D01*
X155919500Y-82936187D01*
X155936104Y-83046342D01*
X155958604Y-83195615D01*
X155958605Y-83195617D01*
X155958606Y-83195623D01*
X156035938Y-83446326D01*
X156149767Y-83682696D01*
X156149768Y-83682697D01*
X156149770Y-83682700D01*
X156149772Y-83682704D01*
X156199577Y-83755754D01*
X156297567Y-83899479D01*
X156476014Y-84091801D01*
X156476018Y-84091804D01*
X156476019Y-84091805D01*
X156681143Y-84255386D01*
X156908357Y-84386568D01*
X157152584Y-84482420D01*
X157408370Y-84540802D01*
X157408376Y-84540802D01*
X157408379Y-84540803D01*
X157604500Y-84555500D01*
X157604506Y-84555500D01*
X157735500Y-84555500D01*
X157931620Y-84540803D01*
X157931622Y-84540802D01*
X157931630Y-84540802D01*
X158187416Y-84482420D01*
X158431643Y-84386568D01*
X158658857Y-84255386D01*
X158863981Y-84091805D01*
X159042433Y-83899479D01*
X159190228Y-83682704D01*
X159304063Y-83446323D01*
X159381396Y-83195615D01*
X159420500Y-82936182D01*
X159420500Y-82673818D01*
X159381396Y-82414385D01*
X159304063Y-82163677D01*
X159291902Y-82138425D01*
X159190232Y-81927303D01*
X159190231Y-81927302D01*
X159190230Y-81927301D01*
X159190228Y-81927296D01*
X159042433Y-81710521D01*
X158996851Y-81661395D01*
X158863985Y-81518198D01*
X158803546Y-81470000D01*
X158658857Y-81354614D01*
X158431643Y-81223432D01*
X158187416Y-81127580D01*
X158187411Y-81127578D01*
X158187402Y-81127576D01*
X158155921Y-81120391D01*
X158094942Y-81086283D01*
X158062084Y-81024621D01*
X158067779Y-80954984D01*
X158110219Y-80899480D01*
X158175929Y-80875732D01*
X158183513Y-80875500D01*
X158264335Y-80875500D01*
X158509614Y-80834571D01*
X158744810Y-80753828D01*
X158963509Y-80635474D01*
X159159744Y-80482738D01*
X159328164Y-80299785D01*
X159464173Y-80091607D01*
X159564063Y-79863881D01*
X159625108Y-79622821D01*
X159625109Y-79622812D01*
X159645643Y-79375005D01*
X159645643Y-79374994D01*
X159625109Y-79127187D01*
X159625107Y-79127175D01*
X159564063Y-78886118D01*
X159464173Y-78658393D01*
X159328166Y-78450217D01*
X159243376Y-78358111D01*
X159159744Y-78267262D01*
X159076991Y-78202852D01*
X159036179Y-78146143D01*
X159032504Y-78076370D01*
X159067136Y-78015687D01*
X159076985Y-78007151D01*
X159159744Y-77942738D01*
X159328164Y-77759785D01*
X159464173Y-77551607D01*
X159564063Y-77323881D01*
X159625108Y-77082821D01*
X159627130Y-77058425D01*
X159645643Y-76835005D01*
X159645643Y-76834994D01*
X159625109Y-76587187D01*
X159625107Y-76587175D01*
X159564063Y-76346118D01*
X159464173Y-76118393D01*
X159328166Y-75910217D01*
X159243376Y-75818111D01*
X159159744Y-75727262D01*
X159076991Y-75662852D01*
X159036179Y-75606143D01*
X159032504Y-75536370D01*
X159067136Y-75475687D01*
X159076985Y-75467151D01*
X159159744Y-75402738D01*
X159328164Y-75219785D01*
X159464173Y-75011607D01*
X159564063Y-74783881D01*
X159625108Y-74542821D01*
X159627130Y-74518425D01*
X159645643Y-74295005D01*
X159645643Y-74294994D01*
X159625109Y-74047187D01*
X159625107Y-74047175D01*
X159564063Y-73806118D01*
X159464173Y-73578393D01*
X159328166Y-73370217D01*
X159243376Y-73278111D01*
X159159744Y-73187262D01*
X159076991Y-73122852D01*
X159036179Y-73066143D01*
X159032504Y-72996370D01*
X159067136Y-72935687D01*
X159076985Y-72927151D01*
X159159744Y-72862738D01*
X159328164Y-72679785D01*
X159464173Y-72471607D01*
X159564063Y-72243881D01*
X159625108Y-72002821D01*
X159642178Y-71796819D01*
X159645643Y-71755005D01*
X159645643Y-71754994D01*
X159625109Y-71507187D01*
X159625107Y-71507175D01*
X159564063Y-71266118D01*
X159464173Y-71038393D01*
X159328166Y-70830217D01*
X159243376Y-70738111D01*
X159159744Y-70647262D01*
X159076991Y-70582852D01*
X159036179Y-70526143D01*
X159032504Y-70456370D01*
X159067136Y-70395687D01*
X159076985Y-70387151D01*
X159159744Y-70322738D01*
X159328164Y-70139785D01*
X159464173Y-69931607D01*
X159564063Y-69703881D01*
X159625108Y-69462821D01*
X159629674Y-69407718D01*
X159645643Y-69215005D01*
X159645643Y-69214994D01*
X159625109Y-68967187D01*
X159625107Y-68967175D01*
X159564063Y-68726118D01*
X159464173Y-68498393D01*
X159328166Y-68290217D01*
X159243376Y-68198111D01*
X159159744Y-68107262D01*
X159076991Y-68042852D01*
X159036179Y-67986143D01*
X159032504Y-67916370D01*
X159067136Y-67855687D01*
X159076985Y-67847151D01*
X159159744Y-67782738D01*
X159328164Y-67599785D01*
X159464173Y-67391607D01*
X159564063Y-67163881D01*
X159625108Y-66922821D01*
X159630801Y-66854118D01*
X159645643Y-66675005D01*
X159645643Y-66674994D01*
X159625109Y-66427187D01*
X159625107Y-66427175D01*
X159564063Y-66186118D01*
X159464173Y-65958393D01*
X159328166Y-65750217D01*
X159300785Y-65720474D01*
X159159744Y-65567262D01*
X159076991Y-65502852D01*
X159036179Y-65446143D01*
X159032504Y-65376370D01*
X159067136Y-65315687D01*
X159076985Y-65307151D01*
X159159744Y-65242738D01*
X159328164Y-65059785D01*
X159464173Y-64851607D01*
X159564063Y-64623881D01*
X159625108Y-64382821D01*
X159645643Y-64135000D01*
X159625108Y-63887179D01*
X159564063Y-63646119D01*
X159464173Y-63418393D01*
X159420039Y-63350841D01*
X159328166Y-63210217D01*
X159267653Y-63144483D01*
X159159744Y-63027262D01*
X159076991Y-62962852D01*
X159036179Y-62906143D01*
X159032504Y-62836370D01*
X159067136Y-62775687D01*
X159076985Y-62767151D01*
X159159744Y-62702738D01*
X159196875Y-62662402D01*
X159267655Y-62585517D01*
X159327542Y-62549526D01*
X159358884Y-62545500D01*
X169374928Y-62545500D01*
X169441967Y-62565185D01*
X169462609Y-62581819D01*
X175814372Y-68933582D01*
X175872674Y-68994917D01*
X175920414Y-69028145D01*
X175924161Y-69030970D01*
X175943194Y-69046489D01*
X175969244Y-69067731D01*
X175969247Y-69067733D01*
X175997995Y-69082749D01*
X176004716Y-69086821D01*
X176023046Y-69099578D01*
X176031342Y-69105353D01*
X176084800Y-69128293D01*
X176089047Y-69130311D01*
X176105186Y-69138741D01*
X176140594Y-69157237D01*
X176171781Y-69166160D01*
X176179169Y-69168790D01*
X176208988Y-69181587D01*
X176265970Y-69193296D01*
X176270516Y-69194411D01*
X176326449Y-69210417D01*
X176358803Y-69212879D01*
X176366562Y-69213968D01*
X176398344Y-69220500D01*
X176456504Y-69220500D01*
X176461210Y-69220678D01*
X176484623Y-69222461D01*
X176519201Y-69225095D01*
X176519201Y-69225094D01*
X176519203Y-69225095D01*
X176551385Y-69220996D01*
X176559215Y-69220500D01*
X179929242Y-69220500D01*
X179996281Y-69240185D01*
X180016923Y-69256819D01*
X180068597Y-69308493D01*
X180068603Y-69308498D01*
X180254158Y-69438425D01*
X180297783Y-69493002D01*
X180304977Y-69562500D01*
X180273454Y-69624855D01*
X180254158Y-69641575D01*
X180068597Y-69771505D01*
X180016924Y-69823180D01*
X179955601Y-69856666D01*
X179929242Y-69859500D01*
X162537064Y-69859500D01*
X162452455Y-69857356D01*
X162452450Y-69857356D01*
X162395212Y-69867614D01*
X162390548Y-69868268D01*
X162332685Y-69874154D01*
X162332681Y-69874154D01*
X162332679Y-69874155D01*
X162332676Y-69874155D01*
X162332671Y-69874157D01*
X162301733Y-69883864D01*
X162294106Y-69885735D01*
X162262176Y-69891458D01*
X162262171Y-69891460D01*
X162208149Y-69913037D01*
X162203714Y-69914616D01*
X162148229Y-69932027D01*
X162119874Y-69947763D01*
X162112785Y-69951130D01*
X162082648Y-69963170D01*
X162034084Y-69995177D01*
X162030055Y-69997618D01*
X161979207Y-70025841D01*
X161979202Y-70025845D01*
X161954596Y-70046969D01*
X161948326Y-70051697D01*
X161921242Y-70069547D01*
X161921241Y-70069548D01*
X161880120Y-70110668D01*
X161876666Y-70113869D01*
X161832529Y-70151762D01*
X161812675Y-70177410D01*
X161807484Y-70183304D01*
X161226417Y-70764372D01*
X161165084Y-70822672D01*
X161165082Y-70822675D01*
X161131855Y-70870411D01*
X161129020Y-70874172D01*
X161092265Y-70919250D01*
X161077248Y-70947998D01*
X161073179Y-70954714D01*
X161054646Y-70981342D01*
X161054646Y-70981343D01*
X161031711Y-71034789D01*
X161029689Y-71039046D01*
X161002764Y-71090591D01*
X161002762Y-71090595D01*
X160993839Y-71121776D01*
X160991206Y-71129172D01*
X160978412Y-71158987D01*
X160978412Y-71158988D01*
X160966703Y-71215960D01*
X160965580Y-71220534D01*
X160949583Y-71276448D01*
X160949581Y-71276454D01*
X160947120Y-71308791D01*
X160946029Y-71316572D01*
X160939500Y-71348343D01*
X160939500Y-71406502D01*
X160939321Y-71411211D01*
X160934904Y-71469201D01*
X160936128Y-71478806D01*
X160939003Y-71501385D01*
X160939500Y-71509214D01*
X160939500Y-84975500D01*
X160919815Y-85042539D01*
X160867011Y-85088294D01*
X160815500Y-85099500D01*
X137583676Y-85099500D01*
X137516637Y-85079815D01*
X137495995Y-85063181D01*
X137449495Y-85016681D01*
X137416010Y-84955358D01*
X137420994Y-84885666D01*
X137462866Y-84829733D01*
X137528330Y-84805316D01*
X137537176Y-84805000D01*
X154220000Y-84805000D01*
X154220000Y-78315000D01*
X136530000Y-78315000D01*
X136530000Y-79366428D01*
X136510315Y-79433467D01*
X136457511Y-79479222D01*
X136388353Y-79489166D01*
X136324797Y-79460141D01*
X136318319Y-79454109D01*
X135575627Y-78711417D01*
X135517324Y-78650082D01*
X135517320Y-78650079D01*
X135502615Y-78639844D01*
X135469567Y-78616841D01*
X135465833Y-78614025D01*
X135420751Y-78577266D01*
X135420747Y-78577264D01*
X135420746Y-78577263D01*
X135420745Y-78577262D01*
X135391997Y-78562246D01*
X135385277Y-78558174D01*
X135358659Y-78539647D01*
X135305209Y-78516710D01*
X135300952Y-78514688D01*
X135249409Y-78487764D01*
X135249407Y-78487763D01*
X135249406Y-78487763D01*
X135232689Y-78482979D01*
X135218221Y-78478839D01*
X135210822Y-78476205D01*
X135181011Y-78463412D01*
X135181012Y-78463412D01*
X135124038Y-78451703D01*
X135119463Y-78450580D01*
X135063556Y-78434583D01*
X135063545Y-78434582D01*
X135031208Y-78432120D01*
X135023428Y-78431029D01*
X134991657Y-78424500D01*
X134991656Y-78424500D01*
X134933497Y-78424500D01*
X134928790Y-78424321D01*
X134923850Y-78423944D01*
X134870798Y-78419904D01*
X134853176Y-78422149D01*
X134838614Y-78424003D01*
X134830785Y-78424500D01*
X133958884Y-78424500D01*
X133891845Y-78404815D01*
X133867655Y-78384483D01*
X133759747Y-78267265D01*
X133759744Y-78267262D01*
X133699222Y-78220156D01*
X133676991Y-78202852D01*
X133636179Y-78146143D01*
X133632504Y-78076370D01*
X133667136Y-78015687D01*
X133676985Y-78007151D01*
X133759744Y-77942738D01*
X133928164Y-77759785D01*
X134064173Y-77551607D01*
X134164063Y-77323881D01*
X134225108Y-77082821D01*
X134227130Y-77058425D01*
X134245643Y-76835005D01*
X134245643Y-76834994D01*
X134225109Y-76587187D01*
X134225107Y-76587175D01*
X134164063Y-76346118D01*
X134064173Y-76118393D01*
X133928166Y-75910217D01*
X133843376Y-75818111D01*
X133759744Y-75727262D01*
X133676991Y-75662852D01*
X133636179Y-75606143D01*
X133632504Y-75536370D01*
X133667136Y-75475687D01*
X133676985Y-75467151D01*
X133759744Y-75402738D01*
X133928164Y-75219785D01*
X134064173Y-75011607D01*
X134164063Y-74783881D01*
X134225108Y-74542821D01*
X134227130Y-74518425D01*
X134245643Y-74295005D01*
X134245643Y-74294994D01*
X134225109Y-74047187D01*
X134225107Y-74047175D01*
X134164063Y-73806118D01*
X134064173Y-73578393D01*
X133928166Y-73370217D01*
X133843376Y-73278111D01*
X133759744Y-73187262D01*
X133676991Y-73122852D01*
X133636179Y-73066143D01*
X133632504Y-72996370D01*
X133667136Y-72935687D01*
X133676985Y-72927151D01*
X133759744Y-72862738D01*
X133928164Y-72679785D01*
X134064173Y-72471607D01*
X134164063Y-72243881D01*
X134225108Y-72002821D01*
X134242178Y-71796819D01*
X134245643Y-71755005D01*
X134245643Y-71754994D01*
X134225109Y-71507187D01*
X134225107Y-71507175D01*
X134164063Y-71266118D01*
X134064173Y-71038393D01*
X133928166Y-70830217D01*
X133843376Y-70738111D01*
X133759744Y-70647262D01*
X133676991Y-70582852D01*
X133636179Y-70526143D01*
X133632504Y-70456370D01*
X133667136Y-70395687D01*
X133676985Y-70387151D01*
X133759744Y-70322738D01*
X133928164Y-70139785D01*
X134064173Y-69931607D01*
X134164063Y-69703881D01*
X134225108Y-69462821D01*
X134229674Y-69407718D01*
X134245643Y-69215005D01*
X134245643Y-69214994D01*
X134225109Y-68967187D01*
X134225107Y-68967175D01*
X134164063Y-68726118D01*
X134064173Y-68498393D01*
X133928166Y-68290217D01*
X133843376Y-68198111D01*
X133759744Y-68107262D01*
X133676991Y-68042852D01*
X133636179Y-67986143D01*
X133632504Y-67916370D01*
X133667136Y-67855687D01*
X133676985Y-67847151D01*
X133759744Y-67782738D01*
X133928164Y-67599785D01*
X134064173Y-67391607D01*
X134164063Y-67163881D01*
X134225108Y-66922821D01*
X134230801Y-66854118D01*
X134245643Y-66675005D01*
X134245643Y-66674994D01*
X134225109Y-66427187D01*
X134225107Y-66427175D01*
X134164063Y-66186118D01*
X134064173Y-65958393D01*
X133928166Y-65750217D01*
X133900785Y-65720474D01*
X133759744Y-65567262D01*
X133676991Y-65502852D01*
X133636179Y-65446143D01*
X133632504Y-65376370D01*
X133667136Y-65315687D01*
X133676985Y-65307151D01*
X133759744Y-65242738D01*
X133928164Y-65059785D01*
X134064173Y-64851607D01*
X134164063Y-64623881D01*
X134225108Y-64382821D01*
X134245643Y-64135000D01*
X134225108Y-63887179D01*
X134164063Y-63646119D01*
X134064173Y-63418393D01*
X134020039Y-63350841D01*
X133928166Y-63210217D01*
X133867653Y-63144483D01*
X133759744Y-63027262D01*
X133676991Y-62962852D01*
X133636179Y-62906143D01*
X133632504Y-62836370D01*
X133667136Y-62775687D01*
X133676985Y-62767151D01*
X133759744Y-62702738D01*
X133928164Y-62519785D01*
X134064173Y-62311607D01*
X134164063Y-62083881D01*
X134225108Y-61842821D01*
X134229674Y-61787718D01*
X134245643Y-61595005D01*
X134245643Y-61594994D01*
X134225109Y-61347187D01*
X134225107Y-61347175D01*
X134164063Y-61106118D01*
X134064173Y-60878393D01*
X133928166Y-60670217D01*
X133867653Y-60604483D01*
X133759744Y-60487262D01*
X133676991Y-60422852D01*
X133636179Y-60366143D01*
X133632504Y-60296370D01*
X133667136Y-60235687D01*
X133676985Y-60227151D01*
X133759744Y-60162738D01*
X133928164Y-59979785D01*
X134064173Y-59771607D01*
X134164063Y-59543881D01*
X134225108Y-59302821D01*
X134245643Y-59055000D01*
X134225108Y-58807179D01*
X134164063Y-58566119D01*
X134151034Y-58536417D01*
X134064173Y-58338393D01*
X133928166Y-58130217D01*
X133906557Y-58106744D01*
X133759744Y-57947262D01*
X133676991Y-57882852D01*
X133636179Y-57826143D01*
X133632504Y-57756370D01*
X133667136Y-57695687D01*
X133676985Y-57687151D01*
X133759744Y-57622738D01*
X133928164Y-57439785D01*
X134064173Y-57231607D01*
X134164063Y-57003881D01*
X134225108Y-56762821D01*
X134245643Y-56515000D01*
X134225108Y-56267179D01*
X134164063Y-56026119D01*
X134064173Y-55798393D01*
X133928166Y-55590217D01*
X133906557Y-55566744D01*
X133759744Y-55407262D01*
X133676991Y-55342852D01*
X133636179Y-55286143D01*
X133632504Y-55216370D01*
X133667136Y-55155687D01*
X133676985Y-55147151D01*
X133759744Y-55082738D01*
X133928164Y-54899785D01*
X134064173Y-54691607D01*
X134164063Y-54463881D01*
X134225108Y-54222821D01*
X134229674Y-54167718D01*
X134245643Y-53975005D01*
X134245643Y-53974994D01*
X134225109Y-53727187D01*
X134225107Y-53727175D01*
X134164063Y-53486118D01*
X134064173Y-53258393D01*
X133928166Y-53050217D01*
X133867653Y-52984483D01*
X133759744Y-52867262D01*
X133676991Y-52802852D01*
X133636179Y-52746143D01*
X133632504Y-52676370D01*
X133667136Y-52615687D01*
X133676985Y-52607151D01*
X133759744Y-52542738D01*
X133928164Y-52359785D01*
X134064173Y-52151607D01*
X134164063Y-51923881D01*
X134225108Y-51682821D01*
X134231443Y-51606372D01*
X134245643Y-51435005D01*
X134245643Y-51434994D01*
X134225109Y-51187187D01*
X134225107Y-51187175D01*
X134164063Y-50946118D01*
X134064173Y-50718393D01*
X133928166Y-50510217D01*
X133867653Y-50444483D01*
X133759744Y-50327262D01*
X133676991Y-50262852D01*
X133636179Y-50206143D01*
X133632504Y-50136370D01*
X133667136Y-50075687D01*
X133676985Y-50067151D01*
X133759744Y-50002738D01*
X133928164Y-49819785D01*
X134064173Y-49611607D01*
X134164063Y-49383881D01*
X134225108Y-49142821D01*
X134245643Y-48895000D01*
X134225108Y-48647179D01*
X134164063Y-48406119D01*
X134064173Y-48178393D01*
X133928166Y-47970217D01*
X133906557Y-47946744D01*
X133759744Y-47787262D01*
X133656253Y-47706712D01*
X133615442Y-47650003D01*
X133608655Y-47601176D01*
X133610056Y-47578609D01*
X132881365Y-46849918D01*
X132885161Y-46849373D01*
X133018562Y-46788451D01*
X133129395Y-46692413D01*
X133208682Y-46569040D01*
X133231132Y-46492580D01*
X133963434Y-47224882D01*
X134063731Y-47071369D01*
X134163587Y-46843717D01*
X134224612Y-46602738D01*
X134224614Y-46602729D01*
X134245141Y-46355005D01*
X134245141Y-46354994D01*
X134224614Y-46107270D01*
X134224612Y-46107261D01*
X134163587Y-45866282D01*
X134063733Y-45638635D01*
X133932817Y-45438252D01*
X133912630Y-45371362D01*
X133931810Y-45304176D01*
X133977203Y-45261595D01*
X133982321Y-45258799D01*
X133982331Y-45258796D01*
X134097546Y-45172546D01*
X134183796Y-45057331D01*
X134234091Y-44922483D01*
X134240500Y-44862873D01*
X134240499Y-42767128D01*
X134234576Y-42712025D01*
X134234091Y-42707516D01*
X134183797Y-42572671D01*
X134183793Y-42572664D01*
X134097547Y-42457455D01*
X134097544Y-42457452D01*
X133982335Y-42371206D01*
X133982328Y-42371202D01*
X133847482Y-42320908D01*
X133847483Y-42320908D01*
X133787883Y-42314501D01*
X133787881Y-42314500D01*
X133787873Y-42314500D01*
X133787864Y-42314500D01*
X131692129Y-42314500D01*
X131692123Y-42314501D01*
X131632516Y-42320908D01*
X131497671Y-42371202D01*
X131497664Y-42371206D01*
X131382455Y-42457452D01*
X131382452Y-42457455D01*
X131296206Y-42572664D01*
X131296202Y-42572671D01*
X131245908Y-42707517D01*
X131240616Y-42756743D01*
X131239501Y-42767123D01*
X131239500Y-42767135D01*
X131239500Y-44862870D01*
X131239501Y-44862876D01*
X131245908Y-44922483D01*
X131296202Y-45057328D01*
X131296206Y-45057335D01*
X131382452Y-45172544D01*
X131382455Y-45172547D01*
X131497663Y-45258793D01*
X131502799Y-45261597D01*
X131552205Y-45311002D01*
X131567057Y-45379275D01*
X131547182Y-45438251D01*
X131416267Y-45638632D01*
X131316412Y-45866282D01*
X131255387Y-46107261D01*
X131255385Y-46107270D01*
X131234859Y-46354994D01*
X131234859Y-46355005D01*
X131255385Y-46602729D01*
X131255387Y-46602738D01*
X131316412Y-46843717D01*
X131416266Y-47071364D01*
X131516564Y-47224882D01*
X132248866Y-46492579D01*
X132271318Y-46569040D01*
X132350605Y-46692413D01*
X132461438Y-46788451D01*
X132594839Y-46849373D01*
X132598634Y-46849918D01*
X131869942Y-47578609D01*
X131871343Y-47601177D01*
X131855850Y-47669307D01*
X131823744Y-47706713D01*
X131720258Y-47787260D01*
X131551833Y-47970217D01*
X131415826Y-48178393D01*
X131315936Y-48406118D01*
X131254892Y-48647175D01*
X131254890Y-48647187D01*
X131234357Y-48894994D01*
X131234357Y-48895005D01*
X131254890Y-49142812D01*
X131254892Y-49142824D01*
X131315936Y-49383881D01*
X131415826Y-49611606D01*
X131551833Y-49819782D01*
X131551836Y-49819785D01*
X131720256Y-50002738D01*
X131803008Y-50067147D01*
X131843821Y-50123857D01*
X131847496Y-50193630D01*
X131812864Y-50254313D01*
X131803014Y-50262848D01*
X131784675Y-50277123D01*
X131720255Y-50327262D01*
X131720252Y-50327265D01*
X131612345Y-50444483D01*
X131552458Y-50480474D01*
X131521116Y-50484500D01*
X118177064Y-50484500D01*
X118092455Y-50482356D01*
X118092450Y-50482356D01*
X118035212Y-50492614D01*
X118030548Y-50493268D01*
X117972685Y-50499154D01*
X117972681Y-50499154D01*
X117972679Y-50499155D01*
X117972676Y-50499155D01*
X117972671Y-50499157D01*
X117941733Y-50508864D01*
X117934106Y-50510735D01*
X117902176Y-50516458D01*
X117902171Y-50516460D01*
X117848149Y-50538037D01*
X117843714Y-50539616D01*
X117788229Y-50557027D01*
X117759874Y-50572763D01*
X117752785Y-50576130D01*
X117722648Y-50588170D01*
X117674084Y-50620177D01*
X117670055Y-50622618D01*
X117619207Y-50650841D01*
X117619202Y-50650845D01*
X117594596Y-50671969D01*
X117588326Y-50676697D01*
X117561242Y-50694547D01*
X117561241Y-50694548D01*
X117520120Y-50735668D01*
X117516666Y-50738869D01*
X117472529Y-50776762D01*
X117452675Y-50802410D01*
X117447484Y-50808304D01*
X117386417Y-50869372D01*
X117325084Y-50927672D01*
X117325082Y-50927675D01*
X117291855Y-50975411D01*
X117289020Y-50979172D01*
X117252265Y-51024250D01*
X117237248Y-51052998D01*
X117233179Y-51059714D01*
X117214646Y-51086342D01*
X117214646Y-51086343D01*
X117202109Y-51115556D01*
X117198059Y-51124997D01*
X117191711Y-51139789D01*
X117189689Y-51144046D01*
X117162764Y-51195591D01*
X117162762Y-51195595D01*
X117153839Y-51226776D01*
X117151206Y-51234172D01*
X117138412Y-51263987D01*
X117138412Y-51263988D01*
X117126703Y-51320960D01*
X117125580Y-51325534D01*
X117109583Y-51381448D01*
X117109581Y-51381454D01*
X117107120Y-51413791D01*
X117106029Y-51421572D01*
X117099500Y-51453343D01*
X117099500Y-51511502D01*
X117099321Y-51516211D01*
X117094904Y-51574201D01*
X109000500Y-51574201D01*
X109000500Y-35986187D01*
X131409500Y-35986187D01*
X131429794Y-36120823D01*
X131448604Y-36245615D01*
X131448605Y-36245617D01*
X131448606Y-36245623D01*
X131525938Y-36496326D01*
X131639767Y-36732696D01*
X131639768Y-36732697D01*
X131639770Y-36732700D01*
X131639772Y-36732704D01*
X131787567Y-36949479D01*
X131966014Y-37141801D01*
X131966018Y-37141804D01*
X131966019Y-37141805D01*
X132171143Y-37305386D01*
X132398357Y-37436568D01*
X132642584Y-37532420D01*
X132898370Y-37590802D01*
X132898376Y-37590802D01*
X132898379Y-37590803D01*
X133094500Y-37605500D01*
X133094506Y-37605500D01*
X133225500Y-37605500D01*
X133421620Y-37590803D01*
X133421622Y-37590802D01*
X133421630Y-37590802D01*
X133677416Y-37532420D01*
X133921643Y-37436568D01*
X134148857Y-37305386D01*
X134353981Y-37141805D01*
X134532433Y-36949479D01*
X134680228Y-36732704D01*
X134794063Y-36496323D01*
X134871396Y-36245615D01*
X134910499Y-35986187D01*
X155919500Y-35986187D01*
X155939794Y-36120823D01*
X155958604Y-36245615D01*
X155958605Y-36245617D01*
X155958606Y-36245623D01*
X156035938Y-36496326D01*
X156149767Y-36732696D01*
X156149768Y-36732697D01*
X156149770Y-36732700D01*
X156149772Y-36732704D01*
X156297567Y-36949479D01*
X156476014Y-37141801D01*
X156476018Y-37141804D01*
X156476019Y-37141805D01*
X156681143Y-37305386D01*
X156908357Y-37436568D01*
X157152584Y-37532420D01*
X157408370Y-37590802D01*
X157408376Y-37590802D01*
X157408379Y-37590803D01*
X157604500Y-37605500D01*
X157604506Y-37605500D01*
X157735500Y-37605500D01*
X157931620Y-37590803D01*
X157931622Y-37590802D01*
X157931630Y-37590802D01*
X158187416Y-37532420D01*
X158431643Y-37436568D01*
X158658857Y-37305386D01*
X158863981Y-37141805D01*
X159042433Y-36949479D01*
X159190228Y-36732704D01*
X159304063Y-36496323D01*
X159381396Y-36245615D01*
X159420500Y-35986182D01*
X159420500Y-35723818D01*
X159381396Y-35464385D01*
X159304063Y-35213677D01*
X159259102Y-35120315D01*
X159190232Y-34977303D01*
X159190231Y-34977302D01*
X159190230Y-34977301D01*
X159190228Y-34977296D01*
X159042433Y-34760521D01*
X159004102Y-34719210D01*
X158863985Y-34568198D01*
X158744718Y-34473086D01*
X158658857Y-34404614D01*
X158431643Y-34273432D01*
X158187416Y-34177580D01*
X158187411Y-34177578D01*
X158187402Y-34177576D01*
X157969818Y-34127914D01*
X157931630Y-34119198D01*
X157931629Y-34119197D01*
X157931625Y-34119197D01*
X157931620Y-34119196D01*
X157735500Y-34104500D01*
X157735494Y-34104500D01*
X157604506Y-34104500D01*
X157604500Y-34104500D01*
X157408379Y-34119196D01*
X157408374Y-34119197D01*
X157152597Y-34177576D01*
X157152578Y-34177582D01*
X156908356Y-34273432D01*
X156681143Y-34404614D01*
X156476014Y-34568198D01*
X156297567Y-34760520D01*
X156149768Y-34977302D01*
X156149767Y-34977303D01*
X156035938Y-35213673D01*
X155958606Y-35464376D01*
X155958605Y-35464381D01*
X155958604Y-35464385D01*
X155943853Y-35562247D01*
X155919500Y-35723812D01*
X155919500Y-35986187D01*
X134910499Y-35986187D01*
X134910500Y-35986182D01*
X134910500Y-35723818D01*
X134871396Y-35464385D01*
X134794063Y-35213677D01*
X134749102Y-35120315D01*
X134680232Y-34977303D01*
X134680231Y-34977302D01*
X134680230Y-34977301D01*
X134680228Y-34977296D01*
X134532433Y-34760521D01*
X134494102Y-34719210D01*
X134353985Y-34568198D01*
X134234718Y-34473086D01*
X134148857Y-34404614D01*
X133921643Y-34273432D01*
X133677416Y-34177580D01*
X133677411Y-34177578D01*
X133677402Y-34177576D01*
X133459818Y-34127914D01*
X133421630Y-34119198D01*
X133421629Y-34119197D01*
X133421625Y-34119197D01*
X133421620Y-34119196D01*
X133225500Y-34104500D01*
X133225494Y-34104500D01*
X133094506Y-34104500D01*
X133094500Y-34104500D01*
X132898379Y-34119196D01*
X132898374Y-34119197D01*
X132642597Y-34177576D01*
X132642578Y-34177582D01*
X132398356Y-34273432D01*
X132171143Y-34404614D01*
X131966014Y-34568198D01*
X131787567Y-34760520D01*
X131639768Y-34977302D01*
X131639767Y-34977303D01*
X131525938Y-35213673D01*
X131448606Y-35464376D01*
X131448605Y-35464381D01*
X131448604Y-35464385D01*
X131433853Y-35562247D01*
X131409500Y-35723812D01*
X131409500Y-35986187D01*
X109000500Y-35986187D01*
X109000500Y-32200002D01*
X109994652Y-32200002D01*
X110014028Y-32557368D01*
X110014029Y-32557385D01*
X110071926Y-32910539D01*
X110071932Y-32910565D01*
X110167672Y-33255392D01*
X110167674Y-33255399D01*
X110300142Y-33587870D01*
X110300151Y-33587888D01*
X110467784Y-33904077D01*
X110467787Y-33904082D01*
X110467789Y-33904085D01*
X110653224Y-34177582D01*
X110668634Y-34200309D01*
X110668641Y-34200319D01*
X110730744Y-34273432D01*
X110900332Y-34473086D01*
X111160163Y-34719211D01*
X111445081Y-34935800D01*
X111751747Y-35120315D01*
X111751749Y-35120316D01*
X111751751Y-35120317D01*
X111751755Y-35120319D01*
X112057574Y-35261805D01*
X112076565Y-35270591D01*
X112415726Y-35384868D01*
X112765254Y-35461805D01*
X113121052Y-35500500D01*
X113121058Y-35500500D01*
X113478942Y-35500500D01*
X113478948Y-35500500D01*
X113834746Y-35461805D01*
X114184274Y-35384868D01*
X114523435Y-35270591D01*
X114848253Y-35120315D01*
X115154919Y-34935800D01*
X115439837Y-34719211D01*
X115699668Y-34473086D01*
X115931365Y-34200311D01*
X116132211Y-33904085D01*
X116299853Y-33587880D01*
X116432324Y-33255403D01*
X116528071Y-32910552D01*
X116560859Y-32710552D01*
X116585970Y-32557385D01*
X116585970Y-32557382D01*
X116585972Y-32557371D01*
X116605348Y-32200000D01*
X116594504Y-32000000D01*
X200244652Y-32000000D01*
X200255495Y-32199997D01*
X200264028Y-32357368D01*
X200264029Y-32357385D01*
X200321926Y-32710539D01*
X200321932Y-32710565D01*
X200417672Y-33055392D01*
X200417674Y-33055399D01*
X200550142Y-33387870D01*
X200550151Y-33387888D01*
X200717784Y-33704077D01*
X200717787Y-33704082D01*
X200717789Y-33704085D01*
X200853392Y-33904085D01*
X200918634Y-34000309D01*
X200918641Y-34000319D01*
X201088516Y-34200311D01*
X201150332Y-34273086D01*
X201410163Y-34519211D01*
X201695081Y-34735800D01*
X202001747Y-34920315D01*
X202001749Y-34920316D01*
X202001751Y-34920317D01*
X202001755Y-34920319D01*
X202035217Y-34935800D01*
X202326565Y-35070591D01*
X202665726Y-35184868D01*
X203015254Y-35261805D01*
X203371052Y-35300500D01*
X203371058Y-35300500D01*
X203728942Y-35300500D01*
X203728948Y-35300500D01*
X204084746Y-35261805D01*
X204434274Y-35184868D01*
X204773435Y-35070591D01*
X205098253Y-34920315D01*
X205404919Y-34735800D01*
X205689837Y-34519211D01*
X205949668Y-34273086D01*
X206181365Y-34000311D01*
X206382211Y-33704085D01*
X206549853Y-33387880D01*
X206682324Y-33055403D01*
X206778071Y-32710552D01*
X206835972Y-32357371D01*
X206855348Y-32000000D01*
X206835972Y-31642629D01*
X206810861Y-31489460D01*
X206778073Y-31289460D01*
X206778072Y-31289459D01*
X206778071Y-31289448D01*
X206737854Y-31144600D01*
X206682327Y-30944607D01*
X206682325Y-30944600D01*
X206549857Y-30612129D01*
X206549848Y-30612111D01*
X206382215Y-30295922D01*
X206382213Y-30295919D01*
X206382211Y-30295915D01*
X206181365Y-29999689D01*
X206181361Y-29999684D01*
X206181358Y-29999680D01*
X205949668Y-29726914D01*
X205900966Y-29680781D01*
X205689837Y-29480789D01*
X205689830Y-29480783D01*
X205689827Y-29480781D01*
X205622245Y-29429407D01*
X205404919Y-29264200D01*
X205098253Y-29079685D01*
X205098252Y-29079684D01*
X205098248Y-29079682D01*
X205098244Y-29079680D01*
X204773447Y-28929414D01*
X204773441Y-28929411D01*
X204773435Y-28929409D01*
X204603854Y-28872270D01*
X204434273Y-28815131D01*
X204084744Y-28738194D01*
X203728949Y-28699500D01*
X203728948Y-28699500D01*
X203371052Y-28699500D01*
X203371050Y-28699500D01*
X203015255Y-28738194D01*
X202665726Y-28815131D01*
X202415331Y-28899500D01*
X202326565Y-28929409D01*
X202326563Y-28929410D01*
X202326552Y-28929414D01*
X202001755Y-29079680D01*
X202001751Y-29079682D01*
X201773367Y-29217096D01*
X201695081Y-29264200D01*
X201674715Y-29279682D01*
X201410172Y-29480781D01*
X201410163Y-29480789D01*
X201150331Y-29726914D01*
X200918641Y-29999680D01*
X200918634Y-29999690D01*
X200717790Y-30295913D01*
X200717784Y-30295922D01*
X200550151Y-30612111D01*
X200550142Y-30612129D01*
X200417674Y-30944600D01*
X200417672Y-30944607D01*
X200321932Y-31289434D01*
X200321926Y-31289460D01*
X200264029Y-31642614D01*
X200264028Y-31642627D01*
X200264028Y-31642629D01*
X200244652Y-32000000D01*
X116594504Y-32000000D01*
X116585972Y-31842629D01*
X116528071Y-31489448D01*
X116432324Y-31144597D01*
X116299853Y-30812120D01*
X116193819Y-30612120D01*
X116132215Y-30495922D01*
X116132213Y-30495919D01*
X116132211Y-30495915D01*
X115931365Y-30199689D01*
X115931361Y-30199684D01*
X115931358Y-30199680D01*
X115699668Y-29926914D01*
X115439837Y-29680789D01*
X115439830Y-29680783D01*
X115439827Y-29680781D01*
X115372245Y-29629407D01*
X115154919Y-29464200D01*
X114848253Y-29279685D01*
X114848252Y-29279684D01*
X114848248Y-29279682D01*
X114848244Y-29279680D01*
X114523447Y-29129414D01*
X114523441Y-29129411D01*
X114523435Y-29129409D01*
X114353854Y-29072270D01*
X114184273Y-29015131D01*
X113834744Y-28938194D01*
X113478949Y-28899500D01*
X113478948Y-28899500D01*
X113121052Y-28899500D01*
X113121050Y-28899500D01*
X112765255Y-28938194D01*
X112415726Y-29015131D01*
X112159970Y-29101306D01*
X112076565Y-29129409D01*
X112076563Y-29129410D01*
X112076552Y-29129414D01*
X111751755Y-29279680D01*
X111751751Y-29279682D01*
X111523367Y-29417096D01*
X111445081Y-29464200D01*
X111423259Y-29480789D01*
X111160172Y-29680781D01*
X111160163Y-29680789D01*
X110900331Y-29926914D01*
X110668641Y-30199680D01*
X110668634Y-30199690D01*
X110467790Y-30495913D01*
X110467784Y-30495922D01*
X110300151Y-30812111D01*
X110300142Y-30812129D01*
X110167674Y-31144600D01*
X110167672Y-31144607D01*
X110071932Y-31489434D01*
X110071926Y-31489460D01*
X110014029Y-31842614D01*
X110014028Y-31842631D01*
X109994652Y-32199997D01*
X109994652Y-32200002D01*
X109000500Y-32200002D01*
X109000500Y-28100862D01*
X109020185Y-28033823D01*
X109036819Y-28013181D01*
X109113181Y-27936819D01*
X109174504Y-27903334D01*
X109200862Y-27900500D01*
X207675500Y-27900500D01*
X207742539Y-27920185D01*
G37*
%TD.AperFunction*%
%TD*%
M02*
